<?xml version="1.0" encoding="utf-8"?>
<!-- Generator: Adobe Illustrator 21.0.0, SVG Export Plug-In . SVG Version: 6.00 Build 0)  -->
<svg version="1.1" id="Camada_1" xmlns="http://www.w3.org/2000/svg" xmlns:xlink="http://www.w3.org/1999/xlink" x="0px" y="0px"
	 viewBox="0 0 223.8 80.4" style="enable-background:new 0 0 223.8 80.4;" xml:space="preserve">
<style type="text/css">
	.st0{fill:#AE1917;}
	.st1{fill:#FFFFFF;}
	.st2{fill:#878787;}
	.st3{fill:#1D1D1B;}
</style>
<g>
	<polygon class="st0" points="134.3,2 124.2,66.4 117,66.4 106.6,2 99.9,2 113.5,78.6 127.2,78.6 140.9,2 	"/>
	<polygon class="st1" points="120.6,51.8 127.8,2 120.6,51.8 113.4,2 106.6,2 106.6,2 113.4,2 	"/>
	<polygon class="st1" points="124.2,66.4 134.3,2 127.8,2 120.6,51.8 113.4,2 106.6,2 117,66.4 	"/>
	<path class="st2" d="M9.1,2.2C7.9,3,7.5,4.2,7.5,5.6L7.4,25.4c-0.2,5.3,1.9,10.7,6.9,13c5.6,2.8,11.8-0.1,16.1-3.5l0.1-0.4
		l0.3-28.7c0.1-1.3-0.5-2.5-1.6-3.1c-0.3-0.2-0.8-0.2-0.8-0.6L28.5,2c2.6,0.3,5.3,0.1,8,0.1c0.1,0,0.2,0,0.2,0.1
		c-0.2,0.4-0.7,0.4-1.1,0.7c-1.2,1.1-1.3,2.9-1.3,4.5l-0.4,27.7c0.1,1.5-0.1,3.5,1.3,4.4c0.4,0.3,0.8,0.3,1.2,0.6
		c0,0.1-0.1,0.2-0.2,0.2c-2.4-0.1-4.9-0.4-7.3-0.1c-0.1-0.1-0.1-0.1-0.1-0.2c1.3-0.8,1.7-2.4,1.7-4c-0.2-0.2-0.3,0.1-0.6,0.3
		c-4.9,3.6-11.5,5.9-17.6,3.5C8,38.4,4.9,33.9,4.5,29.6C4,25.6,4.3,17,4.3,17c0.1-3.9,0.2-8-0.1-11.9C4.1,3.8,2.7,2.8,1.5,2.4
		c0-0.1,0.1-0.2,0.2-0.2c2.4,0,4.6,0.3,6.9-0.1h0.5C9.1,2.1,9.1,2.2,9.1,2.2z M47.5,37.7c0.1,0.8,0.8,1.4,1.4,1.7
		c0.4,0.2,1,0.2,1.3,0.5L50,40.1c-2.6-0.2-6.7-0.1-7.9,0.1c-0.2-0.4,1-0.5,1.4-0.8c1.1-0.6,1.5-1.7,1.5-2.8l0.3-32.1
		c-0.6-1.1-1.8-1.9-3-2.1c-0.2-0.1-0.1-0.2-0.1-0.3L42.5,2c2.4,0.2,4.9,0.2,7.2-0.2c0.1,0.4-0.3,0.7-0.3,1.1c-0.2,0.8,0,1.5,0.4,2.2
		l23.6,27.5l0.2-0.1l0.1-25.4c-0.1-1.5-0.1-3-1.4-3.9c-0.4-0.4-1.1-0.3-1.5-0.7l0.4-0.2c2.4,0.1,5.2,0.2,7.6-0.2l0.1,0.1
		c0.1,0.3-0.3,0.4-0.4,0.4c-0.7,0.2-1.5,0.5-2,1.2c-0.9,2.6-0.4,4.9-0.6,7.8v1.2l-0.2,26.9c-0.1,0.3,0.1,0.6-0.1,0.7l-0.2-0.1
		L62.8,25.4c-5.3-6-10.2-12.2-15.4-18.1h-0.1C47.3,12.2,46.9,33,47.5,37.7 M91.4,3.1c-1.5,1-1.2,2-1.3,3.5c0,0-0.1,29.4,0.3,31.8
		c0.2,0.9,1.1,1.3,1.8,1.8l-0.3,0.2c-2.4-0.4-5.1-0.2-7.6-0.1c-0.2-0.4,0.5-0.3,0.7-0.6c0.5-0.1,1.2-0.5,1.3-1.1l0.3-1.6V6.4
		c-0.1-1.1-0.2-2.4-1.2-3l-0.2-0.3c-0.5-0.4-1.3-0.2-1.5-0.7l0.2-0.1c2.8,0.3,5.8,0.3,8.5-0.1c0.2,0,0.3-0.1,0.6,0
		C92.7,2.7,91.9,2.7,91.4,3.1 M160.1,21c-2.6-0.2-5.4-0.1-8,0.2l-0.1,0.2c-0.1,5.6-0.2,11.3,0.1,16.9l0.2,0.1
		c3.8-0.3,8.7,0.3,12.7-0.5c1.2-0.3,2.2-1.5,2.7-2.6c0.1-0.1,0.2-0.1,0.2,0l0.1,0.1c-0.3,1.3-0.7,2.5-1.3,3.8c-0.3,0.6-1,0.8-1.6,1
		c-6.6,0.1-12.3-0.4-18.9,0c-0.1-0.1-0.1-0.2-0.1-0.3c0.7-0.3,1.9-0.9,2.2-2.1l0.2-1.5l0.1-10V7c-0.1-1.3,0-3.2-1.3-4.2
		c-0.2-0.3-0.8-0.2-0.8-0.8h0.2c4.9,0,9.6-0.1,14.6-0.2c0.3,0.1,0.8,0.1,1,0.3c0.7,0.9,0.8,1.9,0.9,3c-0.2,0.2-0.3-0.1-0.4-0.2
		c-0.7-1.3-2-1.6-3.4-1.5l-7.2,0.2L152,3.7c0,5.2-0.2,10.4,0.1,15.5l0.2,0.1c3-0.1,6.1,0.1,9-0.4c0.8-0.3,1.6-1,1.9-1.8
		c0.1-0.1,0.2-0.1,0.3-0.1c-0.2,1.9-0.2,3.8-0.1,5.7c-0.1,0.1-0.2,0.1-0.2,0C163.2,22.8,163.7,21.3,160.1,21 M191.6,3.4v0.2
		c0.1,1.4,0.2,2.7-0.1,4c-0.1,0.2-0.2,0.1-0.2,0.1c-1-2-3.1-4.1-5.4-4.3c-3.1-0.7-6.4,0.3-8.1,3c-1.1,1.9-1,4.6,0,6.5
		c0.8,1.3,2.4,2.6,3.7,3.9c3.3,2.6,6.8,4.8,10.1,7.8c2.1,2.4,2.6,6.3,1.6,9.2c-0.9,3-3.7,5.9-6.8,6.5c-3.8,1-7.7-0.2-11.5-0.4
		c-0.1-2-0.3-3.9-0.4-6c0-0.2,0.2-0.2,0.4-0.2c0.3,0.6,0.3,1.2,0.6,1.8c1.6,3.5,5.4,4.2,8.9,3.9c2.6-0.2,5.4-1.9,6.3-4.5
		c1-2.4,0.3-5.3-1.3-7.2c-1.3-1.6-2.9-2.8-4.4-3.9c-3.9-3.2-10.1-6.3-10.1-12.1c-0.1-3.3,1.2-6.3,4.1-8.2
		C182.6,1,187.7,2.2,191.6,3.4 M219.9,5.9c2.1,2.8,2.2,7.2,0.7,10.3c-1.4,3.2-4.8,5.2-8.1,5.4c-1.6,0.2-3.2,0.1-4.7-0.2
		c-0.1-0.1-0.2-0.2-0.1-0.4l0.3-0.1c3.1,0.4,6.4,0.2,8.5-2.3c2.4-3,2.4-8,0.7-11.3c-1-2.2-3.3-3.9-5.7-4.2c-1.6-0.2-3.6,0-5.1,0.4
		l-0.1,0.2l-0.2,8.1l0.1,25.1c0.1,1.1,0.7,2.5,1.9,2.8c0.3,0.1,0.8,0.1,0.9,0.4c-0.4,0.4-1.1,0.1-1.6,0.2c-2.4-0.3-4.8-0.3-7,0.1
		c-0.2,0-0.3,0-0.4-0.1l0.1-0.3c0.8-0.3,2-0.6,2.6-1.6l0.2-1.3l0.2-16.2L203,5.8c-0.1-1.4-1-2.6-2.2-3.3c-0.1-0.2,0-0.3,0.2-0.3
		C207.3,2.6,215.6-0.1,219.9,5.9"/>
	<polygon class="st3" points="113.4,2 127.8,2 120.6,51.8 	"/>
</g>
</svg>
