<svg id="6870d03a-65ea-4ee1-a663-727c90414ef5" data-name="Layer 1" xmlns="http://www.w3.org/2000/svg" viewBox="0 0 160 160"><title>ods</title><rect width="160" height="160" fill="#26bde2"/><path d="M24.21,46.1c5.76,0,8-3.14,8-8.14V33.2c0-5.28-2.09-7.94-6-7.94a4.64,4.64,0,0,0-4.47,2.62h0V20.92c0-2,.62-3.33,2.57-3.33s2.52,1.14,2.52,3.14v2.14h4.95V21.16c0-4.76-1.57-8.09-7.57-8.09-5.71,0-7.85,3.66-7.85,8.71v15.7c0,5,2.19,8.61,7.9,8.61M21.69,32.53c.1-1.81.86-2.95,2.57-2.95s2.57,1.14,2.57,3.24v5.62c0,2-.76,3.23-2.62,3.23s-2.52-1.24-2.52-3.23Z" fill="#fff"/><path d="M109.47,64.7a.7.7,0,0,0-.52-.23h-58a.7.7,0,0,0-.52.23.7.7,0,0,0-.15.55l9.75,59a.68.68,0,0,0,.67.57h12l.82,9.61h-5l11.72,11.72,11.75-11.75h-5l.82-9.59H99.83a.67.67,0,0,0,.67-.58l9.12-59a.69.69,0,0,0-.15-.55M87,111.92a9.31,9.31,0,0,1-6.93,2.42,9.32,9.32,0,0,1-6.93-2.42c-4.35-4.34-2.8-9.75-1.28-12.54.93-1.75,7.62-11.78,8.19-12.64v-.07l0,0,0,0v.07c.56.85,7.25,10.89,8.19,12.64,1.52,2.79,3.06,8.2-1.28,12.54m18.42-34.81a7.21,7.21,0,0,0-5.48.33c-7.2,2.92-12.1,4-19.68,1.6-4.77-1.49-9.23-4.62-14.51-2.72-3.5,1.26-6.76,2.46-10.72,2.43L52.77,67h54.33Z" fill="#fff"/><path d="M125.05,45.78c2.33,0,3.34-1.5,3.34-3.53V35.93c0-2-1-3.53-3.34-3.53s-3.32,1.48-3.32,3.53v6.32C121.73,44.28,122.74,45.78,125.05,45.78Zm0-1.83c-.77,0-1.12-.56-1.12-1.35v-7c0-.79.35-1.35,1.12-1.35s1.14.56,1.14,1.35v7C126.19,43.39,125.84,44,125.05,44Zm-10.18-9.6h1.81V45.63h2.22V34.35h1.81V32.56h-5.84Zm-2.93,11.28h1.93V32.56H112v7.5l-2.37-7.5H107.5V45.63h1.85V37.42Zm-10.86,0h5.25V43.84h-3v-4h2.18V38.09h-2.18V34.35h3V32.56h-5.25Zm-3.26,0h2V32.56H97l-1.27,7.37h0l-1.43-7.37H91.76V45.63h1.81V37.15h0l1.64,8.48h1l1.48-8.48h.06ZM87,36.24h0l.87,5.24H86.14Zm-1.54,9.39.39-2.39h2.33l.4,2.39h2.26L88.36,32.56H85.86L83.39,45.63Zm-8.16,0h5.25V43.84h-3v-4h2.18V38.09H79.51V34.35h3V32.56H77.31Zm-3.18,0h1.93V32.56H74.22v7.5l-2.37-7.5H69.69V45.63h1.85V37.42Zm-9.18-9.39h0l.87,5.24H64.08ZM63.4,45.63l.39-2.39h2.33l.4,2.39h2.26L66.3,32.56H63.79L61.32,45.63Zm-6.1.15c2.24,0,3.2-1.27,3.2-3.07v-.64c0-1.45-.58-2.18-1.77-3.39L57.33,37.3c-.64-.62-1-1-1-1.77v-.27a1,1,0,0,1,1-1.08c.69,0,1,.37,1,1.12v1.14h2V35.37c0-1.89-.87-3-3.07-3s-3.09,1.25-3.09,2.87v.44c0,1.5.58,2.26,1.83,3.49l1.29,1.29a2.36,2.36,0,0,1,1,1.85v.5c0,.69-.31,1.16-1,1.16s-1.08-.42-1.08-1.16V41.06h-2v1.75C54.2,44.53,55.07,45.78,57.31,45.78Zm-11.44-.15h5.25V43.84h-3v-4h2.18V38.09H48.07V34.35h3V32.56H45.87Z" fill="#fff"/><path d="M125.65,26.34h4.82V24.55h-2.62V13.27h-2.2Zm-6.62,0h5.25V24.55h-3v-4h2.18V18.8h-2.18V15.06h3V13.27H119Zm-3.17-13.07-1.54,9.12h0l-1.5-9.12h-2.24l2.49,13.07h2.39l2.49-13.07ZM106,17h0l.87,5.24h-1.75Zm1.89-6.13-3.45.73v1.23l3.45-.44Zm-3.43,15.52L104.8,24h2.33l.4,2.39h2.26L107.3,13.27H104.8l-2.47,13.07Zm-8.8-11.28h1.81V26.34h2.22V15.06h1.81V13.27H95.62ZM91.08,26.5c2.33,0,3.34-1.5,3.34-3.53V16.64c0-2-1-3.53-3.34-3.53s-3.32,1.48-3.32,3.53V23C87.77,25,88.77,26.5,91.08,26.5Zm0-1.83c-.77,0-1.12-.56-1.12-1.35v-7c0-.79.35-1.35,1.12-1.35s1.14.56,1.14,1.35v7C92.22,24.11,91.87,24.66,91.08,24.66Zm-7.93-9.6c.75,0,1.08.35,1.08,1.06v3a.94.94,0,0,1-1.08,1.08h-.81V15.06Zm-3,11.28h2.2V21.91h1.06c2.22,0,3-1.12,3-3V16.2c0-1.83-.81-2.93-3-2.93H80.15ZM73,17h0l.87,5.24H72.12Zm-1.54,9.39L71.83,24h2.33l.4,2.39h2.26L74.34,13.27H71.83L69.36,26.34ZM66.24,13.27v10.1c0,.77-.31,1.29-1.08,1.29s-1.08-.52-1.08-1.29V13.27h-2.2v9.89c0,2,1,3.34,3.28,3.34s3.1-1.31,3.1-3.34V13.27ZM57.31,21.1h1v2.31c0,.85-.37,1.25-1.08,1.25s-1.08-.56-1.08-1.35v-7c0-.79.35-1.35,1.14-1.35s1.1.46,1.1,1.27v1.33h2V16.39c0-1.93-.71-3.28-3.14-3.28S54,14.6,54,16.64V23c0,2,.87,3.53,2.76,3.53a2,2,0,0,0,2.1-1.58v1.43h1.58v-7H57.31ZM49.05,17h0l.87,5.24H48.18Zm1.89-6.13-3.45.73v1.23l3.45-.44ZM47.51,26.34,47.89,24h2.33l.41,2.39h2.26L50.4,13.27H47.89L45.43,26.34Z" fill="#fff"/></svg>