<svg id="3bb23ded-d270-471d-96ec-d45a2b90b2f8" data-name="Layer 1" xmlns="http://www.w3.org/2000/svg" viewBox="0 0 160 160"><title>ods</title><rect width="160" height="160" fill="#a21942"/><path d="M31.09,37.78V34.25c0-3.09-1.09-5.33-3.62-6.47,2.14-1,3.14-2.95,3.14-5.61V20.84c0-5-2.62-7.76-7.61-7.76s-7.52,2.71-7.52,7.76v1.33c0,2.62,1,4.57,3,5.61C16,28.92,15,31.16,15,34.25v3.52c0,4.9,2.33,8.33,8,8.33s8.09-3.43,8.09-8.33M20.57,20.51c0-2,.67-3.1,2.43-3.1s2.47,1.14,2.47,3.1v2.19c0,2-.67,3.1-2.47,3.1s-2.43-1.14-2.43-3.1Zm5.09,17.84c0,2-.71,3.33-2.66,3.33s-2.62-1.38-2.62-3.33V33.11c0-1.95.71-3.33,2.62-3.33s2.66,1.38,2.66,3.33Z" fill="#fff"/><path d="M110.36,78.72,94.1,94.19a2.69,2.69,0,0,0-.93,2.32v43.36a.93.93,0,0,0,.93.92h16.8a.93.93,0,0,0,.93-.92V79.11c0-.51-.4-1.45-1.46-.39" fill="#fff"/><path d="M63.51,98.87,47.24,114.34a2.69,2.69,0,0,0-.93,2.32v23.21a.93.93,0,0,0,.93.92H64a.93.93,0,0,0,.93-.92V99.26c0-.51-.4-1.45-1.46-.39" fill="#fff"/><path d="M117.75,60a.46.46,0,0,0-.14-.35.48.48,0,0,0-.3-.13h-.22l-12.45,2.81-.23,0-.24.13a.48.48,0,0,0,0,.67l.14.14,2.84,2.84L78.94,94.32l-13-13a.37.37,0,0,0-.53,0l-3.54,3.54h0L40.94,105.71a.38.38,0,0,0,0,.53l3.54,3.54a.37.37,0,0,0,.53,0L65.64,89.15l9.46,9.46,0,0,3.54,3.53a.37.37,0,0,0,.53,0l32-32,3,3a.47.47,0,0,0,.66,0,.46.46,0,0,0,.14-.31v0l2.74-12.71Z" fill="#fff"/><path d="M87,101.59l-7.87,7.93a.38.38,0,0,1-.51,0l-7.13-7.27c-1.3-1.3-1.59-.25-1.59.27v37.37a.92.92,0,0,0,.92.93h16.8a.93.93,0,0,0,.92-.93v-38c0-.51-.4-1.45-1.56-.29" fill="#fff"/><path d="M111.38,25.47h5.24V23.68h-3v-4h2.18V17.93h-2.18V14.19h3V12.4h-5.24ZM106.81,12.4h-3.39V25.47h3.39c2.35,0,3.18-1.5,3.18-3.51V15.91C110,13.88,109.16,12.4,106.81,12.4Zm-1.2,11.28V14.19h.93a1.15,1.15,0,0,1,1.25,1.31v6.85c0,.79-.35,1.33-1.25,1.33Zm-9.09,1.95c2.33,0,3.34-1.5,3.34-3.53V15.77c0-2-1-3.53-3.34-3.53s-3.32,1.48-3.32,3.53V22.1C93.21,24.12,94.21,25.63,96.53,25.63Zm0-1.83c-.77,0-1.12-.56-1.12-1.35v-7c0-.79.35-1.35,1.12-1.35s1.14.56,1.14,1.35v7C97.66,23.24,97.32,23.79,96.53,23.79ZM89.6,25.47h2.22V12.4H89.6v5.53H87.48V12.4h-2.2V25.47h2.2V19.71H89.6Zm-10.28,0h4.82V23.68H81.52V12.4h-2.2Zm-4.88-9.39h0l.87,5.24H73.57ZM72.9,25.47l.39-2.39h2.33l.4,2.39h2.26L75.79,12.4H73.28L70.82,25.47ZM65.68,14.19h.75a.92.92,0,0,1,1.06,1.06v1.6a.93.93,0,0,1-1,1.06h-.77Zm.94,5.4c.77,0,1.1.37,1.1,1.06v2a1,1,0,0,1-1.08,1.06h-1V19.59Zm-3.14,5.88H66.9c2.2,0,3-1,3-2.87V20.86a2,2,0,0,0-1.64-2.18A1.9,1.9,0,0,0,69.6,16.6V15.27c0-1.85-.73-2.87-2.93-2.87H63.49ZM58.6,16.08h0l.87,5.24H57.74Zm-1.54,9.39.39-2.39h2.33l.4,2.39h2.26L60,12.4H57.45L55,25.47ZM50.7,14.19c.75,0,1.08.35,1.08,1.06v1.93a1,1,0,0,1-1.08,1.08H50V14.19ZM52,25.47h2.31l-2.1-5.94C53.49,19.24,54,18.42,54,17V15.33c0-1.83-.81-2.93-3-2.93h-3.2V25.47H50v-6ZM40.76,14.19h1.81V25.47h2.22V14.19h1.81V12.4H40.76Z" fill="#fff"/><path d="M145,25.47h5.24V23.68h-3v-4h2.18V17.93h-2.18V14.19h3V12.4H145Zm-6.58-11.28h1.81V25.47h2.22V14.19h1.81V12.4h-5.84ZM135.8,25.47h1.93V12.4h-1.83v7.5l-2.37-7.5h-2.16V25.47h1.85V17.26Zm-10.57,0h5.24V23.68h-3v-4h2.18V17.93h-2.18V14.19h3V12.4h-5.24Zm-4,.15c2.33,0,3.1-1.39,3.1-3.26V20.11h-2v2.41c0,.77-.27,1.27-1.06,1.27s-1.12-.56-1.12-1.35v-7c0-.79.33-1.35,1.12-1.35s1.06.46,1.06,1.27v1.72h2V15.52c0-1.93-.67-3.28-3.1-3.28s-3.28,1.48-3.28,3.53V22.1C117.94,24.12,118.9,25.63,121.22,25.63Z" fill="#fff"/><path d="M119,43.83c2.33,0,3.34-1.5,3.34-3.53V34c0-2-1-3.53-3.34-3.53s-3.32,1.48-3.32,3.53v6.32C115.72,42.33,116.72,43.83,119,43.83ZM119,42c-.77,0-1.12-.56-1.12-1.35v-7c0-.79.35-1.35,1.12-1.35s1.14.56,1.14,1.35v7C120.17,41.44,119.83,42,119,42Zm-10-9.6h1.81V43.68h2.22V32.4h1.81V30.61h-5.84Zm-2.72,11.28h1.93V30.61h-1.83v7.5l-2.37-7.5h-2.16V43.68h1.85V35.47Zm-10.65,0h5.24V41.89h-3v-4h2.18V36.14H97.9V32.4h3V30.61H95.7Zm-3,0h2V30.61H91.88L90.6,38h0l-1.43-7.37H86.59V43.68h1.81V35.2h0l1.64,8.48h1l1.48-8.48h.06Zm-9.31,0h2.2V30.61h-2.2Zm-4.09.15c2.33,0,3.1-1.39,3.1-3.26V38.32h-2v2.41c0,.77-.27,1.27-1.06,1.27s-1.12-.56-1.12-1.35v-7c0-.79.33-1.35,1.12-1.35s1.06.46,1.06,1.27v1.72h2V33.73c0-1.93-.67-3.28-3.1-3.28S76,31.94,76,34v6.32C76,42.33,76.93,43.83,79.24,43.83Zm-7.43,0c2.24,0,3.2-1.27,3.2-3.07v-.64c0-1.45-.58-2.18-1.77-3.39l-1.41-1.39c-.64-.62-1-1-1-1.77v-.27a1,1,0,0,1,1-1.08c.69,0,1,.37,1,1.12v1.14h2V33.42c0-1.89-.87-3-3.07-3s-3.09,1.25-3.09,2.87v.44c0,1.5.58,2.26,1.83,3.49l1.29,1.29a2.36,2.36,0,0,1,1,1.85v.5c0,.69-.31,1.16-1,1.16s-1.08-.42-1.08-1.16V39.11h-2v1.75C68.71,42.58,69.58,43.83,71.82,43.83Zm-9.2-.15h5.24V41.89h-3v-4H67V36.14H64.82V32.4h3V30.61H62.62ZM58.33,32.4c.75,0,1.08.35,1.08,1.06v1.93a1,1,0,0,1-1.08,1.08H57.6V32.4Zm1.33,11.28H62l-2.1-5.94c1.25-.29,1.75-1.12,1.75-2.53V33.54c0-1.83-.81-2.93-3-2.93H55.4V43.68h2.2v-6Zm-8.35.15c2.33,0,3.1-1.39,3.1-3.26V38.32h-2v2.41c0,.77-.27,1.27-1.06,1.27s-1.12-.56-1.12-1.35v-7c0-.79.33-1.35,1.12-1.35s1.06.46,1.06,1.27v1.72h2V33.73c0-1.93-.67-3.28-3.1-3.28S48,31.94,48,34v6.32C48,42.33,49,43.83,51.31,43.83ZM40,43.68h5.24V41.89h-3v-4h2.18V36.14H42.21V32.4h3V30.61H40Z" fill="#fff"/><path d="M98.82,61.73c2.33,0,3.34-1.5,3.34-3.53V51.88c0-2-1-3.53-3.34-3.53s-3.32,1.48-3.32,3.53v6.32C95.51,60.23,96.51,61.73,98.82,61.73Zm0-1.83c-.77,0-1.12-.56-1.12-1.35v-7c0-.79.35-1.35,1.12-1.35s1.14.56,1.14,1.35v7C100,59.34,99.61,59.9,98.82,59.9Zm-7.33,1.83c2.33,0,3.1-1.39,3.1-3.26V56.22h-2v2.41c0,.77-.27,1.27-1.06,1.27s-1.12-.56-1.12-1.35v-7c0-.79.33-1.35,1.12-1.35s1.06.46,1.06,1.27v1.72h2V51.63c0-1.93-.67-3.28-3.1-3.28s-3.28,1.48-3.28,3.53v6.32C88.21,60.23,89.18,61.73,91.49,61.73ZM85,61.58h2.2V48.51H85Zm-3,0h2V48.51H81.29L80,55.87h0l-1.43-7.37H76V61.58h1.81V53.1h0l1.64,8.48h1L82,53.1h.06ZM71.72,47.47l1.85.56V47l-1.39-1h-1l-1.39,1V48Zm0,14.27c2.33,0,3.34-1.5,3.34-3.53V51.88c0-2-1-3.53-3.34-3.53s-3.32,1.48-3.32,3.53v6.32C68.39,60.23,69.39,61.73,71.7,61.73Zm0-1.83c-.77,0-1.12-.56-1.12-1.35v-7c0-.79.35-1.35,1.12-1.35s1.14.56,1.14,1.35v7C72.84,59.34,72.49,59.9,71.7,59.9Zm-6.21,1.68h1.93V48.51H65.59V56l-2.37-7.5H61.06V61.58h1.85V53.37Zm-8.74.15c2.33,0,3.34-1.5,3.34-3.53V51.88c0-2-1-3.53-3.34-3.53s-3.32,1.48-3.32,3.53v6.32C53.44,60.23,54.44,61.73,56.75,61.73Zm0-1.83c-.77,0-1.12-.56-1.12-1.35v-7c0-.79.35-1.35,1.12-1.35s1.14.56,1.14,1.35v7C57.89,59.34,57.54,59.9,56.75,59.9Zm-7.33,1.83c2.33,0,3.1-1.39,3.1-3.26V56.22h-2v2.41c0,.77-.27,1.27-1.06,1.27s-1.12-.56-1.12-1.35v-7c0-.79.33-1.35,1.12-1.35s1.06.46,1.06,1.27v1.72h2V51.63c0-1.93-.67-3.28-3.1-3.28s-3.28,1.48-3.28,3.53v6.32C46.14,60.23,47.11,61.73,49.42,61.73ZM40,61.58h5.24V59.79h-3v-4h2.18V54H42.21V50.3h3V48.51H40Z" fill="#fff"/></svg>