<?xml version="1.0" encoding="utf-8"?>
<!-- Generator: Adobe Illustrator 21.0.0, SVG Export Plug-In . SVG Version: 6.00 Build 0)  -->
<svg version="1.1" id="dd5cbb6e-36e3-493a-bc71-885b46fde9f2"
	 xmlns="http://www.w3.org/2000/svg" xmlns:xlink="http://www.w3.org/1999/xlink" x="0px" y="0px" viewBox="0 0 160 160"
	 style="enable-background:new 0 0 160 160;" xml:space="preserve">
<style type="text/css">
	.st0{fill:#56C22B;}
	.st1{fill:#DDA63A;}
	.st2{fill:#C5192D;}
	.st3{fill:#4C9F38;}
	.st4{fill:#3F7E44;}
	.st5{fill:#FCC30B;}
	.st6{fill:#FF3A21;}
	.st7{fill:#FF9F24;}
	.st8{fill:#0A97D9;}
	.st9{fill:#A21942;}
	.st10{fill:#26BDE2;}
	.st11{fill:#FF6924;}
	.st12{fill:#E8203A;}
	.st13{fill:#DD1367;}
	.st14{fill:#19486A;}
	.st15{fill:#BF8B2E;}
	.st16{fill:#00689D;}
</style>
<title>ODS</title>
<path class="st0" d="M54.8,49.1c1-1.8,2.3-3.4,3.8-4.8L46.2,30.8c-3.1,3-5.7,6.4-7.8,10.2L54.8,49.1z"/>
<path class="st1" d="M85,39.6c1.9,0.8,3.6,1.9,5.2,3.2l12.3-13.5c-3.3-2.8-7-5.1-10.9-6.8L85,39.6z"/>
<path class="st2" d="M113.2,43.6l-16.4,8.2c0.8,1.8,1.3,3.8,1.6,5.8l18.2-1.7C116.2,51.6,115,47.5,113.2,43.6"/>
<path class="st3" d="M95.7,49.4l16.3-8.2c-2-3.8-4.6-7.2-7.6-10.1L92.1,44.6C93.5,46,94.7,47.7,95.7,49.4"/>
<path class="st4" d="M51.5,61c0-0.4,0-0.7,0-1.1l-18.2-1.6c-0.1,0.9-0.1,1.8-0.1,2.7c0,3.4,0.4,6.8,1.2,10.1l17.6-5
	C51.7,64.4,51.5,62.7,51.5,61"/>
<path class="st5" d="M93.4,76c-1.3,1.6-2.8,3-4.4,4.2l9.6,15.6c3.6-2.4,6.7-5.4,9.4-8.7L93.4,76z"/>
<path class="st6" d="M98.8,61c0,1.7-0.2,3.4-0.5,5l17.6,5c0.8-3.3,1.2-6.6,1.2-10c0-0.9,0-1.7-0.1-2.6l-18.2,1.8
	C98.7,60.5,98.7,60.8,98.8,61"/>
<path class="st7" d="M57.2,76.3L42.7,87.4c2.7,3.3,5.9,6.2,9.5,8.6l9.6-15.5C60.1,79.3,58.5,77.9,57.2,76.3"/>
<path class="st8" d="M51.8,57.3c0.3-2,0.9-4,1.7-5.9l-16.4-8.1c-1.8,3.9-3.1,8.1-3.6,12.4L51.8,57.3z"/>
<path class="st9" d="M96.3,97.1l-9.6-15.5c-1.8,1-3.6,1.8-5.6,2.3l3.4,18C88.7,100.9,92.7,99.3,96.3,97.1"/>
<path class="st10" d="M97.5,68.6c-0.6,1.9-1.5,3.6-2.5,5.3l14.6,11c2.4-3.4,4.3-7.2,5.5-11.2L97.5,68.6z"/>
<path class="st11" d="M78.6,84.4c-1.1,0.2-2.3,0.2-3.4,0.3c-0.9,0-1.8-0.1-2.8-0.2l-3.4,18c4.3,0.6,8.6,0.6,12.9-0.1L78.6,84.4z"/>
<path class="st12" d="M76.7,37.5c2,0.1,3.9,0.5,5.8,1.1l6.6-17.1c-4-1.4-8.2-2.2-12.4-2.4L76.7,37.5z"/>
<path class="st13" d="M69.8,84c-2-0.5-4-1.2-5.8-2.2l-9.6,15.6c3.7,2.1,7.8,3.7,12,4.6L69.8,84z"/>
<path class="st14" d="M68.1,38.5c1.9-0.6,4-1,6-1.1V19.2c-4.3,0.1-8.5,0.9-12.6,2.3L68.1,38.5z"/>
<path class="st15" d="M55.6,74.3c-1.2-1.7-2.1-3.6-2.8-5.6l-17.6,5c1.3,4.2,3.2,8.1,5.8,11.6L55.6,74.3z"/>
<path class="st16" d="M60.5,42.5c1.6-1.2,3.3-2.3,5.1-3.1l-6.6-17c-3.9,1.6-7.5,3.8-10.8,6.5L60.5,42.5z"/>
<path d="M146.3,132.6c2.9,0,4.1-1.6,4.1-4v-0.8c0-1.9-0.8-2.8-2.3-4.4l-1.8-1.8c-0.8-0.8-1.4-1.3-1.4-2.3V119
	c-0.1-0.7,0.4-1.3,1.1-1.4c0.1,0,0.2,0,0.3,0c0.9,0,1.4,0.5,1.4,1.4v1.5h2.6v-1.4c0-2.4-1.1-3.8-4-3.8s-4,1.6-4,3.7v0.6
	c0,1.9,0.8,2.9,2.4,4.5l1.7,1.7c0.8,0.6,1.2,1.4,1.3,2.4v0.6c0,0.9-0.4,1.5-1.3,1.5s-1.4-0.6-1.4-1.5v-2.3h-2.6v2.3
	C142.3,131,143.4,132.6,146.3,132.6z M138.2,132.4h2.8v-16.9h-2.9L138.2,132.4z M132.3,120.2L132.3,120.2l1.1,6.8h-2.3L132.3,120.2z
	 M130.3,132.4l0.5-3.1h3l0.5,3.1h2.9l-3.2-16.9h-3.2l-3.2,16.9L130.3,132.4z M121.4,117.8h1c0.7-0.1,1.3,0.3,1.4,1
	c0,0.1,0,0.2,0,0.4v2.1c0.1,0.7-0.3,1.3-1,1.4c-0.1,0-0.2,0-0.3,0h-1L121.4,117.8z M122.6,124.8c1,0,1.4,0.5,1.4,1.4v2.5
	c0.1,0.7-0.4,1.3-1.1,1.4c-0.1,0-0.2,0-0.3,0h-1.3v-5.3L122.6,124.8z M118.5,132.4h4.5c2.8,0,3.9-1.3,3.9-3.7v-2.3
	c0.2-1.4-0.8-2.6-2.1-2.8c1.1-0.4,1.9-1.5,1.7-2.7v-1.7c0-2.4-0.9-3.7-3.8-3.7h-4.1L118.5,132.4z M112.8,132.6c3,0,4.3-1.9,4.3-4.6
	v-8.2c0-2.7-1.3-4.6-4.3-4.6s-4.3,1.9-4.3,4.6v8.2C108.6,130.6,109.8,132.6,112.8,132.6L112.8,132.6z M112.8,130.2
	c-1,0-1.4-0.7-1.4-1.8v-9.1c0-1,0.4-1.8,1.4-1.8s1.5,0.7,1.5,1.8v9.1C114.3,129.5,113.9,130.2,112.8,130.2L112.8,130.2z
	 M101.3,132.4h6.2v-2.3h-3.4v-14.6h-2.8L101.3,132.4z M95.8,125.6h1.3v3c0,1.1-0.5,1.6-1.4,1.6s-1.4-0.7-1.4-1.8v-9.1
	c0-1,0.4-1.8,1.5-1.8s1.4,0.6,1.4,1.7v1.7h2.6v-1.5c0-2.5-0.9-4.3-4.1-4.3s-4.3,1.9-4.3,4.6v8.2c0,2.6,1.1,4.6,3.6,4.6
	c1.3,0.1,2.4-0.7,2.7-2v1.9h2v-9h-4L95.8,125.6z M83.8,132.6c2.9,0,4.2-1.6,4.2-4v-0.8c0-1.9-0.8-2.8-2.3-4.4l-1.8-1.8
	c-0.8-0.8-1.3-1.3-1.3-2.3V119c-0.1-0.7,0.4-1.3,1.1-1.4c0.1,0,0.2,0,0.3,0c0.9,0,1.3,0.5,1.3,1.4v1.5h2.6v-1.4c0-2.4-1.1-3.8-4-3.8
	s-4,1.6-4,3.7v0.6c0,1.9,0.8,2.9,2.4,4.5l1.7,1.7c0.8,0.6,1.2,1.4,1.3,2.4v0.6c0,0.9-0.4,1.5-1.3,1.5s-1.4-0.6-1.4-1.5v-2.3h-2.6
	v2.3C79.8,131,80.9,132.6,83.8,132.6L83.8,132.6z M74.2,132.6c3,0,4.3-1.9,4.3-4.6v-8.2c0-2.7-1.3-4.6-4.3-4.6s-4.3,1.9-4.3,4.6v8.1
	C69.9,130.6,71.2,132.6,74.2,132.6L74.2,132.6z M74.2,130.3c-1,0-1.4-0.7-1.4-1.8v-9.1c0-1,0.4-1.8,1.4-1.8s1.5,0.7,1.5,1.8v9.1
	C75.7,129.5,75.2,130.2,74.2,130.3L74.2,130.3z M66.3,115.5l-2,11.8l0,0l-2-11.8h-2.9l3.2,16.9h3.1l3.2-16.9L66.3,115.5z
	 M55.6,132.4h2.8v-16.9h-2.8V132.4z M47,117.8h2.3v14.6h2.9v-14.6h2.3v-2.3H47V117.8z M39.3,132.4H46v-2.3h-3.9v-5.1h2.8v-2.3h-2.8
	v-4.8H46v-2.3h-6.8V132.4z M35,115.5v13.4c0,0.9-0.3,1.4-1.1,1.4s-1-0.5-1-1.4v-3.4h-2.7v3.4c0,2.1,0.8,3.8,3.8,3.8s3.9-1.6,3.9-4
	v-13.1L35,115.5z M23.7,117.8h1c0.7-0.1,1.3,0.4,1.3,1c0,0.1,0,0.2,0,0.3v2.1c0.1,0.7-0.3,1.3-1,1.4c-0.1,0-0.2,0-0.3,0h-1
	L23.7,117.8z M24.9,124.8c1,0,1.4,0.5,1.4,1.4v2.5c0.1,0.7-0.4,1.3-1.1,1.4c-0.1,0-0.2,0-0.3,0h-1.2v-5.3L24.9,124.8z M20.8,132.4
	h4.4c2.9,0,3.9-1.3,3.9-3.7v-2.3c0.2-1.4-0.8-2.6-2.1-2.8c1.1-0.4,1.9-1.5,1.7-2.7v-1.7c0-2.4-1-3.7-3.8-3.7h-4.1L20.8,132.4z
	 M15.1,132.6c3,0,4.3-1.9,4.3-4.6v-8.2c0-2.7-1.3-4.6-4.3-4.6s-4.3,1.9-4.3,4.6v8.2C10.8,130.6,12.1,132.6,15.1,132.6L15.1,132.6z
	 M15.1,130.2c-1,0-1.4-0.7-1.4-1.8v-9.1c0-1,0.4-1.8,1.4-1.8s1.5,0.7,1.5,1.8v9.1C16.6,129.5,16.1,130.2,15.1,130.2L15.1,130.2z"/>
<path d="M150.7,144.2v-0.6c-0.3,0-0.5-0.1-0.5-0.5v-7.2h-0.7v7.1C149.5,143.9,149.9,144.2,150.7,144.2z M146.7,139.2
	c1.3,0,1.3,0.9,1.3,1.9h-2.8C145.2,140.1,145.4,139.2,146.7,139.2L146.7,139.2z M144.4,141.3c0,1.6,0.4,2.8,2.3,2.8
	c0.6,0,1.2-0.1,1.8-0.3v-0.6c-0.6,0.2-1.2,0.3-1.8,0.3c-1.2,0-1.5-0.9-1.5-1.8h3.6v-0.4c0-1.6-0.2-2.8-2.1-2.8
	S144.4,139.8,144.4,141.3L144.4,141.3z M139.5,138.6l2.1,5.6h0.6l2.1-5.6h-0.8l-1.6,4.5l-1.6-4.5H139.5z M137.5,138.1l0.9-2.2h-0.9
	l-0.6,2.2H137.5z M138.5,141.2v1.9c-0.4,0.3-0.9,0.4-1.4,0.4c-1,0-1.2-0.6-1.2-1.1s0.3-1,1.1-1.1L138.5,141.2z M138.5,140.3v0.3
	l-1.4,0.1c-1.4,0.1-1.9,0.8-1.9,1.7c-0.1,0.9,0.6,1.7,1.5,1.8c0.1,0,0.2,0,0.4,0c0.6,0,1.2-0.2,1.6-0.6l0.2,0.4h0.4v-3.7
	c0-1.1-0.4-1.8-2.1-1.8c-0.6,0-1.1,0.1-1.6,0.3v0.6c0.5-0.2,1.1-0.3,1.6-0.3C138.3,139.2,138.5,139.5,138.5,140.3L138.5,140.3z
	 M134.8,143.5h-0.4c-0.7,0-1-0.3-1-0.9v-3.4h1.6v-0.6h-1.7v-1.7l-0.8,0.2v1.5l-1.1,0.3v0.3h1.1v3.5c0,1.1,0.8,1.5,1.7,1.5
	c0.2,0,0.3,0,0.5,0V143.5z M130.5,144.1h0.8v-3.9c0-1-0.6-1.6-1.9-1.6c-0.6,0-1.2,0.2-1.7,0.6l-0.2-0.5h-0.4v5.4h0.8v-4.5
	c0.4-0.3,1-0.4,1.5-0.4c0.7,0,1.1,0.2,1.1,0.9L130.5,144.1z M124.5,139.2c1.3,0,1.3,0.9,1.3,1.9H123
	C123.1,140.1,123.3,139.2,124.5,139.2L124.5,139.2z M122.3,141.3c0,1.6,0.4,2.8,2.3,2.8c0.6,0,1.2-0.1,1.8-0.3v-0.6
	c-0.6,0.2-1.2,0.3-1.8,0.3c-1.2,0-1.5-0.9-1.5-1.8h3.6v-0.4c0-1.6-0.2-2.8-2.1-2.8S122.3,139.8,122.3,141.3L122.3,141.3z
	 M121.8,143.5h-0.4c-0.7,0-1-0.3-1-0.9v-3.4h1.7v-0.6h-1.7v-1.7l-0.8,0.2v1.5l-1.1,0.3v0.3h1.1v3.5c0,1.1,0.8,1.5,1.7,1.5
	c0.2,0,0.3,0,0.5,0L121.8,143.5z M115.3,140.1c0-0.5,0.2-0.9,1.3-0.9c0.5,0,1.1,0.1,1.6,0.3v-0.6c-0.5-0.2-1-0.3-1.6-0.3
	c-1.5,0-2,0.8-2,1.6s0.3,1.3,1.9,1.4c1.1,0.1,1.2,0.4,1.2,0.9s-0.3,1-1.4,1c-0.6,0-1.1-0.1-1.6-0.3v0.6c0.5,0.2,1.1,0.3,1.6,0.3
	c1.7,0,2.2-0.8,2.2-1.7s-0.4-1.4-1.9-1.6C115.5,140.9,115.3,140.6,115.3,140.1L115.3,140.1z M110.7,138.6h-0.8v3.9
	c0,1,0.6,1.6,1.8,1.6c0.6,0,1.2-0.2,1.7-0.6l0.2,0.5h0.4v-5.4h-0.8v4.5c-0.4,0.3-1,0.4-1.5,0.4c-0.7,0-1.1-0.2-1.1-0.9L110.7,138.6z
	 M106.8,136.5c0.7,0,1.5,0.1,2.1,0.4v-0.7c-0.7-0.3-1.4-0.4-2.1-0.4c-2.3,0-2.8,1.3-2.8,2.3c0,1.4,0.7,1.8,2.7,2.1
	c1.4,0.2,1.8,0.4,1.8,1.6c0,1-0.5,1.8-2.2,1.8c-0.8,0-1.6-0.2-2.3-0.5v0.7c0.7,0.3,1.5,0.4,2.3,0.4c2.4,0,3-1.4,3-2.5
	c0-1.6-1-2-2.6-2.2c-1.3-0.2-2-0.3-2-1.4C104.9,137.2,105.2,136.5,106.8,136.5L106.8,136.5z M101.7,141.3c0,1.2-0.1,2.2-1.5,2.2
	s-1.5-0.9-1.5-2.2s0.1-2.2,1.5-2.2S101.8,140.1,101.7,141.3L101.7,141.3z M102.5,141.3c0-1.7-0.4-2.8-2.3-2.8s-2.3,1.2-2.3,2.8
	s0.4,2.8,2.3,2.8S102.5,143,102.5,141.3L102.5,141.3z M97.5,143.5h-0.4c-0.7,0-1-0.3-1-0.9v-3.4h1.7v-0.6H96v-1.7l-0.8,0.2v1.5
	l-1.1,0.3v0.3h1.1v3.5c0,1.1,0.8,1.5,1.7,1.5c0.2,0,0.3,0,0.5,0L97.5,143.5z M93.2,144.1H94v-3.9c0-1-0.6-1.6-1.8-1.6
	c-0.6,0-1.2,0.2-1.7,0.6l-0.2-0.5H90v5.4h0.8v-4.5c0.4-0.3,1-0.4,1.5-0.4c0.7,0,1.1,0.2,1.1,0.9L93.2,144.1z M87.2,139.2
	c1.3,0,1.3,0.9,1.3,1.9h-2.8C85.8,140.1,86,139.2,87.2,139.2L87.2,139.2z M85,141.4c0,1.6,0.4,2.8,2.3,2.8c0.6,0,1.2-0.1,1.8-0.3
	v-0.6c-0.6,0.2-1.2,0.3-1.8,0.3c-1.2,0-1.5-0.9-1.5-1.8h3.6v-0.4c0-1.6-0.2-2.8-2.1-2.8S85,139.8,85,141.4z M83.7,144.1h0.8v-3.9
	c0-1.1-0.6-1.6-1.8-1.6c-0.6,0-1.2,0.2-1.7,0.6c-0.4-0.5-0.9-0.7-1.5-0.6c-0.6,0-1.1,0.2-1.6,0.6l-0.2-0.4h-0.4v5.4H78v-4.6
	c0.4-0.2,0.9-0.3,1.4-0.3c0.6,0,1,0.2,1,0.9v4h0.8v-4c0-0.2,0-0.4-0.1-0.6c0.5-0.3,1-0.4,1.5-0.4c0.6,0,1,0.2,1,0.9L83.7,144.1z
	 M75.4,137c0,0.3,0.2,0.5,0.6,0.5c0.3,0,0.5-0.2,0.5-0.6s-0.2-0.5-0.6-0.5c0,0,0,0,0,0C75.6,136.4,75.4,136.7,75.4,137
	C75.4,137,75.4,137,75.4,137z M76.8,144.2v-0.6c-0.3,0-0.5-0.1-0.5-0.5v-4.4h-0.7v4.4C75.6,143.9,76,144.2,76.8,144.2L76.8,144.2z
	 M70.4,138.6l2.1,5.6h0.6l2.1-5.6h-0.8l-1.6,4.5l-1.6-4.5H70.4z M70.4,144.2v-0.6c-0.3,0-0.5-0.1-0.5-0.5v-7.2h-0.7v7.1
	C69.2,143.9,69.6,144.2,70.4,144.2L70.4,144.2z M67.7,141.4c0,1.2-0.1,2.2-1.5,2.2s-1.5-0.9-1.5-2.2s0.1-2.2,1.5-2.2
	S67.6,140.1,67.7,141.4L67.7,141.4z M68.4,141.4c0-1.7-0.4-2.8-2.3-2.8s-2.3,1.2-2.3,2.8s0.4,2.8,2.3,2.8S68.4,143,68.4,141.4
	L68.4,141.4z M59,138.6l2,5.5h0.5l2.1-5.6h-0.8l-1.6,4.5l-1.6-4.5L59,138.6z M58,144.1h0.8v-3.9c0-1-0.6-1.6-1.8-1.6
	c-0.6,0-1.2,0.2-1.7,0.6l-0.2-0.5h-0.4v5.4h0.8v-4.5c0.4-0.3,1-0.4,1.5-0.4c0.7,0,1.1,0.2,1.1,0.9L58,144.1z M52,139.2
	c1.3,0,1.3,0.9,1.3,1.9h-2.8C50.5,140.1,50.8,139.2,52,139.2z M49.7,141.4c0,1.6,0.5,2.8,2.3,2.8c0.6,0,1.2-0.1,1.8-0.3v-0.6
	c-0.6,0.2-1.2,0.3-1.8,0.3c-1.2,0-1.5-0.9-1.5-1.8h3.6v-0.4c0-1.6-0.2-2.8-2.1-2.8S49.7,139.8,49.7,141.4L49.7,141.4z M46.1,140.1
	c0-0.5,0.2-0.9,1.3-0.9c0.5,0,1.1,0.1,1.6,0.3v-0.6c-0.5-0.2-1-0.3-1.6-0.3c-1.5,0-2,0.8-2,1.6s0.3,1.3,1.9,1.4
	c1.1,0.1,1.2,0.4,1.2,0.9s-0.3,1-1.4,1c-0.6,0-1.1-0.1-1.6-0.3v0.6c0.5,0.2,1.1,0.3,1.6,0.3c1.7,0,2.2-0.8,2.2-1.7s-0.4-1.4-1.9-1.6
	C46.3,140.9,46.1,140.6,46.1,140.1L46.1,140.1z M42.9,139.2c1.3,0,1.3,0.9,1.3,1.9h-2.8C41.4,140.1,41.6,139.2,42.9,139.2
	L42.9,139.2z M40.6,141.4c0,1.6,0.5,2.8,2.3,2.8c0.6,0,1.2-0.1,1.8-0.3v-0.6c-0.6,0.2-1.2,0.3-1.8,0.3c-1.2,0-1.5-0.9-1.5-1.8H45
	v-0.4c0-1.6-0.2-2.8-2.1-2.8S40.6,139.8,40.6,141.4L40.6,141.4z M35.1,136.6h1.5c2,0,2.6,1.4,2.6,3.4s-0.7,3.4-2.6,3.4h-1.5
	L35.1,136.6z M36.6,144.1c2.7,0,3.4-1.8,3.4-4.1s-0.8-4.1-3.4-4.1h-2.2v8.2H36.6z M31.8,141.4c0,1.2-0.1,2.2-1.5,2.2
	s-1.5-0.9-1.5-2.2s0.1-2.2,1.5-2.2S31.8,140.1,31.8,141.4L31.8,141.4z M32.5,141.4c0-1.7-0.4-2.8-2.3-2.8s-2.3,1.2-2.3,2.8
	s0.4,2.8,2.3,2.8S32.6,143,32.5,141.4L32.5,141.4z M25.5,141.2v1.9c-0.4,0.3-0.9,0.4-1.5,0.4c-1,0-1.2-0.6-1.2-1.1s0.3-1,1.1-1.1
	L25.5,141.2z M25.5,140.3v0.3l-1.4,0.1c-1.4,0.1-1.9,0.8-1.9,1.7c-0.1,0.9,0.6,1.7,1.5,1.8c0.1,0,0.2,0,0.4,0c0.6,0,1.2-0.2,1.6-0.6
	l0.2,0.4h0.4v-3.7c0-1.1-0.4-1.8-2.1-1.8c-0.6,0-1.1,0.1-1.6,0.3v0.6c0.5-0.2,1.1-0.3,1.6-0.3C25.2,139.2,25.5,139.5,25.5,140.3
	L25.5,140.3z M22,138.6c-0.2,0-0.4-0.1-0.6-0.1c-0.6,0-1.2,0.2-1.8,0.6l-0.2-0.5H19v5.4h0.8v-4.5c0.5-0.3,1-0.4,1.6-0.4
	c0.2,0,0.4,0,0.6,0.1V138.6z M17.6,141.2v1.9c-0.4,0.3-0.9,0.4-1.5,0.4c-1,0-1.2-0.6-1.2-1.1s0.3-1,1.1-1.1L17.6,141.2z M17.6,140.3
	v0.3l-1.4,0.1c-1.4,0.1-1.9,0.8-1.9,1.7c-0.1,0.9,0.6,1.7,1.5,1.8c0.1,0,0.2,0,0.4,0c0.6,0,1.2-0.2,1.6-0.6l0.2,0.4h0.4v-3.7
	c0-1.1-0.4-1.8-2.1-1.8c-0.6,0-1.1,0.1-1.6,0.3v0.6c0.5-0.2,1.1-0.3,1.6-0.3C17.3,139.2,17.6,139.5,17.6,140.3L17.6,140.3z
	 M11.6,143.5c-0.5,0-1.1-0.1-1.5-0.4v-3.6c0.5-0.3,1-0.4,1.5-0.4c1.3,0,1.5,1.1,1.5,2.2S12.9,143.5,11.6,143.5L11.6,143.5z
	 M11.6,144.2c1.8,0,2.2-1.3,2.2-2.8s-0.5-2.8-2.2-2.8c-0.6,0-1.2,0.2-1.7,0.6l-0.2-0.4H9.3v8.2h0.8v-3.1
	C10.5,144,11,144.2,11.6,144.2L11.6,144.2z"/>
</svg>
