<svg id="a4c86b7f-b7ac-473b-86f0-9d24797941ab" data-name="Layer 1" xmlns="http://www.w3.org/2000/svg" viewBox="0 0 160 160"><title>ODS</title><polygon points="23.94 13.41 23.94 45.67 18.52 45.67 18.52 20.97 18.47 20.97 14.66 24.92 14.62 24.92 14.62 19.26 19.61 13.41 23.94 13.41" fill="#fff"/><polygon points="26.42 13.41 40.02 13.41 40.02 18.4 32.94 45.67 27.55 45.67 34.79 17.83 26.42 17.83 26.42 13.41" fill="#fff"/><path d="M120.67,97a20.86,20.86,0,0,0-20.07-20.82,20.84,20.84,0,0,0-39.3,0,20.82,20.82,0,0,0-12,37.25,20.83,20.83,0,0,0,31.78,23,20.83,20.83,0,0,0,31.61-23,20.81,20.81,0,0,0,8-16.4M97.59,83.15A16.65,16.65,0,0,1,83.4,99.59a16.5,16.5,0,0,1,14-19,16.55,16.55,0,0,1,.22,2.56M81,131a16.59,16.59,0,0,1-.15-23.71A16.59,16.59,0,0,1,81,131M64.52,80.59a16.48,16.48,0,0,1,14,19,16.49,16.49,0,0,1-14-19m12.41,23.89a16.58,16.58,0,0,1-22.51,7.32,16.58,16.58,0,0,1,22.51-7.32m8-.11a16.58,16.58,0,0,1,22.62,7.41,16.59,16.59,0,0,1-22.62-7.41m-4-37.86a16.66,16.66,0,0,1,15.26,10A20.91,20.91,0,0,0,80.94,88.23,20.89,20.89,0,0,0,65.69,76.52a16.66,16.66,0,0,1,15.26-10M45.42,97A16.66,16.66,0,0,1,60.28,80.49a20.75,20.75,0,0,0,6.63,18.06,20.88,20.88,0,0,0-16,10.83A16.59,16.59,0,0,1,45.42,97m7.22,22.21A16.48,16.48,0,0,1,53,115.8a20.81,20.81,0,0,0,19.12-.52,20.73,20.73,0,0,0,5.53,18.33,16.61,16.61,0,0,1-25-14.36m56.61-.14A16.62,16.62,0,0,1,84.4,133.57a20.76,20.76,0,0,0,5.34-18.31,20.79,20.79,0,0,0,19.18.52,16.54,16.54,0,0,1,.34,3.33M95.1,98.42a20.78,20.78,0,0,0,6.68-15.27,21.18,21.18,0,0,0-.18-2.66A16.61,16.61,0,0,1,111,109.33,20.88,20.88,0,0,0,95.1,98.42" fill="#fff"/><path d="M142.81,26.63c2.24,0,3.2-1.27,3.2-3.07v-.64c0-1.45-.58-2.18-1.77-3.39l-1.41-1.39c-.64-.62-1-1-1-1.77V16.1a1,1,0,0,1,1-1.08c.69,0,1,.37,1,1.12v1.14h2V16.21c0-1.89-.87-3-3.07-3s-3.09,1.25-3.09,2.87v.44c0,1.5.58,2.26,1.83,3.49l1.29,1.29a2.36,2.36,0,0,1,1,1.85v.5c0,.69-.31,1.16-1,1.16s-1.08-.42-1.08-1.16V21.9h-2v1.75C139.71,25.37,140.58,26.63,142.81,26.63Zm-7.08,0c2.33,0,3.34-1.5,3.34-3.53V16.77c0-2-1-3.53-3.34-3.53s-3.32,1.48-3.32,3.53V23.1C132.42,25.12,133.42,26.63,135.73,26.63Zm0-1.83c-.77,0-1.12-.56-1.12-1.35v-7c0-.79.35-1.35,1.12-1.35s1.14.56,1.14,1.35v7C136.87,24.24,136.53,24.79,135.73,24.79Zm-6.29,1.68h2.2V13.4h-2.2Zm-5.92,0h5.24V24.68h-3v-4h2.18V18.93h-2.18V15.19h3V13.4h-5.24Zm-2.76,0h2V13.4H120l-1.27,7.37h0l-1.43-7.37h-2.56V26.47h1.81V18h0l1.64,8.48h1L120.71,18h.06Zm-13.5,0h5.24V24.68h-3v-4h2.18V18.93h-2.18V15.19h3V13.4h-5.24Zm-5.38.15c2.24,0,3.2-1.27,3.2-3.07v-.64c0-1.45-.58-2.18-1.77-3.39l-1.41-1.39c-.64-.62-1-1-1-1.77V16.1a1,1,0,0,1,1-1.08c.69,0,1,.37,1,1.12v1.14h2V16.21c0-1.89-.87-3-3.07-3S98.8,14.5,98.8,16.12v.44c0,1.5.58,2.26,1.83,3.49l1.29,1.29a2.36,2.36,0,0,1,1,1.85v.5c0,.69-.31,1.16-1,1.16s-1.08-.42-1.08-1.16V21.9h-2v1.75C98.78,25.37,99.65,26.63,101.88,26.63Zm-7.23-9.54h0l.87,5.24H93.78Zm-1.54,9.39.39-2.39h2.33l.4,2.39h2.26L96,13.4H93.49L91,26.47Zm-4.71,0h2.2V13.4H88.4Zm-4-11.28c.75,0,1.08.35,1.08,1.06v1.93a1,1,0,0,1-1.08,1.08h-.73V15.19Zm1.33,11.28h2.31l-2.1-5.94c1.25-.29,1.75-1.12,1.75-2.53V16.33c0-1.83-.81-2.93-3-2.93h-3.2V26.47h2.2v-6Zm-10.18,0H80.8V24.68h-3v-4h2.18V18.93H77.75V15.19h3V13.4H75.55Zm-3.8.15c2.33,0,3.1-1.39,3.1-3.26V21.11h-2v2.41c0,.77-.27,1.27-1.06,1.27s-1.12-.56-1.12-1.35v-7c0-.79.33-1.35,1.12-1.35s1.06.46,1.06,1.27v1.72h2V16.52c0-1.93-.67-3.28-3.1-3.28s-3.28,1.48-3.28,3.53V23.1C68.48,25.12,69.44,26.63,71.75,26.63ZM64.48,15.19c.75,0,1.08.35,1.08,1.06v1.93a1,1,0,0,1-1.08,1.08h-.73V15.19Zm1.33,11.28h2.31L66,20.53c1.25-.29,1.75-1.12,1.75-2.53V16.33c0-1.83-.81-2.93-3-2.93h-3.2V26.47h2.2v-6Zm-8.51-9.39h0l.87,5.24H56.44Zm-1.54,9.39.39-2.39h2.33l.4,2.39h2.26L58.66,13.4H56.15L53.68,26.47ZM50.11,15.19c.75,0,1.08.35,1.08,1.06v3a.94.94,0,0,1-1.08,1.08H49.3V15.19Zm-3,11.28h2.2V22h1.06c2.22,0,3-1.12,3-3V16.33c0-1.83-.81-2.93-3-2.93H47.1Z" fill="#fff"/><path d="M151.18,45.83c2.37,0,3.39-1.53,3.39-3.58V35.82c0-2.08-1-3.58-3.39-3.58s-3.37,1.51-3.37,3.58v6.42C147.81,44.3,148.83,45.83,151.18,45.83Zm0-1.86c-.78,0-1.14-.57-1.14-1.37V35.47c0-.8.35-1.37,1.14-1.37s1.16.57,1.16,1.37V42.6C152.34,43.4,152,44,151.18,44Zm-8-7.83h0l.88,5.33h-1.78Zm-.84-4.27a.26.26,0,0,1,.27-.29c.29,0,.76.33,1.33.33,1,0,1.33-.74,1.37-1.66h-1.1a.26.26,0,0,1-.27.29c-.29,0-.76-.33-1.33-.33-1,0-1.33.74-1.37,1.66Zm-.72,13.81.39-2.43h2.37l.41,2.43h2.29l-2.53-13.28H142l-2.51,13.28Zm-6.88,2c1.41,0,2-.33,2-.94,0-.43-.29-.63-.82-.71v-.18c2.21-.08,3-1.45,3-3.31V40.23h-2v2.45c0,.78-.27,1.29-1.08,1.29s-1.14-.57-1.14-1.37V35.47c0-.8.33-1.37,1.14-1.37s1.08.47,1.08,1.29v1.74h2V35.57c0-2-.69-3.33-3.15-3.33s-3.33,1.51-3.33,3.58v6.42c0,1.86.78,3.29,2.68,3.53v.72h.1c.2,0,.31.08.31.22s-.1.29-.72.31Zm-7-11.52h0l.88,5.33h-1.78Zm-1.57,9.54.39-2.43H129l.41,2.43h2.29l-2.53-13.28h-2.55l-2.51,13.28Zm-8.52-11.46h1.84V45.67h2.25V34.22h1.84V32.39h-5.93Zm-2.76,11.46h2V32.39H115V40l-2.41-7.62h-2.19V45.67h1.88V37.33Zm-10.81,0h5.33V43.85h-3.09v-4h2.21V38h-2.21v-3.8h3.09V32.39h-5.33Zm-3.1,0h2V32.39h-2.82L99,39.88h0l-1.45-7.48H94.89V45.67h1.84V37.06h0l1.66,8.62h1L101,37.06H101Zm-12.46,0h5.33V43.85H90.81v-4H93V38H90.81v-3.8h3.09V32.39H88.58Zm-5.7,0h4.9V43.85H85.11V32.39H82.88ZM78.61,34.22c.76,0,1.1.35,1.1,1.08v3.06a1,1,0,0,1-1.1,1.1h-.82V34.22ZM75.55,45.67h2.23v-4.5h1.08c2.25,0,3.08-1.14,3.08-3v-2.8c0-1.86-.82-3-3.08-3H75.55Zm-3.1,0h2V32.39H71.68l-1.29,7.48h0l-1.45-7.48H66.31V45.67h1.84V37.06h0l1.66,8.62h1l1.51-8.62h.06Zm-9.46,0h2.23V32.39H63Zm-8.15,0h5.33V43.85H57.08v-4H59.3V38H57.08v-3.8h3.09V32.39H54.85ZM50.56,32.39H47.11V45.67h3.45c2.39,0,3.23-1.53,3.23-3.56V36C53.79,33.9,52.95,32.39,50.56,32.39ZM49.35,43.85V34.22h.94a1.16,1.16,0,0,1,1.27,1.33v7c0,.8-.35,1.35-1.27,1.35Z" fill="#fff"/></svg>