<svg id="ffc45917-10ec-409a-a3f2-4a15f28bce53" data-name="Layer 1" xmlns="http://www.w3.org/2000/svg" viewBox="0 0 160 160"><title>ods</title><rect width="160" height="160" fill="#0a97d9"/><polygon points="20.85 13.46 20.85 45.71 15.42 45.71 15.42 21.02 15.38 21.02 11.57 24.97 11.52 24.97 11.52 19.31 16.52 13.46 20.85 13.46" fill="#fff"/><path d="M37.36,45.71V40.48h2.19V36.25H37.36V13.46H32l-9.37,23.7v3.33h9.56v5.23Zm-9.95-9.47L32.27,23h0V36.25Z" fill="#fff"/><path d="M122.85,116.74c-2-2.72-15-19.3-33.26-19.3-15.84,0-32.78,14.36-32.78,14.36s-6.36-13-19.38-14.27l-.24,0h-.08a.53.53,0,0,0-.5.52,1.44,1.44,0,0,0,.2.48c1.68,2.79,6,10.71,6,18.63s-4.31,15.89-6,18.66l-.11.18a.51.51,0,0,0,.4.79h.28c13.06-1.22,19.44-14.28,19.44-14.28s16.94,14.36,32.78,14.36c18.24,0,31.24-16.58,33.26-19.3l.14-.19,0-.2,0-.2-.14-.19m-23.12,2.48a5.32,5.32,0,1,1,5.33-5.32,5.32,5.32,0,0,1-5.33,5.32" fill="#fff"/><path d="M37,66.27l-.1,0a.53.53,0,0,0-.52.53V70.4a.52.52,0,0,0,.15.38c8.8,7.65,17.14.48,19.07-1.41l.14-.15a.53.53,0,0,1,.29-.09.51.51,0,0,1,.35.14l0,0c9.94,9.49,20.37,1.8,22.54,0l.21-.2.2,0,.21,0,.21.2c2.17,1.8,12.59,9.49,22.54,0l0,0a.51.51,0,0,1,.35-.14.52.52,0,0,1,.29.09l.15.15c1.93,1.89,10.25,9.06,19.06,1.41a.53.53,0,0,0,.15-.38V66.77a.52.52,0,0,0-.52-.53l-.11,0-.26.14c-2.71,1.36-11.1,4.58-18.73-2.63l-.22-.21-.22,0-.16,0a.58.58,0,0,0-.26.21c-2.27,1.73-12.7,8.79-22,.13l-.14-.13a.57.57,0,0,0-.38-.16.55.55,0,0,0-.36.16l-.14.13c-9.28,8.66-19.72,1.6-22-.13a.57.57,0,0,0-.26-.21l-.17,0-.22,0-.22.21c-7.62,7.21-16,4-18.72,2.63L37,66.27" fill="#fff"/><path d="M55.62,82.57l.14-.15a.55.55,0,0,1,.29-.1.51.51,0,0,1,.36.15l0,0C66.37,92,76.79,84.29,79,82.5l.21-.2.2,0,.21,0,.21.2c2.17,1.79,12.59,9.47,22.54,0l0,0a.5.5,0,0,1,.35-.15.53.53,0,0,1,.29.1l.15.15c1.93,1.89,10.25,9.06,19.06,1.41a.52.52,0,0,0,.15-.37V80a.52.52,0,0,0-.52-.52l-.11,0-.26.13C118.76,81,110.36,84.18,102.74,77l-.22-.21-.22-.05-.16,0a.45.45,0,0,0-.26.2c-2.27,1.73-12.7,8.79-22,.13l-.14-.14a.54.54,0,0,0-.38-.15.52.52,0,0,0-.36.15l-.14.14c-9.28,8.66-19.72,1.6-22-.13a.44.44,0,0,0-.26-.2l-.17,0-.22.05L56,77c-7.62,7.2-16,4-18.72,2.63L37,79.48l-.1,0a.52.52,0,0,0-.52.52v3.64a.51.51,0,0,0,.15.37c8.8,7.65,17.14.49,19.07-1.41" fill="#fff"/><path d="M91.39,17.08h0l.87,5.24H90.52Zm-1.54,9.39.39-2.39h2.33l.4,2.39h2.26L92.74,13.4H90.23L87.77,26.47Zm-4.94,0h1.93V13.4H85v7.5l-2.37-7.5H80.47V26.47h1.85V18.26ZM73.66,17.08h0l.87,5.24H72.8Zm-1.54,9.39.39-2.39h2.33l.4,2.39H77.5L75,13.4H72.51L70,26.47ZM65.93,13.4H62.54V26.47h3.39c2.35,0,3.18-1.5,3.18-3.51V16.91C69.11,14.88,68.28,13.4,65.93,13.4Zm-1.2,11.28V15.19h.93a1.15,1.15,0,0,1,1.25,1.31v6.85c0,.79-.35,1.33-1.25,1.33ZM59,26.47h2.2V13.4H59Zm-3-13.07-1.54,9.12h0L53,13.4H50.75l2.49,13.07h2.39L58.12,13.4Z" fill="#fff"/><path d="M75,36.27h0l.87,5.24H74.17Zm-1.54,9.39.39-2.39h2.33l.4,2.39h2.26L76.38,32.59H73.88L71.41,45.66ZM69.36,32.59v10.1c0,.77-.31,1.29-1.08,1.29s-1.08-.52-1.08-1.29V32.59H65v9.89c0,2,1,3.34,3.28,3.34s3.1-1.31,3.1-3.34V32.59Zm-7.85,7.83h1v2.31c0,.85-.37,1.25-1.08,1.25s-1.08-.56-1.08-1.35v-7c0-.79.35-1.35,1.14-1.35s1.1.46,1.1,1.27v1.33h2V35.71c0-1.93-.71-3.28-3.14-3.28S58.2,33.92,58.2,36v6.32c0,2,.87,3.53,2.76,3.53a2,2,0,0,0,2.1-1.58v1.43h1.58v-7H61.51Zm-7.18-4.15h0l.87,5.24H53.47Zm1.89-6.13-3.45.73v1.23l3.45-.44ZM52.79,45.66l.39-2.39h2.33l.4,2.39h2.26L55.69,32.59H53.18L50.71,45.66Z" fill="#fff"/></svg>