<svg id="8bc378c8-9409-45d6-a0f1-0a9289a35f21" data-name="Layer 1" xmlns="http://www.w3.org/2000/svg" viewBox="0 0 160 160"><title>ods</title><rect width="160" height="160" fill="#56c02b"/><polygon points="11.71 19.25 11.71 24.91 11.76 24.91 15.57 20.96 15.62 20.96 15.62 45.65 21.04 45.65 21.04 13.39 16.71 13.39 11.71 19.25" fill="#fff"/><path d="M33.94,23.63a4.9,4.9,0,0,0-4.57,2.24h0v-8h9.33V13.4H24.37V31.57h4.95v-.72c0-1.9.86-2.95,2.38-2.95S34,29,34,30.81v7.8c0,1.71-.62,2.9-2.29,2.9-1.85,0-2.52-1.24-2.52-3.14v-4h-5V38c0,4.9,2,8,7.47,8s7.71-2.9,7.71-7.38v-7.9c0-5.09-2.62-7.14-5.52-7.14" fill="#fff"/><rect x="61.19" y="108.18" width="5.42" height="12.36" rx="0.35" ry="0.35" fill="#fff"/><path d="M118,125.54H40.34a.36.36,0,0,0-.35.36v4.75a.35.35,0,0,0,.35.35H118a.36.36,0,0,0,.36-.35V125.9a.37.37,0,0,0-.36-.36" fill="#fff"/><path d="M118,135H40.34a.35.35,0,0,0-.35.35v4.76a.36.36,0,0,0,.35.35H118a.36.36,0,0,0,.36-.35v-4.76A.36.36,0,0,0,118,135" fill="#fff"/><path d="M103.25,95.28a11.5,11.5,0,0,0-6.72-2.53,9,9,0,0,0-6.24,2.65.67.67,0,0,0-.21.49v.42a.67.67,0,0,0,.22.53.62.62,0,0,0,.55.13l.15,0a1.05,1.05,0,0,0,.39-.25A6.29,6.29,0,0,1,94.49,96a11.75,11.75,0,0,1,8,3.35l.07.06a.94.94,0,0,0,.68.28.91.91,0,0,0,.66-.27l.06-.06A11.79,11.79,0,0,1,112,96a6.29,6.29,0,0,1,3.12.65,1.16,1.16,0,0,0,.43.26,1,1,0,0,0,.46,0,.67.67,0,0,0,.49-.64V96a.67.67,0,0,0-.21-.48A9,9,0,0,0,110,92.75a11.41,11.41,0,0,0-6.71,2.54" fill="#fff"/><path d="M98.43,64.32a.65.65,0,0,0-.34.41L98,65a.67.67,0,0,0,.1.58.63.63,0,0,0,.48.26h.1a.87.87,0,0,0,.38-.1,2,2,0,0,1,.47-.05,6.74,6.74,0,0,1,5.55,3.62l0,0a.8.8,0,0,0,.5.4l.25,0a.82.82,0,0,0,.39-.1l.05,0a7.73,7.73,0,0,1,3.47-.86A5.28,5.28,0,0,1,113.31,70a.9.9,0,0,0,.26.29l.25.12.12,0H114a.67.67,0,0,0,.31-.08.65.65,0,0,0,.33-.4l.06-.23,0-.19a.63.63,0,0,0-.09-.33A5.84,5.84,0,0,0,109.38,66a8.28,8.28,0,0,0-2.8.52,6.79,6.79,0,0,0-5.24-2.94,6.46,6.46,0,0,0-2.91.74" fill="#fff"/><path d="M82,76.27l0,.35a.66.66,0,0,0,.83.6l.11,0a.86.86,0,0,0,.34-.25,5.7,5.7,0,0,1,3-.67,9.6,9.6,0,0,1,6.14,2.32l.05.06a.93.93,0,0,0,.6.22h.06a.9.9,0,0,0,.61-.29l.05-.06a9.34,9.34,0,0,1,6.81-3.15,4.63,4.63,0,0,1,2,.37,1,1,0,0,0,.4.21.92.92,0,0,0,.29,0l.16,0a.66.66,0,0,0,.44-.67l0-.3a.66.66,0,0,0-.23-.46,7.62,7.62,0,0,0-5-2,9.26,9.26,0,0,0-5.82,2.41,9.7,9.7,0,0,0-5.18-1.72,7.41,7.41,0,0,0-5.51,2.55.69.69,0,0,0-.18.5" fill="#fff"/><path d="M42.69,82.51a8.42,8.42,0,0,1,8.42-8.42l.54,0a11.39,11.39,0,1,1,21.6,5.83,12.73,12.73,0,0,1-2.76,25.16l-17-.1a9,9,0,0,1-6.56-15.19,8.41,8.41,0,0,1-4.24-7.31" fill="#fff"/><path d="M74.26,17.08h0l.87,5.24H73.39Zm-1.54,9.39.39-2.39h2.33l.4,2.39H78.1L75.61,13.4H73.1L70.64,26.47ZM66.35,13.4H63V26.47h3.39c2.35,0,3.18-1.5,3.18-3.51V16.91C69.53,14.88,68.7,13.4,66.35,13.4Zm-1.2,11.28V15.19h.93a1.15,1.15,0,0,1,1.25,1.31v6.85c0,.79-.35,1.33-1.25,1.33Zm-5.86,1.79h2.2V13.4h-2.2ZM56.13,13.4l-1.54,9.12h0l-1.5-9.12H50.83l2.49,13.07H55.7L58.19,13.4Z" fill="#fff"/><path d="M106.53,45.68h5.24V43.89h-3v-4h2.18V38.14h-2.18V34.4h3V32.61h-5.24ZM102.08,34.4c.75,0,1.08.35,1.08,1.06v1.93a1,1,0,0,1-1.08,1.08h-.73V34.4Zm1.33,11.28h2.31l-2.1-5.94c1.25-.29,1.75-1.12,1.75-2.53V35.54c0-1.83-.81-2.93-3-2.93h-3.2V45.68h2.2v-6ZM92.32,34.4h1.81V45.68h2.22V34.4h1.81V32.61H92.32ZM88.24,45.84c2.24,0,3.2-1.27,3.2-3.07v-.64c0-1.45-.58-2.18-1.77-3.39l-1.41-1.39c-.64-.62-1-1-1-1.77v-.27a1,1,0,0,1,1-1.08c.69,0,1,.37,1,1.12v1.14h2V35.43c0-1.89-.87-3-3.07-3s-3.09,1.25-3.09,2.87v.44c0,1.5.58,2.26,1.83,3.49l1.29,1.29a2.36,2.36,0,0,1,1,1.85v.5c0,.69-.31,1.16-1,1.16s-1.08-.42-1.08-1.16V41.11h-2v1.75C85.14,44.58,86,45.84,88.24,45.84Zm-9.37-.15h5.24V43.89h-3v-4h2.18V38.14H81.07V34.4h3V32.61H78.87ZM74.42,34.4c.75,0,1.08.35,1.08,1.06v1.93a1,1,0,0,1-1.08,1.08h-.73V34.4Zm1.33,11.28h2.31L76,39.74c1.25-.29,1.75-1.12,1.75-2.53V35.54c0-1.83-.81-2.93-3-2.93h-3.2V45.68h2.2v-6ZM67,34.4c.75,0,1.08.35,1.08,1.06v1.93A1,1,0,0,1,67,38.47h-.73V34.4Zm1.33,11.28h2.31l-2.1-5.94c1.25-.29,1.75-1.12,1.75-2.53V35.54c0-1.83-.81-2.93-3-2.93H64.1V45.68h2.2v-6Zm-10.65,0H63V43.89h-3v-4h2.18V38.14H59.91V34.4h3V32.61H57.71ZM50.88,34.4H52.7V45.68h2.22V34.4h1.81V32.61H50.88Z" fill="#fff"/></svg>