<svg id="d8b94897-27f9-4326-b6ac-23e6bcfae213" data-name="Layer 1" xmlns="http://www.w3.org/2000/svg" viewBox="0 0 160 160"><title>ods</title><rect width="160" height="160" fill="#f1f1f1"/><path d="M54.79,49.11a23.77,23.77,0,0,1,3.75-4.83L46.24,30.79A42.15,42.15,0,0,0,38.43,41Z" fill="#56c22b"/><path d="M85,39.58a23.59,23.59,0,0,1,5.16,3.23l12.34-13.47a42,42,0,0,0-10.94-6.82Z" fill="#dda63a"/><path d="M113.22,43.64,96.86,51.79a23.41,23.41,0,0,1,1.64,5.78l18.19-1.72a41.42,41.42,0,0,0-3.48-12.21" fill="#c5192d"/><path d="M95.69,49.43,112,41.28a42.08,42.08,0,0,0-7.64-10.15L92.06,44.6a23.74,23.74,0,0,1,3.63,4.83" fill="#4c9f38"/><path d="M51.54,61c0-.37,0-.73,0-1.1l-18.2-1.63c-.06.9-.09,1.81-.09,2.73a42,42,0,0,0,1.24,10.12l17.58-5A23.54,23.54,0,0,1,51.54,61" fill="#3f7e44"/><path d="M93.4,76A23.92,23.92,0,0,1,89,80.18l9.61,15.56A42.18,42.18,0,0,0,108,87Z" fill="#fcc30b"/><path d="M98.75,61a23.42,23.42,0,0,1-.54,5l17.57,5A41.7,41.7,0,0,0,117,61q0-1.29-.08-2.57L98.74,60.2c0,.28,0,.57,0,.85" fill="#ff3a21"/><path d="M57.19,76.35,42.65,87.41a42.22,42.22,0,0,0,9.5,8.6l9.61-15.54a23.9,23.9,0,0,1-4.56-4.12" fill="#ff9f24"/><path d="M51.84,57.32a23.28,23.28,0,0,1,1.74-5.86L37.23,43.32a41.58,41.58,0,0,0-3.61,12.37Z" fill="#0a97d9"/><path d="M96.33,97.14l-9.6-15.53a23.5,23.5,0,0,1-5.6,2.28l3.39,18a41.58,41.58,0,0,0,11.81-4.71" fill="#a21942"/><path d="M97.51,68.61A23.65,23.65,0,0,1,95,73.88l14.59,11a41.66,41.66,0,0,0,5.52-11.22Z" fill="#26bde2"/><path d="M78.55,84.41a23.85,23.85,0,0,1-3.4.25,24.12,24.12,0,0,1-2.75-.16l-3.38,18a42,42,0,0,0,12.92-.1Z" fill="#ff6924"/><path d="M76.66,37.49a23.43,23.43,0,0,1,5.84,1.13l6.56-17.06a41.61,41.61,0,0,0-12.4-2.35Z" fill="#e8203a"/><path d="M69.8,84A23.47,23.47,0,0,1,64,81.85L54.39,97.4a41.67,41.67,0,0,0,12,4.6Z" fill="#dd1367"/><path d="M68.05,38.53a23.36,23.36,0,0,1,6-1.06V19.2a41.7,41.7,0,0,0-12.57,2.29Z" fill="#19486a"/><path d="M55.59,74.25a23.48,23.48,0,0,1-2.78-5.58l-17.56,5A41.67,41.67,0,0,0,41,85.31Z" fill="#bf8b2e"/><path d="M60.52,42.53a23.63,23.63,0,0,1,5.06-3.06l-6.6-17A41.83,41.83,0,0,0,48.21,29Z" fill="#00689d"/><path d="M146.31,132.6c2.9,0,4.15-1.65,4.15-4v-.82c0-1.87-.75-2.82-2.3-4.4l-1.82-1.8c-.82-.8-1.35-1.35-1.35-2.3V119a1.25,1.25,0,0,1,1.35-1.4c.9,0,1.35.47,1.35,1.45v1.47h2.6v-1.37c0-2.45-1.12-3.85-4-3.85s-4,1.62-4,3.72v.57c0,1.95.75,2.92,2.37,4.52l1.67,1.67a3.06,3.06,0,0,1,1.27,2.4v.65c0,.9-.4,1.5-1.3,1.5s-1.4-.55-1.4-1.5v-2.32h-2.65v2.27C142.29,131,143.41,132.6,146.31,132.6Zm-8.12-.2H141V115.47h-2.85Zm-5.89-12.16h0l1.12,6.79h-2.27Zm-2,12.16.5-3.1h3l.52,3.1h2.92L134,115.47H130.8l-3.2,16.93Zm-8.92-14.61h1a1.2,1.2,0,0,1,1.37,1.37v2.07a1.2,1.2,0,0,1-1.35,1.37h-1Zm1.22,7c1,0,1.42.47,1.42,1.37v2.55a1.23,1.23,0,0,1-1.4,1.37h-1.25v-5.29Zm-4.07,7.62H123c2.85,0,3.92-1.32,3.92-3.72v-2.25a2.57,2.57,0,0,0-2.12-2.82,2.47,2.47,0,0,0,1.7-2.7v-1.72c0-2.4-.95-3.72-3.8-3.72h-4.12Zm-5.69.2c3,0,4.32-1.95,4.32-4.57v-8.19c0-2.65-1.3-4.57-4.32-4.57s-4.3,1.92-4.3,4.57V128C108.55,130.65,109.85,132.6,112.85,132.6Zm0-2.37c-1,0-1.45-.72-1.45-1.75v-9.09c0-1,.45-1.75,1.45-1.75s1.47.72,1.47,1.75v9.09C114.32,129.5,113.87,130.23,112.85,130.23Zm-11.59,2.17h6.24v-2.32h-3.4V115.47h-2.85Zm-5.42-6.79h1.35v3c0,1.1-.47,1.62-1.4,1.62s-1.4-.72-1.4-1.75v-9.09c0-1,.45-1.75,1.47-1.75s1.42.6,1.42,1.65V121h2.6v-1.5c0-2.5-.92-4.25-4.07-4.25s-4.27,1.92-4.27,4.57V128c0,2.62,1.12,4.57,3.57,4.57a2.56,2.56,0,0,0,2.72-2v1.85h2v-9h-4Zm-12.06,7c2.9,0,4.15-1.65,4.15-4v-.82c0-1.87-.75-2.82-2.3-4.4l-1.82-1.8c-.82-.8-1.35-1.35-1.35-2.3V119a1.25,1.25,0,0,1,1.35-1.4c.9,0,1.35.47,1.35,1.45v1.47h2.6v-1.37c0-2.45-1.12-3.85-4-3.85s-4,1.62-4,3.72v.57c0,1.95.75,2.92,2.37,4.52l1.67,1.67a3.06,3.06,0,0,1,1.27,2.4v.65c0,.9-.4,1.5-1.3,1.5s-1.4-.55-1.4-1.5v-2.32H79.76v2.27C79.76,131,80.88,132.6,83.78,132.6Zm-9.56,0c3,0,4.32-1.95,4.32-4.57v-8.19c0-2.65-1.3-4.57-4.32-4.57s-4.3,1.92-4.3,4.57V128C69.92,130.65,71.22,132.6,74.21,132.6Zm0-2.37c-1,0-1.45-.72-1.45-1.75v-9.09c0-1,.45-1.75,1.45-1.75s1.47.72,1.47,1.75v9.09C75.69,129.5,75.24,130.23,74.21,130.23Zm-7.89-14.76-2,11.81h0l-1.95-11.81h-2.9l3.22,16.93h3.1L69,115.47ZM55.63,132.4h2.85V115.47H55.63ZM47,117.79h2.35V132.4h2.87V117.79h2.35v-2.32H47ZM39.25,132.4H46v-2.32H42.1v-5.14h2.82v-2.3H42.1v-4.84H46v-2.32H39.25Zm-4.2-16.93v13.39c0,.87-.3,1.37-1.07,1.37s-1-.5-1-1.35v-3.42h-2.7v3.37c0,2.15.8,3.77,3.75,3.77s3.92-1.6,3.92-4V115.47Zm-11.39,2.32h1A1.2,1.2,0,0,1,26,119.17v2.07a1.2,1.2,0,0,1-1.35,1.37h-1Zm1.22,7c1,0,1.42.47,1.42,1.37v2.55a1.23,1.23,0,0,1-1.4,1.37H23.67v-5.29Zm-4.07,7.62h4.42c2.85,0,3.92-1.32,3.92-3.72v-2.25A2.57,2.57,0,0,0,27,123.61a2.47,2.47,0,0,0,1.7-2.7v-1.72c0-2.4-.95-3.72-3.8-3.72H20.82Zm-5.69.2c3,0,4.32-1.95,4.32-4.57v-8.19c0-2.65-1.3-4.57-4.32-4.57s-4.3,1.92-4.3,4.57V128C10.83,130.65,12.13,132.6,15.13,132.6Zm0-2.37c-1,0-1.45-.72-1.45-1.75v-9.09c0-1,.45-1.75,1.45-1.75s1.47.72,1.47,1.75v9.09C16.6,129.5,16.15,130.23,15.13,130.23Z"/><path d="M150.71,144.18v-.62c-.34,0-.46-.11-.46-.49V135.9h-.74V143C149.51,143.85,149.93,144.18,150.71,144.18Zm-4-5c1.25,0,1.31.92,1.31,1.89h-2.83C145.19,140.09,145.42,139.19,146.68,139.19Zm-2.29,2.16c0,1.57.45,2.83,2.29,2.83a4.41,4.41,0,0,0,1.8-.33v-.65a4.17,4.17,0,0,1-1.8.31c-1.23,0-1.48-.86-1.53-1.81h3.6v-.35c0-1.57-.22-2.83-2.07-2.83S144.39,139.78,144.39,141.35Zm-4.89-2.73,2.13,5.56h.55l2.13-5.56h-.84l-1.56,4.47-1.56-4.47Zm-2-.54.87-2.18h-.87l-.55,2.18Zm1,3.1v1.9a2.64,2.64,0,0,1-1.45.44c-1,0-1.16-.59-1.16-1.08s.34-1,1.11-1.11Zm0-.84v.31l-1.44.09c-1.43.09-1.94.77-1.94,1.7a1.66,1.66,0,0,0,1.91,1.75,2.86,2.86,0,0,0,1.65-.55l.16.44h.43v-3.73c0-1.09-.43-1.83-2.06-1.83a4.39,4.39,0,0,0-1.64.29v.65a4.78,4.78,0,0,1,1.64-.27C138.25,139.19,138.53,139.54,138.53,140.33Zm-3.75,3.19-.43,0c-.69,0-1-.27-1-.94v-3.39H135v-.6h-1.69v-1.74l-.76.22v1.47l-1.09.32v.34h1.09v3.48c0,1.07.84,1.48,1.74,1.48a2.42,2.42,0,0,0,.49,0Zm-4.24.54h.76v-3.92c0-1-.56-1.63-1.85-1.63a2.71,2.71,0,0,0-1.65.57l-.16-.46h-.43v5.45H128v-4.53a2.62,2.62,0,0,1,1.47-.35c.68,0,1.09.22,1.09.93Zm-6-4.88c1.25,0,1.31.92,1.31,1.89H123C123.07,140.09,123.3,139.19,124.56,139.19Zm-2.29,2.16c0,1.57.45,2.83,2.29,2.83a4.41,4.41,0,0,0,1.8-.33v-.65a4.16,4.16,0,0,1-1.8.31c-1.23,0-1.48-.86-1.53-1.81h3.6v-.35c0-1.57-.22-2.83-2.07-2.83S122.28,139.78,122.28,141.35Zm-.42,2.18-.43,0c-.69,0-1-.27-1-.94v-3.39h1.69v-.6h-1.69v-1.74l-.76.22v1.47l-1.09.32v.34h1.09v3.48c0,1.07.84,1.48,1.74,1.48a2.42,2.42,0,0,0,.49,0Zm-6.55-3.4c0-.53.23-.94,1.31-.94a4.5,4.5,0,0,1,1.58.25v-.65a4.07,4.07,0,0,0-1.57-.27c-1.54,0-2,.84-2,1.61s.33,1.31,1.91,1.45c1.08.09,1.23.44,1.23.94s-.31,1-1.44,1a4.81,4.81,0,0,1-1.64-.25v.65a5.37,5.37,0,0,0,1.62.27c1.66,0,2.19-.84,2.19-1.68s-.37-1.42-1.92-1.56C115.5,140.85,115.3,140.6,115.3,140.12Zm-4.6-1.5h-.76v3.92c0,1,.56,1.64,1.85,1.64a2.71,2.71,0,0,0,1.65-.57l.16.46H114v-5.45h-.76v4.53a2.62,2.62,0,0,1-1.47.35c-.68,0-1.09-.22-1.09-.93Zm-3.86-2.15a5,5,0,0,1,2.14.43v-.73a5,5,0,0,0-2.13-.38c-2.29,0-2.75,1.33-2.75,2.28,0,1.4.74,1.84,2.67,2.08,1.36.17,1.84.4,1.84,1.57,0,1-.51,1.78-2.21,1.78a6.17,6.17,0,0,1-2.3-.46v.71a6.74,6.74,0,0,0,2.29.44c2.43,0,3-1.35,3-2.46,0-1.6-1-2-2.59-2.2-1.29-.16-2-.27-2-1.44C104.87,137.21,105.24,136.47,106.85,136.47Zm-5.1,4.87c0,1.23-.11,2.16-1.53,2.16s-1.53-.93-1.53-2.16.09-2.16,1.53-2.16S101.75,140.11,101.75,141.35Zm.76,0c0-1.67-.41-2.83-2.29-2.83s-2.29,1.17-2.29,2.83.43,2.83,2.29,2.83S102.52,143,102.52,141.35Zm-5,2.18-.43,0c-.69,0-1-.27-1-.94v-3.39h1.69v-.6H96v-1.74l-.76.22v1.47l-1.09.32v.34h1.09v3.48c0,1.07.84,1.48,1.74,1.48a2.42,2.42,0,0,0,.49,0Zm-4.24.54H94v-3.92c0-1-.56-1.63-1.85-1.63a2.71,2.71,0,0,0-1.65.57l-.16-.46H90v5.45h.76v-4.53a2.62,2.62,0,0,1,1.47-.35c.68,0,1.09.22,1.09.93Zm-6-4.88c1.25,0,1.31.92,1.31,1.89H85.77C85.8,140.09,86,139.19,87.29,139.19ZM85,141.35c0,1.57.45,2.83,2.29,2.83a4.41,4.41,0,0,0,1.8-.33v-.65a4.16,4.16,0,0,1-1.8.31c-1.23,0-1.48-.86-1.53-1.81h3.6v-.35c0-1.57-.22-2.83-2.07-2.83S85,139.78,85,141.35Zm-1.29,2.73h.76v-3.92c0-1.09-.63-1.63-1.8-1.63a3,3,0,0,0-1.69.62,1.72,1.72,0,0,0-1.53-.62,2.74,2.74,0,0,0-1.59.56l-.16-.45h-.43v5.45H78v-4.56a2.75,2.75,0,0,1,1.42-.33c.62,0,1,.22,1,.93v4h.76v-4a2.31,2.31,0,0,0-.07-.57,2.81,2.81,0,0,1,1.48-.36c.62,0,1,.22,1,.93ZM75.39,137a.55.55,0,1,0,.54-.55A.54.54,0,0,0,75.39,137Zm1.37,7.19v-.62c-.34,0-.46-.11-.46-.49v-4.45h-.74V143C75.56,143.85,76,144.18,76.76,144.18Zm-6.37-5.56,2.13,5.56h.55l2.13-5.56h-.84l-1.56,4.47-1.56-4.47Zm0,5.56v-.62c-.34,0-.46-.11-.46-.49V135.9h-.74V143C69.15,143.85,69.57,144.18,70.35,144.18Zm-2.72-2.83c0,1.23-.11,2.16-1.53,2.16s-1.53-.93-1.53-2.16.09-2.16,1.53-2.16S67.63,140.11,67.63,141.35Zm.76,0c0-1.67-.41-2.83-2.29-2.83s-2.29,1.17-2.29,2.83.43,2.83,2.29,2.83S68.39,143,68.39,141.35Zm-9.47-2.73L61,144.18h.55l2.13-5.56h-.84l-1.56,4.47-1.56-4.47ZM58,144.07h.76v-3.92c0-1-.56-1.63-1.85-1.63a2.71,2.71,0,0,0-1.65.57l-.16-.46h-.43v5.45h.76v-4.53a2.62,2.62,0,0,1,1.47-.35c.68,0,1.09.22,1.09.93Zm-6-4.88c1.25,0,1.31.92,1.31,1.89H50.5C50.54,140.09,50.77,139.19,52,139.19Zm-2.29,2.16c0,1.57.45,2.83,2.29,2.83a4.41,4.41,0,0,0,1.8-.33v-.65a4.16,4.16,0,0,1-1.8.31c-1.23,0-1.48-.86-1.53-1.81h3.6v-.35c0-1.57-.22-2.83-2.07-2.83S49.74,139.78,49.74,141.35Zm-3.61-1.22c0-.53.23-.94,1.31-.94a4.51,4.51,0,0,1,1.58.25v-.65a4.07,4.07,0,0,0-1.57-.27c-1.54,0-2,.84-2,1.61s.33,1.31,1.91,1.45c1.08.09,1.23.44,1.23.94s-.31,1-1.44,1a4.81,4.81,0,0,1-1.63-.25v.65a5.37,5.37,0,0,0,1.62.27c1.66,0,2.19-.84,2.19-1.68s-.37-1.42-1.92-1.56C46.33,140.85,46.13,140.6,46.13,140.12Zm-3.23-.94c1.25,0,1.31.92,1.31,1.89H41.37C41.41,140.09,41.64,139.19,42.9,139.19Zm-2.29,2.16c0,1.57.45,2.83,2.29,2.83a4.41,4.41,0,0,0,1.8-.33v-.65a4.17,4.17,0,0,1-1.8.31c-1.23,0-1.48-.86-1.53-1.81H45v-.35c0-1.57-.22-2.83-2.07-2.83S40.61,139.78,40.61,141.35Zm-5.46-4.76h1.53c2,0,2.62,1.44,2.62,3.4s-.65,3.4-2.62,3.4H35.15Zm1.48,7.49c2.67,0,3.44-1.77,3.44-4.09s-.77-4.09-3.44-4.09H34.41v8.18Zm-4.81-2.73c0,1.23-.11,2.16-1.53,2.16s-1.53-.93-1.53-2.16.09-2.16,1.53-2.16S31.82,140.11,31.82,141.35Zm.76,0c0-1.67-.41-2.83-2.29-2.83S28,139.68,28,141.35s.43,2.83,2.29,2.83S32.58,143,32.58,141.35Zm-7.06-.17v1.9a2.64,2.64,0,0,1-1.45.44c-1,0-1.16-.59-1.16-1.08s.34-1,1.11-1.11Zm0-.84v.31l-1.44.09c-1.43.09-1.94.77-1.94,1.7a1.66,1.66,0,0,0,1.91,1.75,2.86,2.86,0,0,0,1.65-.55l.16.44h.43v-3.73c0-1.09-.43-1.83-2.06-1.83a4.39,4.39,0,0,0-1.64.29v.65a4.78,4.78,0,0,1,1.64-.27C25.24,139.19,25.52,139.54,25.52,140.33Zm-3.45-1.77a4,4,0,0,0-.65-.05,3,3,0,0,0-1.75.57l-.16-.46h-.43v5.45h.76v-4.53a3,3,0,0,1,1.58-.35,2.11,2.11,0,0,1,.65.09Zm-4.46,2.61v1.9a2.64,2.64,0,0,1-1.45.44c-1,0-1.16-.59-1.16-1.08s.34-1,1.11-1.11Zm0-.84v.31l-1.44.09c-1.43.09-1.94.77-1.94,1.7a1.66,1.66,0,0,0,1.91,1.75,2.86,2.86,0,0,0,1.65-.55l.16.44h.43v-3.73c0-1.09-.43-1.83-2.06-1.83a4.39,4.39,0,0,0-1.64.29v.65a4.78,4.78,0,0,1,1.64-.27C17.33,139.19,17.61,139.54,17.61,140.33Zm-6,3.17a2.87,2.87,0,0,1-1.53-.35v-3.62a2.88,2.88,0,0,1,1.53-.35c1.31,0,1.47,1.08,1.47,2.16S12.89,143.5,11.58,143.5Zm0,.68c1.75,0,2.23-1.26,2.23-2.83s-.48-2.83-2.23-2.83a3.12,3.12,0,0,0-1.7.56l-.16-.45H9.29v8.18h.76v-3.06A2.85,2.85,0,0,0,11.58,144.18Z"/></svg>