<svg id="06dc571f-e3a3-4447-87f4-fd88cbc807a3" data-name="Layer 1" xmlns="http://www.w3.org/2000/svg" viewBox="0 0 160 160"><title>ODS</title><path d="M22.83,46.1c5.47,0,7.85-2.9,7.85-7.37V34c0-3-1.28-4.85-4-5.47a5.16,5.16,0,0,0,3.71-5.23V20.46c0-4.57-2.19-7.37-7.18-7.37-5.62,0-7.57,3.33-7.57,8.09V24h4.95V20.74c0-2,.62-3.14,2.33-3.14s2.33,1.14,2.33,2.9V24c0,1.71-1.14,2.62-2.9,2.62h-2v4.14H22.6c1.9,0,2.66.9,2.66,2.62v5.33c0,1.71-.76,2.9-2.43,2.9-1.86,0-2.52-1.24-2.52-3.14V33.83H15.36v4.23c0,4.9,1.95,8,7.47,8" fill="#fff"/><path d="M133.74,100c0-4.5-2.89-8.15-7.26-8.15-2.19,0-4.83,2.4-6.26,3.87-1.43-1.48-3.9-3.87-6.09-3.87-4.38,0-7.44,3.65-7.44,8.15a8.24,8.24,0,0,0,2.32,5.76L120.23,117l11.2-11.22h0a8.25,8.25,0,0,0,2.32-5.77" fill="#fff"/><path d="M86,135.34h-.11a1.84,1.84,0,0,1-1.7-1.53l-5.7-33.18-8.63,16A1.84,1.84,0,0,1,66.4,116L62.74,90.41,56,105.46a1.84,1.84,0,0,1-1.68,1.09H28.3a1.84,1.84,0,0,1,0-3.68H53.16L62,83.07a1.84,1.84,0,0,1,3.51.49L69.26,110l8.51-15.78a1.84,1.84,0,0,1,3.44.56l5.27,30.73L105.71,61.6a1.84,1.84,0,0,1,3.42-.27l10.12,21a1.84,1.84,0,1,1-3.32,1.6L107.87,67.2,87.75,134A1.84,1.84,0,0,1,86,135.34" fill="#fff"/><path d="M86.16,26.46H91.4V24.66h-3v-4h2.18V18.92H88.35V15.18h3V13.38H86.16Zm-8.83,0h5.25V24.66h-3v-4H81.7V18.92H79.52V15.18h3V13.38H77.32ZM72.69,13.38H69.3V26.46h3.39c2.35,0,3.18-1.5,3.18-3.51V16.89C75.87,14.87,75,13.38,72.69,13.38Zm-1.2,11.28V15.18h.93a1.15,1.15,0,0,1,1.25,1.31v6.85c0,.79-.35,1.33-1.25,1.33Zm-5-13.73L63,11.67V12.9l3.45-.44Zm-.67,2.45v10.1c0,.77-.31,1.29-1.08,1.29s-1.08-.52-1.08-1.29V13.38h-2.2v9.89c0,2,1,3.34,3.28,3.34s3.1-1.31,3.1-3.34V13.38Zm-9.3,3.68h0l.87,5.25H55.66ZM55,26.46l.39-2.39H57.7l.4,2.39h2.26L57.88,13.38H55.37L52.9,26.46Zm-6.29.15c2.24,0,3.2-1.27,3.2-3.07v-.64c0-1.45-.58-2.18-1.77-3.39l-1.41-1.39c-.64-.62-1-1-1-1.77v-.27a1,1,0,0,1,1-1.08c.69,0,1,.37,1,1.12v1.14h2V16.2c0-1.89-.87-3-3.07-3s-3.09,1.25-3.09,2.87v.44c0,1.5.58,2.26,1.83,3.49l1.29,1.29a2.36,2.36,0,0,1,1,1.85v.5c0,.69-.31,1.16-1,1.16s-1.08-.42-1.08-1.16V21.89h-2v1.75C45.59,25.36,46.46,26.61,48.69,26.61Z" fill="#fff"/><path d="M105.95,34.06c.75,0,1.08.35,1.08,1.06v1.93a1,1,0,0,1-1.08,1.08h-.73V34.06Zm1.33,11.28h2.31l-2.1-5.94c1.25-.29,1.75-1.12,1.75-2.53V35.2c0-1.83-.81-2.93-3-2.93H103V45.34h2.2v-6ZM98.08,36h0L99,41.2H97.21Zm-1.54,9.39L96.92,43h2.33l.4,2.39h2.26L99.43,32.27H96.92L94.45,45.34Zm-8.8-11.28h1.81V45.34h2.22V34.06h1.81V32.27H87.74ZM83.43,45.5c2.24,0,3.2-1.27,3.2-3.07v-.64c0-1.45-.58-2.18-1.77-3.39L83.45,37c-.64-.62-1-1-1-1.77V35a1,1,0,0,1,1-1.08c.69,0,1,.37,1,1.12v1.14h2V35.08c0-1.89-.87-3-3.07-3S80.35,33.37,80.35,35v.44c0,1.5.58,2.26,1.83,3.49l1.29,1.29a2.36,2.36,0,0,1,1,1.85v.5c0,.69-.31,1.16-1,1.16s-1.08-.42-1.08-1.16V40.77h-2v1.75C80.33,44.24,81.2,45.5,83.43,45.5Zm-9.61-.15h5.25V43.55H76v-4h2.18V37.8H76V34.06h3V32.27H73.83Zm-4.4-5.19h3.09V38.38H69.43Zm-3.32,5.19h2V32.27H65.34l-1.27,7.37h0l-1.43-7.37H60.06V45.34h1.81V36.86h0l1.64,8.48h1l1.48-8.48h.06Zm-12.67,0h5.25V43.55h-3v-4h2.18V37.8H55.64V34.06h3V32.27H53.44ZM47.9,34.06h.75a.93.93,0,0,1,1.06,1.06v1.6a.93.93,0,0,1-1,1.06H47.9Zm.94,5.4c.77,0,1.1.37,1.1,1.06v2a1,1,0,0,1-1.08,1.06h-1V39.46ZM45.7,45.34h3.41c2.2,0,3-1,3-2.87V40.73a2,2,0,0,0-1.64-2.18,1.9,1.9,0,0,0,1.31-2.08V35.14c0-1.85-.73-2.87-2.93-2.87H45.7Z" fill="#fff"/></svg>