<svg id="49679283-721d-4b93-bd12-af8b6d713010" data-name="Layer 1" xmlns="http://www.w3.org/2000/svg" viewBox="0 0 160 160"><title>ods</title><rect width="160" height="160" fill="#fd6925"/><path d="M29.31,21.53c0-5-2.19-8.61-7.9-8.61s-8,3.14-8,8.13v4.76c0,5.28,2.09,7.94,6,7.94a4.64,4.64,0,0,0,4.47-2.61h0v6.94c0,1.95-.76,3.33-2.71,3.33s-2.66-1.14-2.66-3.14V36.13H13.61v1.71c0,4.75,1.71,8.08,7.71,8.08,5.7,0,8-3.66,8-8.7Zm-5.38,4.95c-.1,1.81-.86,2.95-2.57,2.95s-2.57-1.14-2.57-3.23V20.57c0-2,.76-3.23,2.62-3.23s2.52,1.24,2.52,3.23Z" fill="#fff"/><path d="M120.87,105.16l-19-11v-22a1.3,1.3,0,0,0-.65-1.12L81.54,59.75a1.31,1.31,0,0,0-1.3,0L60.58,71.1a1.3,1.3,0,0,0-.65,1.12v22l-19,11a1.3,1.3,0,0,0-.65,1.12V129a1.3,1.3,0,0,0,.65,1.12l19.67,11.35a1.29,1.29,0,0,0,1.3,0l19-11,19,11a1.31,1.31,0,0,0,.65.17,1.29,1.29,0,0,0,.65-.17l19.67-11.35a1.3,1.3,0,0,0,.65-1.12V106.29a1.3,1.3,0,0,0-.65-1.12M79.59,126.75l-15.77-9.11,15.77-9.11ZM98,94.94,82.19,104V85.83ZM79.59,104l-15.77-9.1,15.77-9.11Zm3.89,2.25,17.07-9.85,17.07,9.85-17.07,9.86Zm15.77-13.6L83.49,83.58l15.77-9.11Zm-21-9.11L62.52,92.69V74.48ZM59.93,138.1l-17.07-9.85V108.53l17.07,9.86Zm2.6,0V119.89L78.3,129Zm56.4-9.85-17.07,9.85V118.39l17.07-9.86Z" fill="#fff"/><path d="M59.8,11.33l-3.29.7v1.18l3.29-.42Zm-.64,2.34V23.3c0,.74-.29,1.23-1,1.23s-1-.5-1-1.23V13.67H55V23.1c0,1.93.92,3.18,3.13,3.18s3-1.25,3-3.18V13.67Zm-8.11,0H47.81V26.13H51c2.24,0,3-1.43,3-3.35V17C54.08,15.08,53.29,13.67,51,13.67ZM49.91,24.42v-9h.88A1.09,1.09,0,0,1,52,16.63v6.53c0,.75-.33,1.27-1.2,1.27ZM45,26.13h1.84V13.67H45.14v7.15l-2.26-7.15H40.82V26.13h1.77V18.3Zm-7.26,0h2.1V13.67h-2.1Z" fill="#fff"/><path d="M64.86,26.28a2.7,2.7,0,0,0,3.05-2.92v-.61c0-1.38-.55-2.08-1.69-3.24l-1.34-1.32c-.61-.59-1-1-1-1.69v-.26a.92.92,0,0,1,1-1c.66,0,1,.35,1,1.07v1.08h1.91v-1c0-1.8-.83-2.83-2.92-2.83a2.6,2.6,0,0,0-2.94,2.74v.42c0,1.43.55,2.15,1.75,3.33l1.23,1.23A2.25,2.25,0,0,1,65.83,23v.48c0,.66-.29,1.1-1,1.1s-1-.4-1-1.1V21.78H61.9v1.67C61.9,25.09,62.73,26.28,64.86,26.28Z" fill="#fff"/><polygon points="68.04 15.38 69.77 15.38 69.77 26.13 71.89 26.13 71.89 15.38 73.61 15.38 73.61 13.67 68.04 13.67 68.04 15.38" fill="#fff"/><path d="M77.11,15.38c.72,0,1,.33,1,1v1.84a.91.91,0,0,1-1,1h-.7V15.38Zm1.27,10.76h2.21l-2-5.66c1.2-.28,1.67-1.07,1.67-2.41v-1.6c0-1.75-.77-2.79-2.89-2.79H74.31V26.13h2.1V20.42Z" fill="#fff"/><path d="M145.26,26.28c2.22,0,3.18-1.43,3.18-3.36v-6c0-1.95-1-3.36-3.18-3.36s-3.16,1.42-3.16,3.36v6C142.1,24.85,143.05,26.28,145.26,26.28Zm0-1.75c-.74,0-1.07-.53-1.07-1.29V16.55c0-.75.33-1.29,1.07-1.29s1.08.53,1.08,1.29v6.69C146.34,24,146,24.53,145.26,24.53Zm-7.41-7.35h0l.83,5H137Zm-.79-4a.25.25,0,0,1,.26-.28c.28,0,.72.31,1.25.31.92,0,1.25-.7,1.29-1.56h-1a.25.25,0,0,1-.26.28c-.28,0-.72-.31-1.25-.31-.92,0-1.25.7-1.29,1.56Zm-.68,13,.37-2.28H139l.39,2.28h2.15l-2.37-12.47h-2.39l-2.35,12.47ZM130,28c1.32,0,1.86-.31,1.86-.88,0-.4-.28-.59-.77-.66v-.17c2.08-.07,2.78-1.36,2.78-3.11V21h-1.91v2.3c0,.74-.26,1.21-1,1.21s-1.07-.53-1.07-1.29V16.55c0-.75.31-1.29,1.07-1.29s1,.44,1,1.21v1.64h1.91V16.65c0-1.84-.64-3.13-3-3.13s-3.13,1.42-3.13,3.36v6c0,1.75.74,3.09,2.52,3.31v.68h.09c.18,0,.29.07.29.2s-.09.28-.68.29Zm-6.48-10.81h0l.83,5h-1.67Zm-1.47,9,.37-2.28h2.22l.39,2.28h2.15L124.8,13.67h-2.39l-2.35,12.47Zm-4.21-12.47-1.47,8.7h0l-1.43-8.7h-2.13l2.37,12.47h2.28l2.37-12.47ZM109,26.28c2.22,0,3.18-1.43,3.18-3.36v-6c0-1.95-1-3.36-3.18-3.36s-3.16,1.42-3.16,3.36v6C105.82,24.85,106.78,26.28,109,26.28Zm0-1.75c-.74,0-1.07-.53-1.07-1.29V16.55c0-.75.33-1.29,1.07-1.29s1.08.53,1.08,1.29v6.69C110.07,24,109.74,24.53,109,24.53Zm-5.92,1.6h1.84V13.67h-1.75v7.15l-2.26-7.15H98.83V26.13h1.77V18.3Zm-7.26,0h2.1V13.67H95.8Zm-2.58-2h-2l-.26,3h1.18l1.07-2.81Zm-6.4-7h0l.83,5H86Zm-1.47,9,.37-2.28h2.22l.39,2.28h2.15L88.11,13.67H85.72L83.36,26.13Zm-4.69,0h2.1V13.67h-2.1Z" fill="#fff"/><path d="M133.21,36.4h0l.83,5h-1.67Zm-1.47,9,.37-2.28h2.22l.39,2.28h2.15L134.5,32.89h-2.39l-2.35,12.47ZM125.89,34.6c.72,0,1,.33,1,1v1.84a.91.91,0,0,1-1,1h-.7V34.6Zm1.27,10.76h2.21l-2-5.66c1.2-.28,1.67-1.07,1.67-2.41v-1.6c0-1.75-.77-2.79-2.89-2.79H123.1V45.36h2.1V39.64Zm-7.1-12.47v9.63c0,.74-.29,1.23-1,1.23s-1-.5-1-1.23V32.89h-2.1v9.43c0,1.93.92,3.18,3.13,3.18s3-1.25,3-3.18V32.89ZM109.45,34.6h1.73V45.36h2.11V34.6H115V32.89h-5.57Zm-2.8-1.71v9.63c0,.74-.29,1.23-1,1.23s-1-.5-1-1.23V32.89h-2.1v9.43c0,1.93.92,3.18,3.13,3.18s3-1.25,3-3.18V32.89ZM98.3,34.6c.72,0,1,.33,1,1v1.84a.91.91,0,0,1-1,1h-.7V34.6Zm1.27,10.76h2.21l-2-5.66c1.2-.28,1.67-1.07,1.67-2.41v-1.6c0-1.75-.77-2.79-2.89-2.79H95.5V45.36h2.1V39.64ZM89,34.6h1.73V45.36h2.11V34.6h1.73V32.89H89ZM85.22,45.5a2.7,2.7,0,0,0,3.05-2.92V42c0-1.38-.55-2.08-1.69-3.24l-1.34-1.32c-.61-.59-1-1-1-1.69v-.26a.92.92,0,0,1,1-1c.66,0,1,.35,1,1.07v1.08h1.91v-1c0-1.8-.83-2.83-2.92-2.83a2.6,2.6,0,0,0-2.94,2.74v.42c0,1.43.55,2.15,1.75,3.33l1.23,1.23a2.25,2.25,0,0,1,.94,1.77v.48c0,.66-.29,1.1-1,1.1s-1-.4-1-1.1V41H82.26v1.67C82.26,44.31,83.09,45.5,85.22,45.5Zm-8.88-.15h5V43.65H78.43V39.86h2.08V38.17H78.43V34.6h2.91V32.89h-5Zm-4.43-9h0l.83,5H71.08Zm-1.47,9,.37-2.28H73l.39,2.28h2.15L73.19,32.89H70.8L68.45,45.36ZM64.58,34.6c.72,0,1,.33,1,1v1.84a.91.91,0,0,1-1,1h-.7V34.6Zm1.27,10.76h2.21l-2-5.66c1.2-.28,1.67-1.07,1.67-2.41v-1.6c0-1.75-.77-2.79-2.89-2.79H61.79V45.36h2.1V39.64Zm-9.8,0h2.1v-5.5h2.1V38.17h-2.1V34.6H61V32.89H56Zm-2.94,0h1.84V32.89H53.2V40l-2.26-7.15H48.88V45.36h1.77V37.52Zm-7.45,0h2.1V32.89h-2.1Zm-7.87,0h5V43.65H39.88V39.86H42V38.17H39.88V34.6h2.91V32.89h-5Z" fill="#fff"/></svg>