<svg id="3ffb4a5c-9dc9-46e5-a2b4-252185c721ad" data-name="Layer 1" xmlns="http://www.w3.org/2000/svg" viewBox="0 0 160 160"><title>ODS</title><polygon points="20.2 13.42 20.2 45.67 14.77 45.67 14.77 20.98 14.72 20.98 10.92 24.93 10.87 24.93 10.87 19.27 15.87 13.42 20.2 13.42" fill="#fff"/><path d="M38.08,20.41v2.8a5.16,5.16,0,0,1-3.71,5.23c2.71.62,4,2.52,4,5.47v4.76C38.36,43.15,36,46,30.52,46S23,42.91,23,38V33.78H28v4.62c0,1.9.66,3.14,2.52,3.14,1.66,0,2.42-1.19,2.42-2.9V33.3c0-1.71-.76-2.62-2.66-2.62H28V26.55h2c1.76,0,2.9-.9,2.9-2.62V20.46c0-1.76-.62-2.9-2.33-2.9s-2.33,1.14-2.33,3.14V24H23.33V21.13c0-4.76,2-8.09,7.56-8.09,5,0,7.18,2.81,7.18,7.37" fill="#fff"/><path d="M139.92,100.17a73.19,73.19,0,0,0-117.46,0l-.46.66.46.66a73.19,73.19,0,0,0,117.46,0c.18-.26.34-.47.46-.66-.12-.19-.27-.4-.46-.66M61.42,85.58c.32-.47,1.38-1.81,1.51-2a1.89,1.89,0,0,1,1.2-.49c.38-.07.88.14.94.42a3.3,3.3,0,0,1-.33,1.57,4.09,4.09,0,0,1-2.62,1.18c-.58-.09-.8-.53-.69-.7m-1.27,2.52.13-.15a3.3,3.3,0,0,1,1.95-.71c.62-.11,1.43.2,1.53.61S62.22,89,61.92,89.27c-.85.79-2.19,2.39-3,2.56a.93.93,0,0,1-.64-.07,24.47,24.47,0,0,1,1.84-3.67m13.27,27.21a7,7,0,0,1-1.52,3.16,5.12,5.12,0,0,1-3.37,1.29c-1.12-.08-1.28-3.08-1.28-4.62,0-.53-.75,1-1.15-2.16-.25-2.05-1.57.21-1.66-1.16s-.75-1.09-1.45-1.95-1.55.08-2.51.52-.56.65-1.92.22l-.09,0A24.61,24.61,0,0,1,56.54,101c0-.83,0-1.65.12-2.46l.15-.23c1.31-1.55,1.28-1.91,1.28-1.91l1.44-.5a24.08,24.08,0,0,1,4,1c1.43.53,3.69,1.75,5,1.22.95-.39,1.69-.91,1.6-1.7-.11-1-.89-1.22-1.83-.56-.35.25-1.09-1.49-1.67-1.4s.72,2,.23,2.12-1.49-2-1.66-2.38-.94-1.19-1.62-.54c-1.46,1.38-3.82,1.3-4.3,1.65-1.45,1.08-1.83-.36-1.8-1.23.06-.2.12-.4.18-.6a3,3,0,0,1,2.75-.31c.64.43,1.1-.11,1.35-.37a.89.89,0,0,0,0-1c-.16-.34.32-.59.65-.68A17.43,17.43,0,0,0,64.33,90a6.16,6.16,0,0,1,3.75,0,2,2,0,0,0,2.46-.5A6.58,6.58,0,0,1,72.34,88c.36-.17-.88-1.32-1.9-.06s-1.54,1.37-2,1.37-3.33-.71-3.68-1.61.89-1.57,1.94-2.08,3.93-.49,4.67-.66c1.5-.33,3.41-1.08,4.37-.42s-4,1.78-2.39,2.66c.58.32,3.22-1.52,4.12-2,2.12-1.09-2.06-1.46-1.52-3.68.61-2.52-5.13-1.54-8-1.33a24.69,24.69,0,0,1,37.31,15,4,4,0,0,1-.12,1.14,1.61,1.61,0,0,1-2.89.22c-.25-.36-1.31-1.36-1.27.35s1.66,1.89.08,2.91a6.07,6.07,0,0,1-2.6,1c-.73.26-1.43,2-1.26,3s2.43,3.52.76,3.41c-.39,0-3.34-2-3.83-3.34s-1.07-2.7-1.47-3.73a1.47,1.47,0,0,0-2.33-.68c-.88.6.25,1.2-.39,2.49s-1.08,2.43-2,1.37c-2.41-2.76-5.91-1.4-6.46-4.47-.3-1.67-1.73-1.51-2.93-2.45s-1.88-1.45-2.08-.77,3.77,3.73,4.06,4.53c.42,1.19-1.18,2.24-2.36,2.53s-1.68-.66-2.83-1.86-1.65-2.05-1.73-1.11a5.4,5.4,0,0,0,2.27,4.1c1,.63,2.12.92,1.79,1.95s0,.45-1.12,1.55-1.34,1.47-1.25,3-.32,1.63-.56,2.91-.8.17-1.28,2.05m26.49-9.85c.83-.07,2.08,1.08,1.59,1.53a2.21,2.21,0,0,1-2.35-.21c-.62-.48.39-1.28.77-1.31m-1-.76c-.27-.1-.5-.35-.7-1A.56.56,0,0,1,99,103a2.39,2.39,0,0,1,1.16,1.42c0,.4-1,.36-1.27.25m-10.9,0a2.23,2.23,0,0,1-2.36-.21c-.62-.48.39-1.28.77-1.31.83-.07,2.08,1.09,1.59,1.53m-10.08,4.9c-.34.56-1.27,4.71-1.89,4.23s.25-4.82.43-5.15c1-1.79,3.08-1.7,1.46.92m3.36,16.09a24.74,24.74,0,0,1-6.94-1,1,1,0,0,1-.3-1.21c.76-2,3-2.77,4.84-2.94,4-.39,9.27,2.6,10.1,2.12s2.53-2.68,5-2.59a3.89,3.89,0,0,1,2.25.56,24.59,24.59,0,0,1-15,5.06m17.42-7.19a4.21,4.21,0,0,1-.78-.29c-1.35-.69-1.19.41-1.85.17s.75-1.79-1.24-.49-1.45-.2-2.31-2.4,1-4.71,2.56-5.28A31.36,31.36,0,0,1,99.51,109c3-.74,3.59-2.5,4.13-1.43l.29.57a3.9,3.9,0,0,1,.38,1.61,24.73,24.73,0,0,1-5.66,8.71M105.42,106c-.66-.18-3.44-4-1.24-6.54.36-.41-.74-1.63-.43-1.66a2,2,0,0,1,2.15,1.72c0,.47,0,.95,0,1.43a24.9,24.9,0,0,1-.52,5" fill="#fff"/><path d="M139.44,17.14h0l.89,5.36h-1.79Zm-1.58,9.59.39-2.44h2.38l.41,2.44h2.3l-2.54-13.35h-2.56l-2.52,13.35Zm-9.11-9.59h0l.89,5.36h-1.79Zm-1.58,9.59.39-2.44h2.38l.41,2.44h2.3l-2.54-13.35h-2.56L125,26.73Zm-6.58-11.52c.77,0,1.1.35,1.1,1.08v2a1,1,0,0,1-1.1,1.1h-.75V15.21ZM122,26.73h2.36l-2.15-6.07c1.28-.3,1.79-1.14,1.79-2.58V16.37c0-1.87-.83-3-3.09-3H117.6V26.73h2.25V20.6ZM110.38,15.21h1.85V26.73h2.26V15.21h1.85V13.38h-6Zm-3.21,11.52h2V13.38h-1.87V21l-2.42-7.66h-2.21V26.73h1.89V18.34Zm-9.43.16c2.38,0,3.41-1.54,3.41-3.6V16.82c0-2.09-1-3.6-3.41-3.6s-3.39,1.52-3.39,3.6v6.46C94.35,25.35,95.37,26.88,97.74,26.88Zm0-1.87c-.79,0-1.14-.57-1.14-1.38V16.47c0-.81.35-1.38,1.14-1.38s1.16.57,1.16,1.38v7.17C98.9,24.44,98.55,25,97.74,25Zm-8,1.87c2.38,0,3.17-1.42,3.17-3.33v-2.3h-2v2.46c0,.79-.28,1.3-1.08,1.3s-1.14-.57-1.14-1.38V16.47c0-.81.33-1.38,1.14-1.38s1.08.47,1.08,1.3v1.75h2V16.57c0-2-.69-3.35-3.17-3.35s-3.35,1.52-3.35,3.6v6.46C86.4,25.35,87.38,26.88,89.74,26.88Zm-10.53,0c2.38,0,3.41-1.54,3.41-3.6V16.82c0-2.09-1-3.6-3.41-3.6s-3.39,1.52-3.39,3.6v6.46C75.82,25.35,76.85,26.88,79.21,26.88Zm0-1.87c-.79,0-1.14-.57-1.14-1.38V16.47c0-.81.35-1.38,1.14-1.38s1.16.57,1.16,1.38v7.17C80.37,24.44,80,25,79.21,25Zm-8.45-7.88h0l.89,5.36H69.88Zm-.85-4.29a.26.26,0,0,1,.28-.3c.3,0,.77.33,1.34.33,1,0,1.34-.75,1.38-1.67h-1.1a.26.26,0,0,1-.28.3c-.3,0-.77-.33-1.34-.33-1,0-1.34.75-1.38,1.67Zm-.73,13.88.39-2.44H72l.41,2.44h2.3L72.14,13.38H69.58L67.06,26.73Zm-7.34,2c1.42,0,2-.33,2-.95,0-.43-.3-.63-.83-.71v-.18c2.23-.08,3-1.46,3-3.33v-2.3h-2v2.46c0,.79-.28,1.3-1.08,1.3s-1.14-.57-1.14-1.38V16.47c0-.81.33-1.38,1.14-1.38s1.08.47,1.08,1.3v1.75h2V16.57c0-2-.69-3.35-3.17-3.35s-3.35,1.52-3.35,3.6v6.46c0,1.87.79,3.31,2.7,3.54v.73h.1c.2,0,.32.08.32.22s-.1.3-.73.32ZM54.41,17.14h0l.89,5.36H53.52Zm-1.58,9.59.39-2.44h2.38L56,26.73h2.3L55.78,13.38H53.22L50.7,26.73Z" fill="#fff"/><path d="M144.2,45.66h4.92V43.83h-2.68V32.31H144.2Zm-4.55-9.59h0l.89,5.36h-1.79Zm-1.58,9.59.39-2.44h2.38l.41,2.44h2.3L141,32.31h-2.56l-2.52,13.35Zm-6.93-11.52h.77A.94.94,0,0,1,133,35.23v1.63a1,1,0,0,1-1.06,1.08h-.79Zm1,5.51c.79,0,1.12.37,1.12,1.08v2a1,1,0,0,1-1.1,1.08h-1V39.66Zm-3.21,6h3.49c2.25,0,3.09-1,3.09-2.93V41a2,2,0,0,0-1.67-2.23,1.94,1.94,0,0,0,1.34-2.13V35.25c0-1.89-.75-2.93-3-2.93H128.9Zm-4.39.16c2.38,0,3.41-1.54,3.41-3.6V35.76c0-2.09-1-3.6-3.41-3.6s-3.39,1.52-3.39,3.6v6.46C121.13,44.29,122.15,45.82,124.51,45.82Zm0-1.87c-.79,0-1.14-.57-1.14-1.38V35.4c0-.81.35-1.38,1.14-1.38s1.16.57,1.16,1.38v7.17C125.67,43.38,125.32,44,124.51,44Zm-9,1.71h4.92V43.83h-2.68V32.31h-2.25Zm-4.17-5.36h1.06v2.36c0,.87-.37,1.28-1.1,1.28s-1.1-.57-1.1-1.38V35.4c0-.81.35-1.38,1.16-1.38s1.12.47,1.12,1.3v1.36h2V35.5c0-2-.73-3.35-3.21-3.35s-3.37,1.52-3.37,3.6v6.46c0,2.07.89,3.6,2.82,3.6a2,2,0,0,0,2.15-1.61v1.46h1.61V38.54H111.3Zm-9.71-4.23h0l.89,5.36h-1.79ZM100,45.66l.39-2.44h2.38l.41,2.44h2.3L103,32.31h-2.56L97.89,45.66Zm-6.83,2c1.42,0,2-.33,2-.95,0-.43-.3-.63-.83-.71v-.18c2.23-.08,3-1.46,3-3.33v-2.3h-2v2.46c0,.79-.28,1.3-1.08,1.3s-1.14-.57-1.14-1.38V35.4c0-.81.33-1.38,1.14-1.38s1.08.47,1.08,1.3v1.75h2V35.5c0-2-.69-3.35-3.17-3.35s-3.35,1.52-3.35,3.6v6.46c0,1.87.79,3.31,2.7,3.54v.73h.1c.2,0,.32.08.32.22s-.1.3-.73.32Zm-5.33-2h2V32.31H88V40l-2.42-7.66H83.33V45.66h1.89V37.28Zm-9.08-9.59h0l.89,5.36H77.89ZM77.2,45.66l.39-2.44H80l.41,2.44h2.3L80.16,32.31H77.6L75.08,45.66Zm-6-13.35H67.73V45.66H71.2c2.4,0,3.25-1.54,3.25-3.58V35.9C74.45,33.83,73.6,32.31,71.2,32.31ZM70,43.83V34.14h.95a1.17,1.17,0,0,1,1.28,1.34v7c0,.81-.35,1.36-1.28,1.36Zm-5.3-11.52V42.63c0,.79-.32,1.32-1.1,1.32s-1.1-.53-1.1-1.32V32.31H60.23v10.1c0,2.07,1,3.41,3.35,3.41s3.17-1.34,3.17-3.41V32.31ZM57.2,45.66h2V32.31H56.41l-1.3,7.52h0l-1.46-7.52H51V45.66h1.85V37h0l1.67,8.66h1L57.14,37h.06Z" fill="#fff"/><path d="M97.17,54h0l.89,5.36H96.28Zm-1.58,9.59L96,61.12h2.38l.41,2.44h2.3L98.55,50.21H96L93.46,63.56Zm-4.8,0h2V50.21H90l-1.3,7.52h0l-1.46-7.52H84.61V63.56h1.85V54.89h0l1.67,8.66h1l1.52-8.66h.06Zm-9.43,0H83.6V50.21H81.36Zm-5.65,0h4.92V61.73H78V50.21H75.71Zm-4.09.16c2.38,0,3.17-1.42,3.17-3.33v-2.3h-2v2.46c0,.79-.28,1.3-1.08,1.3s-1.14-.57-1.14-1.38V53.3c0-.81.33-1.38,1.14-1.38s1.08.47,1.08,1.3V55h2V53.4c0-2-.69-3.35-3.17-3.35s-3.35,1.52-3.35,3.6v6.46C68.26,62.18,69.25,63.72,71.61,63.72Zm-9.51,0c2.38,0,3.41-1.54,3.41-3.6V53.65c0-2.09-1-3.6-3.41-3.6s-3.39,1.52-3.39,3.6v6.46C58.72,62.18,59.74,63.72,62.1,63.72Zm0-1.87c-.79,0-1.14-.57-1.14-1.38V53.3c0-.81.35-1.38,1.14-1.38s1.16.57,1.16,1.38v7.17C63.27,61.27,62.91,61.85,62.1,61.85ZM54.48,50.21H51V63.56h3.47c2.4,0,3.25-1.54,3.25-3.58V53.79C57.73,51.72,56.89,50.21,54.48,50.21ZM53.26,61.73V52h.95a1.17,1.17,0,0,1,1.28,1.34v7c0,.81-.35,1.36-1.28,1.36Z" fill="#fff"/></svg>