<svg id="a4c732fb-e946-40e4-9705-d2cb6ed43dd6" data-name="Layer 1" xmlns="http://www.w3.org/2000/svg" viewBox="0 0 160 160"><title>ODS</title><path d="M29.92,41.24H21V39.72c0-2.52.9-3.47,2.28-4.95l3.47-3.66c2.81-3,3.43-4.9,3.43-8.14V19.83c0-4.61-2.24-6.8-7.09-6.8s-7.18,2.52-7.18,7V24h4.95v-4c0-1.95,1-2.52,2.09-2.52s1.95.43,1.95,2.43V22.5c0,2.67-.24,3.71-2,5.57l-3,3.24c-2.95,3.14-4,5.24-4,8.42v5.95H29.92Z" fill="#fff"/><path d="M63.82,136v2.35a1.06,1.06,0,0,0,1,1H91.34a1.06,1.06,0,0,0,1-1.06h0V135.7c14.86-4.87,26-16.91,28.44-31.59v-.24a1.07,1.07,0,0,0-1.07-1.07H35.66a1.07,1.07,0,0,0-1.07,1.07l.06.48c2.57,14.81,14,26.92,29.17,31.59" fill="#fff"/><path d="M92.36,66.91c-.35.49-8.47,12.19.18,21.65,4,4.34,3.62,8.17,2.49,10.76h5.55c1.12-3.82.66-8.61-3.85-13.54-6.38-7,.08-16.39.18-16.54a2.08,2.08,0,0,0-.9-3.11,3,3,0,0,0-3.66.77" fill="#fff"/><path d="M78.3,99.33h5.55C85,95.5,84.51,90.72,80,85.79c-6.38-7,.07-16.39.18-16.55a2.08,2.08,0,0,0-.9-3.1,2.94,2.94,0,0,0-3.65.77c-.35.49-8.48,12.19.18,21.65,4,4.34,3.62,8.17,2.49,10.76" fill="#fff"/><path d="M58.89,66.91c-.35.49-8.48,12.19.18,21.65,4,4.34,3.63,8.18,2.5,10.76h5.55c1.12-3.82.66-8.61-3.85-13.54-6.38-7,.08-16.39.18-16.54a2.08,2.08,0,0,0-.91-3.1,2.94,2.94,0,0,0-3.65.77" fill="#fff"/><path d="M102.84,23.66c2.33,0,3.34-1.5,3.34-3.53V13.81c0-2-1-3.53-3.34-3.53s-3.32,1.48-3.32,3.53v6.32C99.52,22.16,100.52,23.66,102.84,23.66Zm0-1.83c-.77,0-1.12-.56-1.12-1.35v-7c0-.79.35-1.35,1.12-1.35s1.14.56,1.14,1.35v7C104,21.27,103.63,21.83,102.84,21.83Zm-8-9.6c.75,0,1.08.35,1.08,1.06v1.93a1,1,0,0,1-1.08,1.08h-.73V12.23Zm1.33,11.28H98.5l-2.1-5.94c1.25-.29,1.75-1.12,1.75-2.53V13.36c0-1.83-.81-2.93-3-2.93h-3.2V23.51h2.2v-6Zm-10.86,0h5.24V21.71h-3v-4H89.7V16H87.52V12.23h3V10.43H85.32ZM84,12.23V10.43H78.57v1.79h3.1l-3.45,9.49v1.79h5.63V21.71H80.52ZM69.58,23.51h5.24V21.71h-3v-4H74V16H71.78V12.23h3V10.43H69.58Zm-3.44,0h2V10.43H65.38L64.1,17.8h0l-1.43-7.37H60.09V23.51h1.81V15h0l1.64,8.48h1L66.09,15h.06Zm-10.82.15c2.33,0,3.34-1.5,3.34-3.53V13.81c0-2-1-3.53-3.34-3.53S52,11.76,52,13.81v6.32C52,22.16,53,23.66,55.33,23.66Zm0-1.83c-.77,0-1.12-.56-1.12-1.35v-7c0-.79.35-1.35,1.12-1.35s1.14.56,1.14,1.35v7C56.47,21.27,56.12,21.83,55.33,21.83Zm-9.6,1.68h2.2V17.74h2.2V16h-2.2V12.23h3V10.43H45.72Z" fill="#fff"/><path d="M129.07,32.27h0l.87,5.24H128.2Zm-1.54,9.39.39-2.39h2.33l.4,2.39h2.26l-2.49-13.07h-2.51l-2.47,13.07ZM121.1,30.38c.75,0,1.08.35,1.08,1.06v1.93a1,1,0,0,1-1.08,1.08h-.73V30.38Zm1.33,11.28h2.31l-2.1-5.94c1.25-.29,1.75-1.12,1.75-2.53V31.51c0-1.83-.81-2.93-3-2.93h-3.2V41.66h2.2v-6ZM114.7,28.58v10.1c0,.77-.31,1.29-1.08,1.29s-1.08-.52-1.08-1.29V28.58h-2.2v9.89c0,2,1,3.34,3.28,3.34s3.1-1.31,3.1-3.34V28.58Zm-11.42,1.79h1.81V41.66h2.22V30.38h1.81V28.58h-5.84ZM97.51,41.66h4.82V39.86H99.71V28.58h-2.2ZM94,28.58v10.1C94,39.46,93.73,40,93,40s-1.08-.52-1.08-1.29V28.58h-2.2v9.89c0,2,1,3.34,3.28,3.34s3.1-1.31,3.1-3.34V28.58ZM85.19,41.81c2.33,0,3.1-1.39,3.1-3.26V36.3h-2v2.41c0,.77-.27,1.27-1.06,1.27s-1.12-.56-1.12-1.35v-7c0-.79.33-1.35,1.12-1.35s1.06.46,1.06,1.27v1.72h2V31.71c0-1.93-.67-3.28-3.1-3.28S81.91,29.91,81.91,32v6.32C81.91,40.31,82.87,41.81,85.19,41.81Zm-6.94-.15h2.2V28.58h-2.2ZM73.56,30.38c.75,0,1.08.35,1.08,1.06v1.93a1,1,0,0,1-1.08,1.08h-.73V30.38Zm1.33,11.28H77.2l-2.1-5.94c1.25-.29,1.75-1.12,1.75-2.53V31.51c0-1.83-.81-2.93-3-2.93h-3.2V41.66h2.2v-6Zm-8.83-5.24h1v2.31c0,.85-.37,1.25-1.08,1.25s-1.08-.56-1.08-1.35v-7c0-.79.35-1.35,1.14-1.35s1.1.46,1.1,1.27v1.33h2V31.71c0-1.93-.71-3.28-3.14-3.28s-3.3,1.48-3.3,3.53v6.32c0,2,.87,3.53,2.76,3.53a2,2,0,0,0,2.1-1.58v1.43h1.58v-7H66.05ZM57.8,32.27h0l.87,5.24H56.93Zm-1.54,9.39.39-2.39H59l.4,2.39h2.26L59.15,28.58H56.64L54.17,41.66Zm-10.57,0h5.24V39.86h-3v-4h2.18V34.12H47.88V30.38h3V28.58H45.68Z" fill="#fff"/><path d="M119.62,59.56h4.82V57.76h-2.62V46.48h-2.2Zm-6.62,0h5.24V57.76h-3v-4h2.18V52H115.2V48.28h3V46.48H113Zm-3.16-13.07L108.3,55.6h0l-1.5-9.12h-2.24L107,59.56h2.39l2.49-13.07Zm-9.91,3.68h0l.87,5.24H99.06ZM101.81,44l-3.45.73V46l3.45-.44ZM98.38,59.56l.39-2.39h2.33l.4,2.39h2.26l-2.49-13.07H98.77L96.3,59.56Zm-8.8-11.28H91.4V59.56h2.22V48.28h1.81V46.48H89.59ZM86.46,59.56h1.93V46.48H86.56V54l-2.37-7.5H82V59.56h1.85V51.34Zm-11.05,0h5.24V57.76h-3v-4h2.18V52H77.61V48.28h3V46.48H75.41ZM68.35,48.28h1.81V59.56h2.22V48.28h1.81V46.48H68.35ZM64,59.71c2.24,0,3.2-1.27,3.2-3.07V56c0-1.45-.58-2.18-1.77-3.39l-1.41-1.39c-.64-.62-1-1-1-1.77v-.27a1,1,0,0,1,1-1.08c.69,0,1,.37,1,1.12v1.14h2V49.3c0-1.89-.87-3-3.07-3S61,47.58,61,49.2v.44c0,1.5.58,2.26,1.83,3.49l1.29,1.29a2.36,2.36,0,0,1,1,1.85v.5c0,.69-.31,1.16-1,1.16S63,57.51,63,56.78V55h-2v1.75C60.94,58.46,61.81,59.71,64,59.71ZM57.58,46.48v10.1c0,.77-.31,1.29-1.08,1.29s-1.08-.52-1.08-1.29V46.48h-2.2v9.89c0,2,1,3.34,3.28,3.34s3.1-1.31,3.1-3.34V46.48ZM48.67,59.71c2.24,0,3.2-1.27,3.2-3.07V56c0-1.45-.58-2.18-1.77-3.39l-1.41-1.39c-.64-.62-1-1-1-1.77v-.27a1,1,0,0,1,1-1.08c.69,0,1,.37,1,1.12v1.14h2V49.3c0-1.89-.87-3-3.07-3s-3.09,1.25-3.09,2.87v.44c0,1.5.58,2.26,1.83,3.49l1.29,1.29a2.36,2.36,0,0,1,1,1.85v.5c0,.69-.31,1.16-1,1.16s-1.08-.42-1.08-1.16V55h-2v1.75C45.57,58.46,46.44,59.71,48.67,59.71Z" fill="#fff"/></svg>