<svg id="d04e98a4-f2b1-45d2-b741-89316caf37bd" data-name="Layer 1" xmlns="http://www.w3.org/2000/svg" viewBox="0 0 160 160"><title>ODS</title><polygon points="15.97 21.02 16.02 21.02 16.02 45.72 21.44 45.72 21.44 13.46 17.11 13.46 12.12 19.31 12.12 24.97 12.16 24.97 15.97 21.02" fill="#fff"/><path d="M24.68,20.12V24h4.95V20c0-1.95,1-2.52,2.09-2.52s2,.43,2,2.43v2.66c0,2.67-.24,3.71-2,5.57l-3,3.24c-2.95,3.14-4,5.23-4,8.42v5.95H38.67V41.29h-8.9V39.77c0-2.52.9-3.47,2.28-4.95l3.47-3.66c2.81-3,3.43-4.9,3.43-8.14V19.88c0-4.62-2.24-6.8-7.09-6.8s-7.19,2.52-7.19,7" fill="#fff"/><path d="M123.82,85.71C117.3,80.56,109.47,80,106.41,80a19.13,19.13,0,0,0-4.2.4l-.43.1c-4.13,1-11,2.61-19.1,12.6l-.24.29a1,1,0,0,0-.2.61,1.08,1.08,0,0,0,.14.53l.18.3q2,3.33,3.31,5.79a1.07,1.07,0,0,0,1.72.24l.15-.21c7-9.62,12.41-10.9,16-11.75l.45-.11a10.52,10.52,0,0,1,2.21-.19c1.68,0,7.51.28,12.05,3.87,4,3.19,6.1,8.29,6.1,15.16,0,11.51-5.57,16-10.24,17.73a16.26,16.26,0,0,1-5.71,1,20.27,20.27,0,0,1-8.56-2l-.33-.16c-4-1.74-10-5.38-15.69-16.77-11.63-23.35-21.39-25.56-27.86-27l-.34-.08A19.53,19.53,0,0,0,51.67,80a27.75,27.75,0,0,0-17.12,5.67c-4.21,3.36-9.24,9.89-9.24,21.91,0,7.32,1.51,12.16,5.37,17.25a25.74,25.74,0,0,0,20.4,9.69A31.41,31.41,0,0,0,57,134a25.18,25.18,0,0,0,10.08-4.6l3.4,3.07a1,1,0,0,0,1.38-.06.9.9,0,0,0,.25-.65l2.63-16.2v-.19a1,1,0,0,0-.32-.71,1,1,0,0,0-.68-.25h0l-15.78,4.36-.3,0a.92.92,0,0,0-.5.29,1,1,0,0,0,.07,1.39l3.27,3a15.46,15.46,0,0,1-5.11,2.07,22.4,22.4,0,0,1-4.18.41,17.07,17.07,0,0,1-13.52-6.11l-.09-.12c-2.72-3.57-3.64-6.61-3.64-12.05,0-6.89,2-12,6-15.17,4.42-3.53,10.12-3.8,11.76-3.8a11.12,11.12,0,0,1,2.24.19l.35.08c5.16,1.17,12.23,2.77,22,22.45,5.18,10.39,11.67,17.19,19.83,20.77a29.22,29.22,0,0,0,12.5,2.9,24.91,24.91,0,0,0,8.72-1.55c4.77-1.78,15.85-7.86,15.85-25.82,0-12-5.1-18.56-9.38-21.93" fill="#fff"/><path d="M108.27,26.46h5.25V24.67h-3v-4h2.18V18.92h-2.18V15.18h3V13.39h-5.25Zm-6.58.15c2.33,0,3.34-1.5,3.34-3.53V16.76c0-2-1-3.53-3.34-3.53s-3.32,1.48-3.32,3.53v6.32C98.38,25.11,99.38,26.61,101.69,26.61Zm0-1.83c-.77,0-1.12-.56-1.12-1.35v-7c0-.79.35-1.35,1.12-1.35s1.14.56,1.14,1.35v7C102.83,24.22,102.48,24.78,101.69,24.78Zm-6.56,1.68h2V13.39H94.36l-1.27,7.37h0l-1.43-7.37H89.08V26.46h1.81V18h0l1.64,8.48h1L95.07,18h.06ZM85.82,13.39v10.1c0,.77-.31,1.29-1.08,1.29s-1.08-.52-1.08-1.29V13.39h-2.2v9.89c0,2,1,3.34,3.28,3.34s3.1-1.31,3.1-3.34V13.39Zm-8.7,13.23c2.24,0,3.2-1.27,3.2-3.07v-.64c0-1.45-.58-2.18-1.77-3.39l-1.41-1.39c-.64-.62-1-1-1-1.77v-.27a1,1,0,0,1,1-1.08c.69,0,1,.37,1,1.12v1.14h2V16.2c0-1.89-.87-3-3.07-3S74,14.48,74,16.1v.44c0,1.5.58,2.26,1.83,3.49l1.29,1.29a2.36,2.36,0,0,1,1,1.85v.5c0,.69-.31,1.16-1,1.16s-1.08-.42-1.08-1.16V21.89H74v1.75C74,25.36,74.88,26.61,77.12,26.61ZM71,26.46h1.93V13.39H71.06v7.5l-2.37-7.5H66.53V26.46h1.85V18.24Zm-9,.15c2.33,0,3.34-1.5,3.34-3.53V16.76c0-2-1-3.53-3.34-3.53s-3.32,1.48-3.32,3.53v6.32C58.64,25.11,59.64,26.61,62,26.61Zm0-1.83c-.77,0-1.12-.56-1.12-1.35v-7c0-.79.35-1.35,1.12-1.35s1.14.56,1.14,1.35v7C63.09,24.22,62.75,24.78,62,24.78Zm-7.6,1.83c2.33,0,3.1-1.39,3.1-3.26V21.1h-2v2.41c0,.77-.27,1.27-1.06,1.27s-1.12-.56-1.12-1.35v-7c0-.79.33-1.35,1.12-1.35s1.06.46,1.06,1.27v1.72h2V16.51c0-1.93-.67-3.28-3.1-3.28s-3.28,1.48-3.28,3.53v6.32C51.08,25.11,52,26.61,54.36,26.61Z" fill="#fff"/><path d="M109.58,45.82c2.33,0,3.34-1.5,3.34-3.53V36c0-2-1-3.53-3.34-3.53s-3.32,1.48-3.32,3.53V42.3C106.26,44.32,107.27,45.82,109.58,45.82Zm0-1.83c-.77,0-1.12-.56-1.12-1.35v-7c0-.79.35-1.35,1.12-1.35s1.14.56,1.14,1.35v7C110.72,43.43,110.37,44,109.58,44Zm-8.26-7.71h0l.87,5.24h-1.75Zm-.83-4.2a.26.26,0,0,1,.27-.29c.29,0,.75.33,1.31.33,1,0,1.31-.73,1.35-1.64h-1.08a.26.26,0,0,1-.27.29c-.29,0-.75-.33-1.31-.33-1,0-1.31.73-1.35,1.64Zm-.71,13.59.39-2.39h2.33l.4,2.39h2.26L102.68,32.6h-2.51L97.7,45.67Zm-7.18,1.95c1.39,0,1.95-.33,1.95-.93,0-.42-.29-.62-.81-.69v-.17c2.18-.08,2.91-1.43,2.91-3.26V40.31h-2v2.41c0,.77-.27,1.27-1.06,1.27s-1.12-.56-1.12-1.35v-7c0-.79.33-1.35,1.12-1.35s1.06.46,1.06,1.27v1.72h2V35.72c0-1.93-.67-3.28-3.1-3.28S90.27,33.93,90.27,36V42.3c0,1.83.77,3.24,2.64,3.47v.71H93c.19,0,.31.08.31.21s-.1.29-.71.31Zm-5.81-15V42.7c0,.77-.31,1.29-1.08,1.29s-1.08-.52-1.08-1.29V32.6h-2.2v9.89c0,2,1,3.34,3.28,3.34s3.1-1.31,3.1-3.34V32.6Zm-9,0H74.42V45.67h3.39c2.35,0,3.18-1.5,3.18-3.51V36.11C81,34.08,80.16,32.6,77.81,32.6Zm-1.2,11.28V34.39h.93a1.15,1.15,0,0,1,1.25,1.31v6.85c0,.79-.35,1.33-1.25,1.33Zm-7,1.95C72,45.82,73,44.32,73,42.3V36c0-2-1-3.53-3.34-3.53S66.32,33.93,66.32,36V42.3C66.32,44.32,67.32,45.82,69.63,45.82Zm0-1.83c-.77,0-1.12-.56-1.12-1.35v-7c0-.79.35-1.35,1.12-1.35s1.14.56,1.14,1.35v7C70.77,43.43,70.42,44,69.63,44Zm-8-9.6c.75,0,1.08.35,1.08,1.06v1.93a1,1,0,0,1-1.08,1.08H60.9V34.39ZM63,45.67h2.31l-2.1-5.94c1.25-.29,1.75-1.12,1.75-2.53V35.53c0-1.83-.81-2.93-3-2.93H58.7V45.67h2.2v-6ZM54.09,34.39c.75,0,1.08.35,1.08,1.06v3a.94.94,0,0,1-1.08,1.08h-.81V34.39Zm-3,11.28h2.2V41.24h1.06c2.22,0,3-1.12,3-3V35.53c0-1.83-.81-2.93-3-2.93H51.08Z" fill="#fff"/><path d="M132.07,65c2.24,0,3.2-1.27,3.2-3.07v-.64c0-1.45-.58-2.18-1.77-3.39l-1.41-1.39c-.64-.62-1-1-1-1.77v-.27a1,1,0,0,1,1-1.08c.69,0,1,.37,1,1.12v1.14h2V54.62c0-1.89-.87-3-3.07-3S129,52.91,129,54.53V55c0,1.5.58,2.26,1.83,3.49l1.29,1.29a2.36,2.36,0,0,1,1,1.85v.5c0,.69-.31,1.16-1,1.16S131,62.84,131,62.1V60.31h-2v1.75C129,63.78,129.84,65,132.07,65Zm-6.52-.15h2.2V51.81h-2.2Zm-6.48,0h5.25V63.09h-3v-4h2.18V57.34h-2.18V53.6h3V51.81h-5.25Zm-3-13.07-1.54,9.12h0L113,51.81h-2.24l2.49,13.07h2.39l2.49-13.07Zm-9.78,3.68h0l.87,5.24H105.4Zm1.89-6.13-3.45.73v1.23l3.45-.44Zm-3.43,15.52.39-2.39h2.33l.4,2.39h2.26l-2.49-13.07h-2.51l-2.47,13.07ZM98.57,65c2.24,0,3.2-1.27,3.2-3.07v-.64c0-1.45-.58-2.18-1.77-3.39l-1.41-1.39c-.64-.62-1-1-1-1.77v-.27a1,1,0,0,1,1-1.08c.69,0,1,.37,1,1.12v1.14h2V54.62c0-1.89-.87-3-3.07-3s-3.09,1.25-3.09,2.87V55c0,1.5.58,2.26,1.83,3.49l1.29,1.29a2.36,2.36,0,0,1,1,1.85v.5c0,.69-.31,1.16-1,1.16s-1.08-.42-1.08-1.16V60.31h-2v1.75C95.46,63.78,96.33,65,98.57,65Zm-6.23-.15h1.93V51.81H92.43v7.5l-2.37-7.5H87.9V64.88h1.85V56.67ZM83.25,65c2.33,0,3.34-1.5,3.34-3.53V55.18c0-2-1-3.53-3.34-3.53s-3.32,1.48-3.32,3.53v6.32C79.93,63.53,80.94,65,83.25,65Zm0-1.83c-.77,0-1.12-.56-1.12-1.35v-7c0-.79.35-1.35,1.12-1.35s1.14.56,1.14,1.35v7C84.39,62.64,84,63.2,83.25,63.2Zm-7.79-9.6c.75,0,1.08.35,1.08,1.06v3a.94.94,0,0,1-1.08,1.08h-.81V53.6Zm-3,11.28h2.2V60.45h1.06c2.22,0,3-1.12,3-3V54.74c0-1.83-.81-2.93-3-2.93H72.45ZM68,65c2.24,0,3.2-1.27,3.2-3.07v-.64c0-1.45-.58-2.18-1.77-3.39l-1.41-1.39c-.64-.62-1-1-1-1.77v-.27a1,1,0,0,1,1-1.08c.69,0,1,.37,1,1.12v1.14h2V54.62c0-1.89-.87-3-3.07-3s-3.09,1.25-3.09,2.87V55c0,1.5.58,2.26,1.83,3.49l1.29,1.29a2.36,2.36,0,0,1,1,1.85v.5c0,.69-.31,1.16-1,1.16S67,62.84,67,62.1V60.31h-2v1.75C64.93,63.78,65.79,65,68,65Zm-9.47-.15h5.25V63.09h-3v-4h2.18V57.34H60.76V53.6h3V51.81H58.56ZM54,53.6c.75,0,1.08.35,1.08,1.06v1.93A1,1,0,0,1,54,57.67h-.73V53.6Zm1.33,11.28h2.31l-2.1-5.94c1.25-.29,1.75-1.12,1.75-2.53V54.74c0-1.83-.81-2.93-3-2.93h-3.2V64.88h2.2v-6Z" fill="#fff"/></svg>