<svg id="34dec1b9-2c27-4777-b0af-9cf08cbaebaf" data-name="Layer 1" xmlns="http://www.w3.org/2000/svg" viewBox="0 0 160 160"><title>ODS</title><polygon points="16.41 17.84 24.79 17.84 17.55 45.67 22.93 45.67 30.02 18.41 30.02 13.41 16.41 13.41 16.41 17.84" fill="#fff"/><path d="M80.06,77.52A23.45,23.45,0,1,0,103.51,101,23.45,23.45,0,0,0,80.06,77.52m-1.74,9.26a1.74,1.74,0,0,1,3.48,0v8.05a1.75,1.75,0,0,1-3.48,0ZM80.06,113a12.2,12.2,0,0,1-3.62-23.84v4.54a8,8,0,1,0,7.23,0V89.13A12.2,12.2,0,0,1,80.06,113" fill="#fff"/><path d="M53.14,100.76a2,2,0,0,0-1.8-1.92H41.07a1.93,1.93,0,0,0,0,3.86H51.34a2,2,0,0,0,1.8-1.93" fill="#fff"/><path d="M120.88,100.76a2,2,0,0,0-1.8-1.92H108.8a1.93,1.93,0,0,0,0,3.86h10.27a2,2,0,0,0,1.8-1.93" fill="#fff"/><path d="M80.07,73.84A2,2,0,0,0,82,72V61.77a1.93,1.93,0,0,0-3.86,0V72a2,2,0,0,0,1.93,1.8" fill="#fff"/><path d="M80.07,141.58a2,2,0,0,0,1.92-1.8V129.51a1.93,1.93,0,0,0-3.86,0v10.27a2,2,0,0,0,1.93,1.8" fill="#fff"/><path d="M56.7,87.39a2,2,0,0,0-.61-2.57l-8.91-5.1a1.93,1.93,0,0,0-1.91,3.35l8.91,5.1a2,2,0,0,0,2.52-.78" fill="#fff"/><path d="M115.49,121a2,2,0,0,0-.61-2.57l-8.91-5.1a1.93,1.93,0,0,0-1.92,3.35l8.91,5.1a2,2,0,0,0,2.52-.78" fill="#fff"/><path d="M93.44,77.4A2,2,0,0,0,96,76.8l5.1-8.91A1.93,1.93,0,0,0,97.76,66l-5.1,8.91a2,2,0,0,0,.78,2.52" fill="#fff"/><path d="M59.8,136.19a2,2,0,0,0,2.56-.61l5.1-8.91a1.93,1.93,0,0,0-3.35-1.92L59,133.66a2,2,0,0,0,.78,2.52" fill="#fff"/><path d="M66.65,77.43a2,2,0,0,0,.77-2.52L62.3,66A1.93,1.93,0,0,0,59,67.93l5.12,8.9a2,2,0,0,0,2.57.6" fill="#fff"/><path d="M100.41,136.14a2,2,0,0,0,.77-2.52l-5.12-8.9a1.93,1.93,0,0,0-3.34,1.92l5.12,8.9a2,2,0,0,0,2.57.6" fill="#fff"/><path d="M103.41,87.35a2,2,0,0,0,2.52.77l8.9-5.12a1.93,1.93,0,0,0-1.92-3.34L104,84.78a2,2,0,0,0-.6,2.57" fill="#fff"/><path d="M44.69,121.11a2,2,0,0,0,2.52.77l8.9-5.12a1.93,1.93,0,0,0-1.92-3.34l-8.9,5.12a2,2,0,0,0-.6,2.57" fill="#fff"/><path d="M59.56,26.46h5.24V24.66h-3v-4h2.18V18.92H61.76V15.18h3V13.38H59.56Zm-3.09,0H58.4V13.38H56.57v7.5l-2.37-7.5H52V26.46h1.85V18.24Zm-10.76,0H51V24.66h-3v-4h2.18V18.92H47.91V15.18h3V13.38H45.71Z" fill="#fff"/><path d="M121.25,17.07h0l.87,5.24h-1.75Zm-1.54,9.39.39-2.39h2.33l.4,2.39h2.26L122.6,13.38h-2.51l-2.47,13.07Zm-5.86-11.28c.75,0,1.08.35,1.08,1.06v3a.94.94,0,0,1-1.08,1.08H113V15.18Zm-3,11.28H113V22h1.06c2.22,0,3-1.12,3-3V16.31c0-1.83-.81-2.93-3-2.93h-3.26Zm-3,0h2V13.38h-2.78l-1.27,7.37h0l-1.43-7.37h-2.56V26.46h1.81V18h0l1.64,8.48h1L107.8,18h.06Zm-9.24,0h2.2V13.38h-2.2Zm-5.54,0h4.82V24.66H95.29V13.38h-2.2Zm-6.19-9.39h0l.87,5.24H86Zm-1.54,9.39.39-2.39h2.33l.4,2.39h2.26L88.24,13.38H85.74L83.27,26.46Zm-4.92,0h2.2V13.38h-2.2Zm-4.09-5.24h1v2.31c0,.85-.37,1.25-1.08,1.25s-1.08-.56-1.08-1.35v-7c0-.79.35-1.35,1.14-1.35s1.1.46,1.1,1.27v1.33h2V16.51c0-1.93-.71-3.28-3.14-3.28S73,14.71,73,16.76v6.32c0,2,.87,3.53,2.76,3.53A2,2,0,0,0,77.89,25v1.43h1.58v-7H76.34Zm-7.52-6c.75,0,1.08.35,1.08,1.06v1.93a1,1,0,0,1-1.08,1.08h-.73V15.18Zm1.33,11.28h2.31l-2.1-5.94c1.25-.29,1.75-1.12,1.75-2.53V16.31c0-1.83-.81-2.93-3-2.93h-3.2V26.46h2.2v-6Z" fill="#fff"/><path d="M105.51,45.65h4.8V43.87H107.7V32.64h-2.19Zm-6.1,0h5.22V43.87h-3v-4h2.17V38.15H101.6V34.43h3V32.64H99.41Zm-2.67-13-1.54,9.08h0l-1.5-9.08H91.47l2.48,13h2.38l2.48-13ZM91.5,30.2l-3.44.73v1.23l3.44-.44ZM88.63,45.65h2.19v-13H88.63Zm-4,.15c2.23,0,3.19-1.27,3.19-3.05v-.63c0-1.44-.58-2.17-1.77-3.38l-1.4-1.38c-.63-.61-1-1-1-1.77v-.27a1,1,0,0,1,1-1.07c.69,0,1,.36,1,1.11V36.5h2V35.44c0-1.88-.86-3-3.05-3s-3.07,1.25-3.07,2.86v.44c0,1.5.58,2.25,1.82,3.47l1.29,1.29a2.35,2.35,0,0,1,1,1.84v.5c0,.69-.31,1.15-1,1.15s-1.07-.42-1.07-1.15V41.1h-2v1.75C81.49,44.56,82.35,45.81,84.58,45.81Zm-7,0c2.23,0,3.19-1.27,3.19-3.05v-.63c0-1.44-.58-2.17-1.77-3.38l-1.4-1.38c-.63-.61-1-1-1-1.77v-.27a1,1,0,0,1,1-1.07c.69,0,1,.36,1,1.11V36.5h2V35.44c0-1.88-.86-3-3.05-3s-3.07,1.25-3.07,2.86v.44c0,1.5.58,2.25,1.82,3.47l1.29,1.29a2.35,2.35,0,0,1,1,1.84v.5c0,.69-.31,1.15-1,1.15s-1.07-.42-1.07-1.15V41.1h-2v1.75C74.46,44.56,75.33,45.81,77.55,45.81Zm-9.08-.15H73.7V43.87h-3v-4h2.17V38.15H70.66V34.43h3V32.64H68.48Zm-4,.15c2.32,0,3.09-1.38,3.09-3.24V40.32h-2v2.4c0,.77-.27,1.27-1.06,1.27s-1.11-.56-1.11-1.34v-7c0-.79.33-1.34,1.11-1.34s1.06.46,1.06,1.27v1.71h2V35.75c0-1.92-.67-3.26-3.09-3.26S61.22,34,61.22,36v6.29C61.22,44.31,62.18,45.81,64.49,45.81Zm-7.69-9.5h0l.86,5.22H55.93Zm-1.54,9.35.38-2.38H58l.4,2.38h2.25l-2.48-13H55.64l-2.46,13Zm-9.56,0h5.22V43.87h-3v-4h2.17V38.15H47.89V34.43h3V32.64H45.7Z" fill="#fff"/></svg>