<svg id="e3d4e60b-0576-4540-889b-a13ee3924dad" data-name="Layer 1" xmlns="http://www.w3.org/2000/svg" viewBox="0 0 160 160"><title>ODS</title><polygon points="11.46 19.26 11.46 24.92 11.51 24.92 15.32 20.98 15.37 20.98 15.37 45.67 20.79 45.67 20.79 13.41 16.46 13.41 11.46 19.26" fill="#fff"/><polygon points="23.84 19.26 23.84 24.92 23.88 24.92 27.69 20.98 27.74 20.98 27.74 45.67 33.16 45.67 33.16 13.41 28.83 13.41 23.84 19.26" fill="#fff"/><path d="M27.53,121.81H51.59a.59.59,0,0,0,.59-.59.59.59,0,0,0-.16-.39l0,0L40,105.3l-.12-.13a.59.59,0,0,0-.44-.19.6.6,0,0,0-.39.15l-.07.08-.11.13L27.22,120.67l-.18.22a.57.57,0,0,0-.1.33.59.59,0,0,0,.59.59" fill="#fff"/><path d="M51.52,124H27.41a.59.59,0,0,0-.59.59v18.87a.59.59,0,0,0,.59.59h7.76V132.17a.59.59,0,0,1,.59-.59H43a.59.59,0,0,1,.59.59V144h8a.59.59,0,0,0,.59-.59V124.58a.59.59,0,0,0-.59-.59" fill="#fff"/><path d="M134.87,119.05H111a.57.57,0,0,0-.58.57v24.1a.58.58,0,0,0,.58.57h23.87a.58.58,0,0,0,.58-.57v-24.1a.57.57,0,0,0-.58-.57m-13.06,15.73a.58.58,0,0,1-.58.57h-7.13a.58.58,0,0,1-.59-.57v-4.33a.58.58,0,0,1,.59-.57h7.13a.57.57,0,0,1,.58.57Zm0-8a.58.58,0,0,1-.58.57h-7.13a.58.58,0,0,1-.59-.57v-4.33a.58.58,0,0,1,.59-.57h7.13a.58.58,0,0,1,.58.57Zm10.9,8a.58.58,0,0,1-.58.57H125a.58.58,0,0,1-.58-.57v-4.33a.58.58,0,0,1,.58-.57h7.13a.58.58,0,0,1,.58.57Zm0-8a.58.58,0,0,1-.58.57H125a.58.58,0,0,1-.58-.57v-4.33a.58.58,0,0,1,.58-.57h7.13a.58.58,0,0,1,.58.57Z" fill="#fff"/><path d="M79.38,63.11H56a.57.57,0,0,0-.57.57v79.82a.57.57,0,0,0,.57.57H79.38a.58.58,0,0,0,.57-.57V63.68a.58.58,0,0,0-.57-.57M65.49,135a.31.31,0,0,1-.31.31H59.83a.31.31,0,0,1-.31-.31v-6a.3.3,0,0,1,.31-.3h5.35a.3.3,0,0,1,.31.3Zm0-13.69a.3.3,0,0,1-.31.31H59.83a.3.3,0,0,1-.31-.31v-6a.31.31,0,0,1,.31-.31h5.35a.31.31,0,0,1,.31.31Zm0-13.69a.31.31,0,0,1-.31.31H59.83a.31.31,0,0,1-.31-.31v-6a.31.31,0,0,1,.31-.31h5.35a.31.31,0,0,1,.31.31Zm0-13.69a.31.31,0,0,1-.31.31H59.83a.31.31,0,0,1-.31-.31V88a.3.3,0,0,1,.31-.3h5.35a.3.3,0,0,1,.31.3Zm0-13.69a.31.31,0,0,1-.31.31H59.83a.31.31,0,0,1-.31-.31v-6a.31.31,0,0,1,.31-.31h5.35a.31.31,0,0,1,.31.31ZM76,135a.31.31,0,0,1-.31.31H70.32A.31.31,0,0,1,70,135v-6a.3.3,0,0,1,.31-.3h5.35a.31.31,0,0,1,.31.3Zm0-13.69a.31.31,0,0,1-.31.31H70.32a.3.3,0,0,1-.31-.31v-6a.31.31,0,0,1,.31-.31h5.35a.31.31,0,0,1,.31.31Zm0-13.69a.31.31,0,0,1-.31.31H70.32a.31.31,0,0,1-.31-.31v-6a.31.31,0,0,1,.31-.31h5.35a.31.31,0,0,1,.31.31Zm0-13.69a.31.31,0,0,1-.31.31H70.32a.31.31,0,0,1-.31-.31V88a.3.3,0,0,1,.31-.3h5.35A.31.31,0,0,1,76,88Zm0-13.69a.31.31,0,0,1-.31.31H70.32a.31.31,0,0,1-.31-.31v-6a.31.31,0,0,1,.31-.31h5.35a.31.31,0,0,1,.31.31Z" fill="#fff"/><rect x="110.44" y="111.35" width="24.98" height="5.76" rx="0.48" ry="0.48" fill="#fff"/><path d="M107.6,78.19a.61.61,0,0,0-.59-.45.59.59,0,0,0-.33.11l0,0-.2.25-23,29.12-.11.14a.65.65,0,0,0-.2.45v35.78a.57.57,0,0,0,.57.57h23.33a.57.57,0,0,0,.57-.57V78.42l-.06-.24M97.93,94l.16-.2c1.57-2,4.22-5.28,5.51-6.86l.17-.2a.67.67,0,0,1,.51-.24.65.65,0,0,1,.64.53v7.37a.66.66,0,0,1-.63.66H98.44A.66.66,0,0,1,97.93,94M94.3,134.78a.57.57,0,0,1-.57.57h-7a.57.57,0,0,1-.57-.57v-4.36a.57.57,0,0,1,.57-.57h7a.57.57,0,0,1,.57.57Zm0-8.05a.57.57,0,0,1-.57.57h-7a.57.57,0,0,1-.57-.57v-4.36a.57.57,0,0,1,.57-.57h7a.57.57,0,0,1,.57.57Zm0-8.05a.57.57,0,0,1-.57.57h-7a.57.57,0,0,1-.57-.57v-4.36a.57.57,0,0,1,.57-.57h7a.57.57,0,0,1,.57.57Zm0-17.64v9.6a.57.57,0,0,1-.57.57h-7a.57.57,0,0,1-.57-.57v-1.21l0-.21,0-.07.05-.08.06-.09c.89-1.27,4.91-6.22,6.59-8.29l.17-.2a.67.67,0,0,1,.51-.24.66.66,0,0,1,.64.53Zm10.62,33.75a.57.57,0,0,1-.57.57h-7a.57.57,0,0,1-.57-.57v-4.36a.57.57,0,0,1,.57-.57h7a.57.57,0,0,1,.57.57Zm0-8.05a.57.57,0,0,1-.57.57h-7a.57.57,0,0,1-.57-.57v-4.36a.57.57,0,0,1,.57-.57h7a.57.57,0,0,1,.57.57Zm0-8.05a.57.57,0,0,1-.57.57h-7a.57.57,0,0,1-.57-.57v-4.36a.57.57,0,0,1,.57-.57h7a.57.57,0,0,1,.57.57Zm0-8.05a.57.57,0,0,1-.57.57h-7a.57.57,0,0,1-.57-.57v-4.36a.57.57,0,0,1,.57-.57h7a.57.57,0,0,1,.57.57Zm0-8.05a.57.57,0,0,1-.57.57h-7a.57.57,0,0,1-.57-.57V98.22a.57.57,0,0,1,.57-.57h7a.57.57,0,0,1,.57.57Z" fill="#fff"/><path d="M92.66,24.47H97.9V22.68h-3v-4H97V16.93H94.86V13.19h3V11.4H92.66Zm-6,.15c2.24,0,3.2-1.27,3.2-3.07v-.64c0-1.45-.58-2.18-1.77-3.39l-1.41-1.39c-.64-.62-1-1-1-1.77V14.1a1,1,0,0,1,1-1.08c.69,0,1,.37,1,1.12v1.14h2V14.21c0-1.89-.87-3-3.07-3s-3.09,1.25-3.09,2.87v.44c0,1.5.58,2.26,1.83,3.49l1.29,1.29a2.36,2.36,0,0,1,1,1.85v.5c0,.69-.31,1.16-1,1.16s-1.08-.42-1.08-1.16V19.9h-2v1.75C83.59,23.37,84.46,24.63,86.7,24.63Zm-9.2-.15h5.24V22.68h-3v-4h2.18V16.93H79.69V13.19h3V11.4H77.5ZM73.27,11.4H69.88V24.47h3.39c2.35,0,3.18-1.5,3.18-3.51V14.91C76.45,12.88,75.62,11.4,73.27,11.4Zm-1.2,11.28V13.19H73a1.15,1.15,0,0,1,1.25,1.31v6.85c0,.79-.35,1.33-1.25,1.33Zm-6.73-7.6h0l.87,5.24H64.48ZM63.8,24.47l.39-2.39h2.33l.4,2.39h2.26L66.69,11.4H64.19L61.72,24.47Zm-6-13.07H54.45V24.47h3.39C60.19,24.47,61,23,61,21V14.91C61,12.88,60.19,11.4,57.84,11.4Zm-1.2,11.28V13.19h.93a1.15,1.15,0,0,1,1.25,1.31v6.85c0,.79-.35,1.33-1.25,1.33Zm-5.46,1.79h2.2V11.4h-2.2Zm-4.09.15c2.33,0,3.1-1.39,3.1-3.26V19.11h-2v2.41c0,.77-.27,1.27-1.06,1.27S46,22.24,46,21.45v-7c0-.79.33-1.35,1.12-1.35s1.06.46,1.06,1.27v1.72h2V14.52c0-1.93-.67-3.28-3.1-3.28s-3.28,1.48-3.28,3.53V21.1C43.82,23.12,44.78,24.63,47.1,24.63Z" fill="#fff"/><path d="M122.65,40.85c2.24,0,3.2-1.27,3.2-3.07v-.64c0-1.45-.58-2.18-1.77-3.39l-1.41-1.39c-.64-.62-1-1-1-1.77v-.27a1,1,0,0,1,1-1.08c.69,0,1,.37,1,1.12V31.5h2V30.44c0-1.89-.87-3-3.07-3s-3.09,1.25-3.09,2.87v.44c0,1.5.58,2.26,1.83,3.49l1.29,1.29a2.36,2.36,0,0,1,1,1.85v.5c0,.69-.31,1.16-1,1.16s-1.08-.42-1.08-1.16V36.12h-2v1.75C119.55,39.6,120.41,40.85,122.65,40.85Zm-9.6-.15h5.24V38.9h-3v-4h2.18V33.15h-2.18V29.41h3V27.62H113Zm-4.63-13.07H105V40.69h3.39c2.35,0,3.18-1.5,3.18-3.51V31.13C111.6,29.11,110.77,27.62,108.42,27.62Zm-1.2,11.28V29.41h.93a1.15,1.15,0,0,1,1.25,1.31v6.85c0,.79-.35,1.33-1.25,1.33Zm-7.14-7.6h0l.87,5.24H99.21Zm-1.54,9.39.39-2.39h2.33l.4,2.39h2.26l-2.49-13.07H98.93L96.46,40.69ZM92.17,27.62H88.78V40.69h3.39c2.35,0,3.18-1.5,3.18-3.51V31.13C95.36,29.11,94.53,27.62,92.17,27.62ZM91,38.9V29.41h.93a1.15,1.15,0,0,1,1.25,1.31v6.85c0,.79-.35,1.33-1.25,1.33Zm-5.86,1.79h2.2V27.62h-2.2Zm-3.38,0h1.93V27.62H81.83v7.5l-2.37-7.5H77.3V40.69h1.85V32.48ZM73.83,27.62v10.1c0,.77-.31,1.29-1.08,1.29s-1.08-.52-1.08-1.29V27.62h-2.2v9.89c0,2,1,3.34,3.28,3.34s3.1-1.31,3.1-3.34V27.62ZM66,40.69h2V27.62H65.25L64,35h0l-1.43-7.37H60V40.69h1.81V32.21h0l1.64,8.48h1L66,32.21H66Zm-10.84.15c2.33,0,3.34-1.5,3.34-3.53V31c0-2-1-3.53-3.34-3.53S51.86,29,51.86,31v6.32C51.86,39.34,52.86,40.85,55.18,40.85Zm0-1.83c-.77,0-1.12-.56-1.12-1.35v-7c0-.79.35-1.35,1.12-1.35s1.14.56,1.14,1.35v7C56.32,38.46,56,39,55.18,39Zm-7.81,1.83c2.33,0,3.1-1.39,3.1-3.26V35.33h-2v2.41c0,.77-.27,1.27-1.06,1.27s-1.12-.56-1.12-1.35v-7c0-.79.33-1.35,1.12-1.35s1.06.46,1.06,1.27v1.72h2V30.74c0-1.93-.67-3.28-3.1-3.28S44.09,29,44.09,31v6.32C44.09,39.34,45.05,40.85,47.37,40.85Z" fill="#fff"/><path d="M124.68,58.75c2.24,0,3.2-1.27,3.2-3.07V55c0-1.45-.58-2.18-1.77-3.39l-1.41-1.39c-.64-.62-1-1-1-1.77v-.27a1,1,0,0,1,1-1.08c.69,0,1,.37,1,1.12V49.4h2V48.34c0-1.89-.87-3-3.07-3s-3.09,1.25-3.09,2.87v.44c0,1.5.58,2.26,1.83,3.49l1.29,1.29a2.36,2.36,0,0,1,1,1.85v.5c0,.69-.31,1.16-1,1.16s-1.08-.42-1.08-1.16V54h-2v1.75C121.57,57.49,122.44,58.75,124.68,58.75ZM118,58.59h2.2V45.52H118Zm-6.62,0h5.24V56.8h-3v-4h2.18V51.05H113.6V47.31h3V45.52h-5.24Zm-3.17-13.07-1.54,9.12h0l-1.5-9.12h-2.24l2.49,13.07h2.39l2.49-13.07ZM98.33,49.2h0l.87,5.24H97.46Zm1.89-6.13-3.45.73V45l3.45-.44ZM96.78,58.59l.39-2.39H99.5l.4,2.39h2.26L99.68,45.52H97.17L94.7,58.59ZM88,47.31H89.8V58.59H92V47.31h1.81V45.52H88ZM84.86,58.59h1.93V45.52H85V53l-2.37-7.5H80.43V58.59h1.85V50.38Zm-11.05,0h5.24V56.8H76v-4h2.18V51.05H76V47.31h3V45.52H73.81ZM66.75,47.31h1.81V58.59h2.22V47.31h1.81V45.52H66.75Zm-4.3,11.43c2.24,0,3.2-1.27,3.2-3.07V55c0-1.45-.58-2.18-1.77-3.39l-1.41-1.39c-.64-.62-1-1-1-1.77v-.27a1,1,0,0,1,1-1.08c.69,0,1,.37,1,1.12V49.4h2V48.34c0-1.89-.87-3-3.07-3s-3.09,1.25-3.09,2.87v.44c0,1.5.58,2.26,1.83,3.49l1.29,1.29a2.36,2.36,0,0,1,1,1.85v.5c0,.69-.31,1.16-1,1.16s-1.08-.42-1.08-1.16V54h-2v1.75C59.34,57.49,60.21,58.75,62.45,58.75ZM56,45.52v10.1c0,.77-.31,1.29-1.08,1.29s-1.08-.52-1.08-1.29V45.52h-2.2v9.89c0,2,1,3.34,3.28,3.34S58,57.44,58,55.41V45.52ZM47.08,58.75c2.24,0,3.2-1.27,3.2-3.07V55c0-1.45-.58-2.18-1.77-3.39L47.1,50.26c-.64-.62-1-1-1-1.77v-.27a1,1,0,0,1,1-1.08c.69,0,1,.37,1,1.12V49.4h2V48.34c0-1.89-.87-3-3.07-3S44,46.62,44,48.24v.44c0,1.5.58,2.26,1.83,3.49l1.29,1.29a2.36,2.36,0,0,1,1,1.85v.5c0,.69-.31,1.16-1,1.16S46,56.55,46,55.82V54H44v1.75C44,57.49,44.84,58.75,47.08,58.75Z" fill="#fff"/></svg>