<svg id="720ae570-321a-4720-825c-a1406a367382" data-name="Layer 1" xmlns="http://www.w3.org/2000/svg" xmlns:xlink="http://www.w3.org/1999/xlink" viewBox="0 0 159.83 160"><defs><clipPath id="d60f4d41-12ee-49ad-9056-88637aa7c199"><rect width="159.83" height="160" fill="none"/></clipPath></defs><title>ods</title><rect x="-0.17" width="160" height="160" fill="#dd1367"/><rect width="159.83" height="160" fill="#dd1767"/><polygon points="16.01 20.56 16.01 45.53 21.36 45.53 21.36 12.91 17.09 12.91 12.16 18.83 12.16 24.56 12.21 24.56 15.96 20.56 16.01 20.56" fill="#fff"/><g clip-path="url(#d60f4d41-12ee-49ad-9056-88637aa7c199)"><path d="M40.88,37.11V21.33c0-5.1-2.49-8.8-7.93-8.8s-7.89,3.7-7.89,8.8V37.11c0,5,2.49,8.8,7.89,8.8s7.93-3.75,7.93-8.8M30.42,38V20.46c0-2,.7-3.37,2.53-3.37s2.58,1.4,2.58,3.37V38c0,2-.7,3.37-2.58,3.37S30.42,40,30.42,38" fill="#fff"/><path d="M94.7,105.3H65.13a.34.34,0,0,0-.32.36v8.9a.34.34,0,0,0,.32.36H94.7a.34.34,0,0,0,.33-.36v-8.9a.34.34,0,0,0-.33-.36" fill="#fff"/><path d="M94.7,86.37H65.13a.34.34,0,0,0-.32.36v8.89a.34.34,0,0,0,.32.36H94.7a.34.34,0,0,0,.33-.36V86.73a.34.34,0,0,0-.33-.36" fill="#fff"/><path d="M94.28,72.92,80.09,58.71a.25.25,0,0,0-.35,0L65.55,72.92a.25.25,0,0,0,.17.42H94.11a.25.25,0,0,0,.17-.42" fill="#fff"/><path d="M107.6,115l14.19-14.21a.24.24,0,0,0,0-.35L107.6,86.26a.25.25,0,0,0-.42.17v28.41a.25.25,0,0,0,.42.17" fill="#fff"/><path d="M65.55,128.36l14.19,14.21a.24.24,0,0,0,.35,0l14.19-14.21a.25.25,0,0,0-.17-.42H65.72a.25.25,0,0,0-.17.42" fill="#fff"/><path d="M52.23,86.26,38,100.47a.24.24,0,0,0,0,.35L52.23,115a.25.25,0,0,0,.42-.17V86.43a.24.24,0,0,0-.42-.17" fill="#fff"/></g><path d="M53.71,14.73c.76,0,1.09.35,1.09,1.07v1.95a1,1,0,0,1-1.09,1.09H53V14.73Zm1.34,11.4h2.34l-2.12-6C56.54,19.83,57,19,57,17.57v-1.7c0-1.85-.82-3-3.06-3H50.75V26.13H53V20.07Z" fill="#fff"/><polygon points="58.25 26.13 63.55 26.13 63.55 24.32 60.47 24.32 60.47 20.3 62.67 20.3 62.67 18.51 60.47 18.51 60.47 14.72 63.55 14.72 63.55 12.91 58.25 12.91 58.25 26.13" fill="#fff"/><path d="M68.14,12.91H64.71V26.13h3.43c2.38,0,3.21-1.52,3.21-3.55V16.46C71.36,14.41,70.52,12.91,68.14,12.91Zm-1.21,11.4V14.73h.94a1.16,1.16,0,0,1,1.27,1.33V23c0,.8-.35,1.35-1.27,1.35Z" fill="#fff"/><path d="M77,12.91V23.13c0,.78-.31,1.31-1.09,1.31s-1.09-.53-1.09-1.31V12.91H72.62v10c0,2,1,3.37,3.31,3.37s3.14-1.33,3.14-3.37v-10Z" fill="#fff"/><path d="M117.32,16.64h0l.88,5.3h-1.77Zm-1.56,9.49.39-2.42h2.36l.41,2.42h2.28l-2.51-13.22h-2.53l-2.49,13.22Zm-6.23-13.22H106.1V26.13h3.43c2.38,0,3.21-1.52,3.21-3.55V16.46C112.74,14.41,111.91,12.91,109.53,12.91Zm-1.21,11.4V14.73h.94a1.16,1.16,0,0,1,1.27,1.33V23c0,.8-.35,1.35-1.27,1.35Zm-8.9,2c2.36,0,3.37-1.52,3.37-3.57V16.32c0-2.07-1-3.57-3.37-3.57s-3.35,1.5-3.35,3.57v6.39C96.07,24.77,97.08,26.29,99.42,26.29Zm0-1.85c-.78,0-1.13-.57-1.13-1.36V16c0-.8.35-1.36,1.13-1.36s1.15.57,1.15,1.36v7.1C100.57,23.87,100.22,24.43,99.42,24.43Zm-8.14-7.8h0l.88,5.3H90.4Zm-.84-4.25a.26.26,0,0,1,.27-.29c.29,0,.76.33,1.32.33,1,0,1.32-.74,1.36-1.66H92.31a.26.26,0,0,1-.27.29c-.29,0-.76-.33-1.32-.33-1,0-1.32.74-1.36,1.66Zm-.72,13.74.39-2.42h2.36l.41,2.42h2.28L92.64,12.91H90.11L87.62,26.13Zm-7.05,2c1.4,0,2-.33,2-.94,0-.43-.29-.62-.82-.7v-.18c2.2-.08,2.94-1.44,2.94-3.29V20.71h-2v2.44c0,.78-.27,1.29-1.07,1.29s-1.13-.57-1.13-1.36V16c0-.8.33-1.36,1.13-1.36s1.07.47,1.07,1.29v1.74h2V16.07c0-1.95-.68-3.31-3.14-3.31s-3.31,1.5-3.31,3.57v6.39c0,1.85.78,3.28,2.67,3.51v.72h.1c.19,0,.31.08.31.21s-.1.29-.72.31Z" fill="#fff"/><path d="M125.13,26.29c2.26,0,3.23-1.29,3.23-3.1v-.64c0-1.46-.58-2.2-1.79-3.43l-1.42-1.4c-.64-.62-1.05-1.05-1.05-1.79v-.27a1,1,0,0,1,1.05-1.09c.7,0,1.05.37,1.05,1.13v1.15h2V15.76c0-1.91-.88-3-3.1-3S122,14,122,15.66v.45c0,1.52.58,2.28,1.85,3.53l1.31,1.31a2.39,2.39,0,0,1,1,1.87v.51c0,.7-.31,1.17-1,1.17s-1.09-.43-1.09-1.17V21.51H122v1.77C122,25,122.87,26.29,125.13,26.29Z" fill="#fff"/><path d="M68.16,45.67c2.26,0,3.23-1.29,3.23-3.1v-.64c0-1.46-.58-2.2-1.79-3.43l-1.42-1.4c-.64-.62-1.05-1.05-1.05-1.79V35a1,1,0,0,1,1.05-1.09c.7,0,1.05.37,1.05,1.13v1.15h2V35.14c0-1.91-.88-3-3.1-3S65,33.4,65,35v.45c0,1.52.58,2.28,1.85,3.53l1.31,1.31a2.39,2.39,0,0,1,1,1.87v.51c0,.7-.31,1.17-1,1.17s-1.09-.43-1.09-1.17V40.89H65v1.77C65,44.4,65.9,45.67,68.16,45.67Zm-9.5-.16H64V43.7H60.88v-4h2.2V37.89h-2.2V34.11H64V32.29h-5.3ZM54.18,32.29H50.75V45.51h3.43c2.38,0,3.21-1.52,3.21-3.55V35.84C57.39,33.79,56.56,32.29,54.18,32.29ZM53,43.7V34.11h.94a1.16,1.16,0,0,1,1.27,1.33v6.92c0,.8-.35,1.35-1.27,1.35Z" fill="#fff"/><rect x="72.56" y="32.29" width="2.22" height="13.22" fill="#fff"/><path d="M125,32.29h-3.43V45.51H125c2.38,0,3.21-1.52,3.21-3.55V35.84C128.17,33.79,127.33,32.29,125,32.29Zm-1.21,11.4V34.11h.94a1.16,1.16,0,0,1,1.27,1.33v6.92c0,.8-.35,1.35-1.27,1.35Zm-7-7.68h0l.88,5.3h-1.77Zm-1.56,9.49.39-2.42h2.36l.41,2.42h2.28L118.1,32.29h-2.53l-2.49,13.22Zm-6.23-13.22h-3.43V45.51h3.43c2.38,0,3.21-1.52,3.21-3.55V35.84C112.16,33.79,111.32,32.29,108.95,32.29Zm-1.21,11.4V34.11h.94a1.16,1.16,0,0,1,1.27,1.33v6.92c0,.8-.35,1.35-1.27,1.35Zm-8.1,1.81h4.87V43.7h-2.65V32.29H99.64ZM94.85,36h0l.88,5.3H94Zm-1.56,9.49.39-2.42H96l.41,2.42h2.28L96.21,32.29H93.68L91.18,45.51ZM88.22,32.29V42.51c0,.78-.31,1.31-1.09,1.31S86,43.29,86,42.51V32.29H83.82v10c0,2,1,3.37,3.31,3.37s3.14-1.33,3.14-3.37v-10ZM79.4,40.21h1.05v2.34c0,.86-.37,1.27-1.09,1.27s-1.09-.57-1.09-1.36v-7.1c0-.8.35-1.36,1.15-1.36s1.11.47,1.11,1.29v1.35h2V35.45c0-1.95-.72-3.31-3.18-3.31S76,33.64,76,35.7V42.1c0,2,.88,3.57,2.79,3.57A2,2,0,0,0,81,44.07v1.44h1.6V38.45H79.4Z" fill="#fff"/><polygon points="129.44 45.51 134.73 45.51 134.73 43.7 131.66 43.7 131.66 39.68 133.86 39.68 133.86 37.89 131.66 37.89 131.66 34.11 134.73 34.11 134.73 32.29 129.44 32.29 129.44 45.51" fill="#fff"/><path d="M138.92,45.67c2.26,0,3.23-1.29,3.23-3.1v-.64c0-1.46-.58-2.2-1.79-3.43l-1.42-1.4c-.64-.62-1.05-1.05-1.05-1.79V35a1,1,0,0,1,1.05-1.09c.7,0,1.05.37,1.05,1.13v1.15h2V35.14c0-1.91-.88-3-3.1-3S135.8,33.4,135.8,35v.45c0,1.52.58,2.28,1.85,3.53L139,40.32a2.39,2.39,0,0,1,1,1.87v.51c0,.7-.31,1.17-1,1.17s-1.09-.43-1.09-1.17V40.89h-2.06v1.77C135.78,44.4,136.66,45.67,138.92,45.67Z" fill="#fff"/></svg>