<svg id="f02cf5e4-4d23-493a-89c3-8cefe7992b99" data-name="Layer 1" xmlns="http://www.w3.org/2000/svg" viewBox="0 0 160 160"><title>ods</title><rect width="160" height="160" fill="#00689d"/><polygon points="12.31 19.27 12.31 24.93 12.36 24.93 16.16 20.99 16.21 20.99 16.21 45.68 21.64 45.68 21.64 13.42 17.31 13.42 12.31 19.27" fill="#fff"/><path d="M40.62,37.93V33.17c0-5.28-2.09-7.95-6-7.95a4.63,4.63,0,0,0-4.47,2.62h0V20.89c0-2,.62-3.33,2.57-3.33S35.2,18.7,35.2,20.7v2.15h4.95V21.13c0-4.76-1.57-8.09-7.57-8.09-5.71,0-7.85,3.66-7.85,8.71v15.7c0,5,2.19,8.61,7.9,8.61s8-3.14,8-8.14m-5.38.48c0,2-.76,3.24-2.62,3.24s-2.52-1.24-2.52-3.24V32.5c.09-1.81.85-2.95,2.57-2.95s2.57,1.14,2.57,3.24Z" fill="#fff"/><path d="M126.12,23.48h5.24V21.69h-3v-4h2.18V15.94h-2.18V12.2h3V10.41h-5.24Zm-6.39-9.39h0l.87,5.24h-1.75Zm-1.54,9.39.39-2.39h2.33l.4,2.39h2.26l-2.49-13.07h-2.51l-2.47,13.07Zm-6.79,1.95c1.39,0,1.95-.33,1.95-.93,0-.42-.29-.62-.81-.69v-.17c2.18-.08,2.91-1.43,2.91-3.26V18.12h-2v2.41c0,.77-.27,1.27-1.06,1.27s-1.12-.56-1.12-1.35v-7c0-.79.33-1.35,1.12-1.35s1.06.46,1.06,1.27v1.72h2V13.53c0-1.93-.67-3.28-3.1-3.28s-3.28,1.48-3.28,3.53v6.32c0,1.83.77,3.24,2.64,3.47v.71h.1c.19,0,.31.08.31.21s-.1.29-.71.31Zm-5.61-1.95H108V10.41h-2.2ZM99.11,12.2h1.81V23.48h2.22V12.2H105V10.41H99.11ZM95.2,23.64c2.24,0,3.2-1.27,3.2-3.07v-.64c0-1.45-.58-2.18-1.77-3.39l-1.41-1.39c-.64-.62-1-1-1-1.77v-.27a1,1,0,0,1,1-1.08c.69,0,1,.37,1,1.12v1.14h2V13.22c0-1.89-.87-3-3.07-3s-3.09,1.25-3.09,2.87v.44c0,1.5.58,2.26,1.83,3.49l1.29,1.29a2.36,2.36,0,0,1,1,1.85v.5c0,.69-.31,1.16-1,1.16s-1.08-.42-1.08-1.16V18.91h-2v1.75C92.09,22.38,93,23.64,95.2,23.64ZM89.12,10.41v10.1c0,.77-.31,1.29-1.08,1.29S87,21.28,87,20.51V10.41h-2.2V20.3c0,2,1,3.34,3.28,3.34s3.1-1.31,3.1-3.34V10.41Zm-7.6,0V20.74c0,.67-.23,1.06-.83,1.06s-.81-.39-.81-1V18.12H77.8v2.6c0,1.66.62,2.91,2.89,2.91s3-1.23,3-3.12V10.41ZM75,21.38H72.9l-.27,3.12h1.23l1.12-3ZM71.76,12.2V10.41H66.34V12.2h3.1L66,21.69v1.79h5.63V21.69H68.29ZM61.6,14.09h0l.87,5.24H60.73Zm-1.54,9.39.39-2.39h2.33l.4,2.39h2.26L62.95,10.41H60.44L58,23.48Zm-6-11.28c.75,0,1.08.35,1.08,1.06v3a.94.94,0,0,1-1.08,1.08h-.81V12.2Zm-3,11.28h2.2V19h1.06c2.22,0,3-1.12,3-3V13.34c0-1.83-.81-2.93-3-2.93H51.09Z" fill="#fff"/><path d="M124.23,40.82c2.24,0,3.2-1.27,3.2-3.07v-.64c0-1.45-.58-2.18-1.77-3.39l-1.41-1.39c-.64-.62-1-1-1-1.77v-.27a1,1,0,0,1,1-1.08c.69,0,1,.37,1,1.12v1.14h2V30.41c0-1.89-.87-3-3.07-3s-3.09,1.25-3.09,2.87v.44c0,1.5.58,2.26,1.83,3.49l1.29,1.29a2.36,2.36,0,0,1,1,1.85v.5c0,.69-.31,1.16-1,1.16s-1.08-.42-1.08-1.16V36.1h-2v1.75C121.12,39.57,122,40.82,124.23,40.82Zm-9.59-.15h5.24V38.88h-3v-4H119V33.13h-2.18V29.39h3V27.6h-5.24ZM109,27.07a.26.26,0,0,1,.27-.29c.29,0,.75.33,1.31.33,1,0,1.31-.73,1.35-1.64H110.8a.26.26,0,0,1-.27.29c-.29,0-.75-.33-1.31-.33-1,0-1.31.73-1.35,1.64Zm.93,13.75c2.33,0,3.34-1.5,3.34-3.53V31c0-2-1-3.53-3.34-3.53s-3.32,1.48-3.32,3.53v6.32C106.56,39.32,107.56,40.82,109.88,40.82Zm0-1.83c-.77,0-1.12-.56-1.12-1.35v-7c0-.79.35-1.35,1.12-1.35s1.14.56,1.14,1.35v7C111,38.43,110.67,39,109.88,39Zm-8.74,3.62c1.39,0,1.95-.33,1.95-.93,0-.42-.29-.62-.81-.69v-.17c2.18-.08,2.91-1.43,2.91-3.26V35.31h-2v2.41c0,.77-.27,1.27-1.06,1.27S101,38.43,101,37.64v-7c0-.79.33-1.35,1.12-1.35s1.06.46,1.06,1.27v1.72h2V30.72c0-1.93-.67-3.28-3.1-3.28S98.81,28.93,98.81,31v6.32c0,1.83.77,3.24,2.64,3.47v.71h.1c.19,0,.31.08.31.21s-.1.29-.71.31Zm-6-1.95h2.2V27.6h-2.2ZM91.71,27.6V37.7c0,.77-.31,1.29-1.08,1.29s-1.08-.52-1.08-1.29V27.6h-2.2v9.89c0,2,1,3.34,3.28,3.34s3.1-1.31,3.1-3.34V27.6Zm-11.4,1.79h1.81V40.67h2.22V29.39h1.81V27.6H80.31ZM76.91,40.67h2.2V27.6h-2.2Zm-7-11.28h1.81V40.67H73.9V29.39h1.81V27.6H69.87ZM65.59,40.82c2.24,0,3.2-1.27,3.2-3.07v-.64c0-1.45-.58-2.18-1.77-3.39l-1.41-1.39c-.64-.62-1-1-1-1.77v-.27a1,1,0,0,1,1-1.08c.69,0,1,.37,1,1.12v1.14h2V30.41c0-1.89-.87-3-3.07-3s-3.09,1.25-3.09,2.87v.44c0,1.5.58,2.26,1.83,3.49l1.29,1.29a2.36,2.36,0,0,1,1,1.85v.5c0,.69-.31,1.16-1,1.16s-1.08-.42-1.08-1.16V36.1h-2v1.75C62.48,39.57,63.35,40.82,65.59,40.82Zm-6.35-.15h1.93V27.6H59.34v7.5L57,27.6H54.81V40.67h1.85V32.45Zm-8.08,0h2.2V27.6h-2.2Z" fill="#fff"/><path d="M100.17,58.72c2.24,0,3.2-1.27,3.2-3.07V55c0-1.45-.58-2.18-1.77-3.39l-1.41-1.39c-.64-.62-1-1-1-1.77v-.27a1,1,0,0,1,1-1.08c.69,0,1,.37,1,1.12v1.14h2V48.31c0-1.89-.87-3-3.07-3s-3.09,1.25-3.09,2.87v.44c0,1.5.58,2.26,1.83,3.49l1.29,1.29a2.36,2.36,0,0,1,1,1.85v.5c0,.69-.31,1.16-1,1.16s-1.08-.42-1.08-1.16V54h-2v1.75C97.07,57.47,97.94,58.72,100.17,58.72Zm-9.59-.15h5.24V56.77h-3v-4H95V51H92.79V47.29h3V45.49H90.59ZM89.26,47.29V45.49H83.84v1.79h3.1l-3.45,9.49v1.79h5.63V56.77H85.78ZM78.72,49.18h0l.87,5.24H77.86Zm-1.54,9.39.39-2.39H79.9l.4,2.39h2.26L80.07,45.49H77.57L75.1,58.57ZM71,58.72c2.33,0,3.1-1.39,3.1-3.26V53.21h-2v2.41c0,.77-.27,1.27-1.06,1.27s-1.12-.56-1.12-1.35v-7c0-.79.33-1.35,1.12-1.35s1.06.46,1.06,1.27v1.72h2V48.62c0-1.93-.67-3.28-3.1-3.28s-3.28,1.48-3.28,3.53v6.32C67.69,57.22,68.66,58.72,71,58.72ZM64,58.57h2.2V45.49H64Zm-6.29,0H60V52.8h2.2V51H60V47.29h3V45.49H57.76Zm-6.6,0h5.24V56.77h-3v-4h2.18V51H53.36V47.29h3V45.49H51.16Z" fill="#fff"/><path d="M106.13,71.41s-1.56,2.07-1.11,4.09,2.76,3.22,2.76,3.22,1.56-2.07,1.11-4.09-2.76-3.22-2.76-3.22" fill="#fff"/><path d="M103.58,83.25s1.56-2.07,1.11-4.09-2.76-3.22-2.76-3.22A5.77,5.77,0,0,0,100.82,80c.46,2,2.76,3.22,2.76,3.22" fill="#fff"/><path d="M110,81a5.13,5.13,0,0,0,3.53,1.5,5.35,5.35,0,0,0,3.27-2.1,5.13,5.13,0,0,0-3.52-1.5A5.36,5.36,0,0,0,110,81" fill="#fff"/><path d="M112.7,72.15c-1.53,1.55-1.31,4.29-1.31,4.29s2.69.23,4.22-1.31,1.31-4.29,1.31-4.29-2.69-.23-4.22,1.31" fill="#fff"/><path d="M109.33,87.19A5.36,5.36,0,0,0,113,85.8a5.13,5.13,0,0,0-3.14-2.18A5.36,5.36,0,0,0,106.19,85a5.13,5.13,0,0,0,3.14,2.18" fill="#fff"/><path d="M111,117.25H97a2,2,0,1,0,0,4h14a2,2,0,0,0,0-4" fill="#fff"/><path d="M111,139H97a2,2,0,1,0,0,4h14a2,2,0,0,0,0-4" fill="#fff"/><path d="M48.14,112.45a8.32,8.32,0,0,0-1-.25s.36.11,1,.25" fill="#fff"/><path d="M70.79,121c.92,0,1.85,0,2.77-.08v7.3l-2.77-.06Zm39.69,1.58h-13a1.12,1.12,0,0,0-1.12,1.12v3.92l-8.46.93-12.35-.28v-7.54a34.11,34.11,0,0,0,4.91-1C92.4,116.38,95,109,94.74,102.17s2-9.62,5.14-10.81a14.29,14.29,0,0,1,2.64-.7,21.27,21.27,0,0,0,1.14,6l.84-.07a20,20,0,0,1-1.17-6.08,14.87,14.87,0,0,1,2.82-.09,17.81,17.81,0,0,1-2.68-1.91c.53-3.28,2.49-5.29,4.5-7.35a24.23,24.23,0,0,0,3.15-3.7l-.7-.45a23.27,23.27,0,0,1-3,3.57c-2,2-3.94,4.06-4.62,7.32a26.34,26.34,0,0,1-2-2C97.8,82.59,94,85,88.64,90S76.48,95.2,69.87,88.43c-8.73-8.93-16.34-8.88-21.56-8.38,3.57,1.52,4.82,4.86,6.63,13.34,1.89,8.9,6.67,12.93,13.2,13.48-3,.49-3.81.91-8.68,4.27-3.8,2.62-9.15,1.79-11.32,1.3,4,1.24,8.7,5.42,12.92,6.87a31.26,31.26,0,0,0,7.7,1.58v7.22l-23.43-.5v5L88,131.71l8.46.93v3.92a1.13,1.13,0,0,0,1.12,1.13h13a1.13,1.13,0,0,0,1.13-1.13V123.71a1.13,1.13,0,0,0-1.13-1.12" fill="#fff"/><path d="M44.12,131.82a1.81,1.81,0,0,1-1.66,1.92h-1a1.81,1.81,0,0,1-1.66-1.92v-3.48a1.81,1.81,0,0,1,1.66-1.92h1a1.8,1.8,0,0,1,1.66,1.92Z" fill="#fff"/></svg>