<svg id="89c52dcd-c906-4d37-8db4-0332e424e9ed" data-name="Layer 1" xmlns="http://www.w3.org/2000/svg" viewBox="0 0 160 160"><title>ods</title><rect width="160" height="160" fill="#c5192d"/><path d="M25.06,45.67H30.2V40.44h2.19V36.2H30.2V13.41H24.87L15.5,37.11v3.33h9.56ZM20.26,36.2l4.85-13.27h0V36.2Z" fill="#fff"/><polygon points="70.95 85.79 42.25 69.22 42.25 122.82 70.95 131.48 70.95 85.79" fill="#fff"/><polygon points="74.1 85.9 74.1 131.5 102.99 122.81 102.99 69.22 74.1 85.9" fill="#fff"/><path d="M125.51,67.86a3.39,3.39,0,1,0-6.79,0v3.66h6.79Z" fill="#fff"/><polygon points="119.57 121.87 118.72 121.87 122.12 133.74 125.51 121.87 124.67 121.87 125.51 121.87 125.51 74.18 124.67 74.18 123.83 74.18 122.93 74.18 121.24 74.18 120.41 74.18 119.57 74.18 118.72 74.18 118.72 121.87 119.57 121.87" fill="#fff"/><polygon points="109.15 71.52 106.07 69.09 106.07 124.28 74.19 134.58 72.71 134.58 72.42 134.58 70.95 134.58 39.2 125.71 39.2 69.09 36.13 71.52 36.13 127.87 70.8 137.47 72.42 137.47 72.71 137.47 74.33 137.47 106.33 127.31 109.15 126.48 109.15 71.52" fill="#fff"/><path d="M103.5,45.63h5.24V43.84h-3v-4h2.18V38.09H105.7V34.35h3V32.56H103.5ZM98.91,32.56H95.51V45.63h3.39c2.35,0,3.18-1.5,3.18-3.51V36.07C102.09,34,101.26,32.56,98.91,32.56Zm-1.2,11.28V34.35h.93a1.15,1.15,0,0,1,1.25,1.31v6.85c0,.79-.35,1.33-1.25,1.33Zm-7.1-7.6h0l.87,5.24H89.75Zm-1.54,9.39.39-2.39h2.33l.4,2.39h2.26L92,32.56H89.46L87,45.63ZM82.74,32.56H79.35V45.63h3.39c2.35,0,3.18-1.5,3.18-3.51V36.07C85.93,34,85.1,32.56,82.74,32.56Zm-1.2,11.28V34.35h.93a1.15,1.15,0,0,1,1.25,1.31v6.85c0,.79-.35,1.33-1.25,1.33Zm-5.82,1.79h2.2V32.56h-2.2Zm-6,0h4.82V43.84H71.94V32.56h-2.2Zm-4.9-9.39h0l.87,5.24H64ZM63.3,45.63l.39-2.39H66l.4,2.39h2.26L66.19,32.56H63.69L61.22,45.63ZM58.13,32.56v10.1c0,.77-.31,1.29-1.08,1.29S56,43.43,56,42.66V32.56h-2.2v9.89c0,2,1,3.34,3.28,3.34s3.1-1.31,3.1-3.34V32.56ZM49,44.07c-.77,0-1.12-.58-1.12-1.35V35.58c0-.79.35-1.35,1.12-1.35s1.14.56,1.14,1.35v7.13C50.17,43.49,49.82,44.07,49,44.07Zm3.34,3.22V45.65l-1.62-.31a3.14,3.14,0,0,0,1.62-3.09V35.93c0-2-1-3.53-3.34-3.53s-3.32,1.48-3.32,3.53v6.32c0,1.77.75,3.07,2.51,3.37v.89Z" fill="#fff"/><path d="M64.67,13.38v10.1c0,.77-.31,1.29-1.08,1.29s-1.08-.52-1.08-1.29V13.38h-2.2v9.89c0,2,1,3.34,3.28,3.34s3.1-1.31,3.1-3.34V13.38Zm-9,0H52.31V26.46H55.7c2.35,0,3.18-1.5,3.18-3.51V16.89C58.88,14.87,58.05,13.38,55.7,13.38Zm-1.2,11.28V15.18h.93a1.15,1.15,0,0,1,1.25,1.31v6.85c0,.79-.35,1.33-1.25,1.33Zm-8.79,1.79H51V24.66h-3v-4h2.18V18.92H47.91V15.18h3V13.38H45.71Z" fill="#fff"/><path d="M115.07,26.46h5.24V24.66h-3v-4h2.18V18.92h-2.18V15.18h3V13.38h-5.24Zm-4.15-13.07h-3.39V26.46h3.39c2.35,0,3.18-1.5,3.18-3.51V16.89C114.11,14.87,113.28,13.38,110.93,13.38Zm-1.2,11.28V15.18h.93a1.15,1.15,0,0,1,1.25,1.31v6.85c0,.79-.35,1.33-1.25,1.33Zm-8.24,1.95c2.33,0,3.34-1.5,3.34-3.53V16.76c0-2-1-3.53-3.34-3.53s-3.32,1.48-3.32,3.53v6.32C98.18,25.11,99.18,26.61,101.49,26.61Zm0-1.83c-.77,0-1.12-.56-1.12-1.35v-7c0-.79.35-1.35,1.12-1.35s1.14.56,1.14,1.35v7C102.63,24.22,102.28,24.78,101.49,24.78Zm-7.77-7.71h0l.87,5.24H92.85Zm-.83-4.2a.26.26,0,0,1,.27-.29c.29,0,.75.33,1.31.33,1,0,1.31-.73,1.35-1.64H94.74a.26.26,0,0,1-.27.29c-.29,0-.75-.33-1.31-.33-1,0-1.31.73-1.35,1.64Zm-.71,13.59.39-2.39H94.9l.4,2.39h2.26L95.07,13.38H92.56L90.09,26.46Zm-6.69,1.95c1.39,0,1.95-.33,1.95-.93,0-.42-.29-.62-.81-.69v-.17c2.18-.08,2.91-1.43,2.91-3.26V21.1h-2v2.41c0,.77-.27,1.27-1.06,1.27s-1.12-.56-1.12-1.35v-7c0-.79.33-1.35,1.12-1.35s1.06.46,1.06,1.27v1.72h2V16.51c0-1.93-.67-3.28-3.1-3.28s-3.28,1.48-3.28,3.53v6.32c0,1.83.77,3.24,2.64,3.47v.71h.1c.19,0,.31.08.31.21s-.1.29-.71.31ZM78.69,17.07h0l.87,5.24H77.83Zm-1.54,9.39.39-2.39h2.33l.4,2.39h2.26L80,13.38H77.54L75.07,26.46Zm-5.75.15c2.33,0,3.1-1.39,3.1-3.26V21.1h-2v2.41c0,.77-.27,1.27-1.06,1.27s-1.12-.56-1.12-1.35v-7c0-.79.33-1.35,1.12-1.35s1.06.46,1.06,1.27v1.72h2V16.51c0-1.93-.67-3.28-3.1-3.28s-3.28,1.48-3.28,3.53v6.32C68.12,25.11,69.09,26.61,71.4,26.61Z" fill="#fff"/></svg>