<svg id="55d5fc39-b6e9-4fb8-9d0c-fcdecfdbccab" data-name="Layer 1" xmlns="http://www.w3.org/2000/svg" viewBox="0 0 160 160"><title>ODS</title><path d="M25.51,23.62a4.9,4.9,0,0,0-4.57,2.24h0v-8h9.33V13.39H15.95V31.57h4.94v-.72c0-1.9.86-2.95,2.38-2.95s2.33,1.14,2.33,2.9v7.8c0,1.71-.62,2.9-2.29,2.9-1.86,0-2.52-1.24-2.52-3.14v-4h-5V38c0,4.9,2,8,7.47,8S31,43.13,31,38.66v-7.9c0-5.09-2.62-7.14-5.52-7.14" fill="#fff"/><path d="M116.54,60.54H96.65a.26.26,0,0,0-.25.25V67.4a.26.26,0,0,0,.25.25h7.92l-8.79,8.79a26,26,0,1,0-19.42,46.3v7.61H68.52a.25.25,0,0,0-.25.25v7.08a.25.25,0,0,0,.25.25h7.84v7.49a.25.25,0,0,0,.25.25h7.08a.26.26,0,0,0,.26-.25V138h7.84a.25.25,0,0,0,.25-.25v-7.08a.25.25,0,0,0-.25-.25H84v-7.74A26,26,0,0,0,101,82l8.67-8.67v7.4a.26.26,0,0,0,.26.25h6.61a.26.26,0,0,0,.26-.25V60.8a.26.26,0,0,0-.26-.25M79.72,116.1A19.17,19.17,0,1,1,98.9,96.93,19.19,19.19,0,0,1,79.72,116.1" fill="#fff"/><path d="M91.43,89.06H68.18a.24.24,0,0,0-.25.23v5.63a.24.24,0,0,0,.25.23H91.43a.24.24,0,0,0,.26-.23V89.29a.24.24,0,0,0-.26-.23" fill="#fff"/><path d="M91.43,99.12H68.18a.25.25,0,0,0-.25.23V105a.24.24,0,0,0,.25.23H91.43a.24.24,0,0,0,.26-.23V99.35a.25.25,0,0,0-.26-.23" fill="#fff"/><path d="M102.12,45.78c2.33,0,3.34-1.5,3.34-3.53V35.93c0-2-1-3.53-3.34-3.53s-3.32,1.48-3.32,3.53v6.32C98.8,44.28,99.81,45.78,102.12,45.78Zm0-1.83c-.77,0-1.12-.56-1.12-1.35v-7c0-.79.35-1.35,1.12-1.35s1.14.56,1.14,1.35v7C103.26,43.39,102.91,44,102.12,44Zm-8-9.6c.75,0,1.08.35,1.08,1.06v1.93a1,1,0,0,1-1.08,1.08h-.73V34.35Zm1.33,11.28H97.8l-2.1-5.94c1.25-.29,1.75-1.12,1.75-2.53V35.49c0-1.83-.81-2.93-3-2.93h-3.2V45.63h2.2v-6Zm-10.84,0h5.24V43.84h-3v-4H89V38.09H86.85V34.35h3V32.56H84.65Zm-3.34,0h1.93V32.56H81.4v7.5L79,32.56H76.87V45.63h1.85V37.42ZM73.09,31.52l1.85.56V31l-1.39-1h-1L71.2,31v1.06ZM70.3,45.63h5.24V43.84h-3v-4h2.18V38.09H72.49V34.35h3V32.56H70.3Zm-4.53-5.24h1V42.7c0,.85-.37,1.25-1.08,1.25s-1.08-.56-1.08-1.35v-7c0-.79.35-1.35,1.14-1.35s1.1.46,1.1,1.27v1.33h2V35.68c0-1.93-.71-3.28-3.14-3.28s-3.3,1.48-3.3,3.53v6.32c0,2,.87,3.53,2.76,3.53a2,2,0,0,0,2.1-1.58v1.43h1.58v-7H65.76ZM53.69,45.63h5.24V43.84h-3v-4h2.18V38.09H55.89V34.35h3V32.56H53.69ZM49.1,32.56H45.7V45.63H49.1c2.35,0,3.18-1.5,3.18-3.51V36.07C52.28,34,51.45,32.56,49.1,32.56ZM47.9,43.84V34.35h.93a1.15,1.15,0,0,1,1.25,1.31v6.85c0,.79-.35,1.33-1.25,1.33Z" fill="#fff"/><path d="M103.59,26.46h5.24V24.66h-3v-4H108V18.92h-2.18V15.18h3V13.38h-5.24ZM99,13.38H95.56V26.46H99c2.35,0,3.18-1.5,3.18-3.51V16.89C102.14,14.87,101.31,13.38,99,13.38Zm-1.2,11.28V15.18h.93a1.15,1.15,0,0,1,1.25,1.31v6.85c0,.79-.35,1.33-1.25,1.33Zm-7.14-7.6h0l.87,5.24H89.76Zm-1.54,9.39.39-2.39H91.8l.4,2.39h2.26L92,13.38H89.47L87,26.46ZM82.72,13.38H79.32V26.46h3.39c2.35,0,3.18-1.5,3.18-3.51V16.89C85.9,14.87,85.07,13.38,82.72,13.38Zm-1.2,11.28V15.18h.93a1.15,1.15,0,0,1,1.25,1.31v6.85c0,.79-.35,1.33-1.25,1.33Zm-8.22,1.79h4.82V24.66H75.5V13.38h-2.2Zm-4.94-9.39h0l.87,5.24H67.5Zm-1.54,9.39.39-2.39h2.33l.4,2.39H72.2L69.72,13.38H67.21L64.74,26.46ZM61.61,13.38v10.1c0,.77-.31,1.29-1.08,1.29s-1.08-.52-1.08-1.29V13.38h-2.2v9.89c0,2,1,3.34,3.28,3.34s3.1-1.31,3.1-3.34V13.38Zm-8.93,7.83h1v2.31c0,.85-.37,1.25-1.08,1.25s-1.08-.56-1.08-1.35v-7c0-.79.35-1.35,1.14-1.35s1.1.46,1.1,1.27v1.33h2V16.51c0-1.93-.71-3.28-3.14-3.28s-3.3,1.48-3.3,3.53v6.32c0,2,.87,3.53,2.76,3.53A2,2,0,0,0,54.23,25v1.43h1.58v-7H52.68Zm-7,5.24h2.2V13.38H45.7Z" fill="#fff"/></svg>