<svg id="4d8c3c37-05b7-44f6-adce-d44afe7311a5" data-name="Layer 1" xmlns="http://www.w3.org/2000/svg" viewBox="0 0 160 160"><title>ODS</title><polygon points="22.34 21.04 22.39 21.04 22.39 45.74 27.81 45.74 27.81 13.48 23.48 13.48 18.48 19.33 18.48 24.99 18.53 24.99 22.34 21.04" fill="#fff"/><path d="M123.22,76.33a4.43,4.43,0,1,1,4.43,4.43,4.43,4.43,0,0,1-4.43-4.43" fill="#fff"/><path d="M132.82,82.47a5.9,5.9,0,0,1,5.36,5.88v12.28a1.72,1.72,0,0,1-3.43,0V90.09c0-.4-.12-.93-.84-.93-.5,0-.6.53-.62.87v31.61a2.47,2.47,0,0,1-4.94,0V103.42a.67.67,0,0,0-.7-.72h0a.68.68,0,0,0-.71.72v18.21a2.47,2.47,0,1,1-4.93,0V90c0-.34-.12-.87-.62-.87-.73,0-.84.54-.84.93v10.54a1.72,1.72,0,0,1-3.43,0V88.36a5.9,5.9,0,0,1,5.37-5.88l.32,0h9.68a2.61,2.61,0,0,1,.34,0" fill="#fff"/><path d="M96.88,78.66a4.19,4.19,0,1,0-4.19,4.19,4.19,4.19,0,0,0,4.19-4.19" fill="#fff"/><path d="M84.24,88.16,80.75,99.51s-.62,2.08,1.14,2.6,2.29-1.51,2.29-1.51L87,91.13s.15-.73.7-.57.34.94.34.94l-4.89,17.75H87.7V122a2.18,2.18,0,0,0,4.37,0V109.25h1.24V122a2.19,2.19,0,0,0,4.37,0V109.25h4.55L97.34,91.49s-.21-.78.34-.94.7.57.7.57l2.81,9.47s.53,2,2.29,1.51,1.14-2.6,1.14-2.6l-3.49-11.35s-1.25-3.28-4-3.28H88.24c-2.76,0-4,3.28-4,3.28" fill="#fff"/><path d="M71.76,78.66a4.19,4.19,0,1,0-4.19,4.19,4.2,4.2,0,0,0,4.19-4.19" fill="#fff"/><path d="M59.11,88.16,55.63,99.51s-.62,2.08,1.14,2.6,2.29-1.51,2.29-1.51l2.81-9.47s.15-.73.7-.57.34.94.34.94L58,109.25h4.55V122a2.19,2.19,0,0,0,4.37,0V109.25h1.24V122a2.19,2.19,0,0,0,4.37,0V109.25h4.55L72.22,91.49s-.21-.78.34-.94.7.57.7.57l2.81,9.47s.53,2,2.29,1.51,1.14-2.6,1.14-2.6L76,88.16s-1.24-3.28-4-3.28H63.12c-2.76,0-4,3.28-4,3.28" fill="#fff"/><path d="M111,102.14a3.49,3.49,0,1,0-3.49-3.49,3.49,3.49,0,0,0,3.49,3.49" fill="#fff"/><path d="M102.6,113a1.21,1.21,0,0,0,.51,1.65,1.16,1.16,0,0,0,1.5-.49l1.9-6.05s.33-.4.33,0v14.25h0a1.79,1.79,0,0,0,3.58,0v-5.62s-.1-.8.54-.8.54.8.54.8v5.62a1.8,1.8,0,0,0,3.59,0V108.11c0-.42.22-.12.22-.12l1.49,4.14a9.92,9.92,0,0,0,.85,1.93,1.32,1.32,0,0,0,1.73-.72,1.31,1.31,0,0,0-.14-1.27h0c0-.13-2.22-5.48-2.48-6.23-.79-2.3-2.22-2.28-3.6-2.32s-2.21,0-2.21,0-.88,0-2.7,0-2.39,1-4.4,6.15c-.29.74-1.26,3.15-1.27,3.29Z" fill="#fff"/><path d="M34.3,76.33a4.43,4.43,0,1,0-4.43,4.43,4.43,4.43,0,0,0,4.43-4.43" fill="#fff"/><path d="M24.69,82.47a5.91,5.91,0,0,0-5.36,5.88v12.28a1.72,1.72,0,0,0,3.44,0V90.09c0-.4.11-.93.84-.93.5,0,.6.53.62.87v31.61a2.47,2.47,0,1,0,4.93,0V103.42a.67.67,0,0,1,.7-.72h0a.68.68,0,0,1,.71.72v18.21a2.47,2.47,0,1,0,4.93,0V90c0-.34.13-.87.62-.87.73,0,.84.54.84.93v10.54a1.72,1.72,0,0,0,3.43,0V88.36A5.9,5.9,0,0,0,35,82.47l-.33,0H25a2.62,2.62,0,0,0-.34,0" fill="#fff"/><path d="M21.47,102.54l-3.93,20.85a.65.65,0,0,1-1.28-.24l3.93-20.85a.65.65,0,0,1,1.28.24" fill="#fff"/><path d="M42.51,100.31a1.27,1.27,0,0,0-2.35.67,2.32,2.32,0,0,0,.12.56l3.52,6.37a2.26,2.26,0,0,1,.22.84v13.68h0a1.72,1.72,0,1,0,3.44,0V117s-.1-.76.52-.76.52.76.52.76v5.4a1.72,1.72,0,0,0,3.45,0V108.75a2.28,2.28,0,0,1,.21-.84L55.41,102a5.74,5.74,0,0,0,.4-1,1.27,1.27,0,0,0-2.35-.67h0c-.1.09-1.73,3-2.27,3.53a1.41,1.41,0,0,1-1.08.51H45.87a1.41,1.41,0,0,1-1.08-.51c-.54-.54-2.17-3.44-2.27-3.53Z" fill="#fff"/><path d="M48,102.14a3.49,3.49,0,1,0-3.49-3.49A3.49,3.49,0,0,0,48,102.14" fill="#fff"/><polygon points="47.99 107.04 51.93 109.91 53.81 116.82 47.99 116.82 42.16 116.82 44.04 109.91 47.99 107.04" fill="#fff"/><path d="M123.07,26.47c2.33,0,3.34-1.5,3.34-3.53V16.62c0-2-1-3.53-3.34-3.53s-3.32,1.48-3.32,3.53v6.32C119.76,25,120.76,26.47,123.07,26.47Zm0-1.83c-.77,0-1.12-.56-1.12-1.35v-7c0-.79.35-1.35,1.12-1.35s1.14.56,1.14,1.35v7C124.21,24.08,123.86,24.64,123.07,24.64Zm-8.26-7.71h0l.87,5.24H114Zm-.83-4.2a.26.26,0,0,1,.27-.29c.29,0,.75.33,1.31.33,1,0,1.31-.73,1.35-1.64h-1.08a.26.26,0,0,1-.27.29c-.29,0-.75-.33-1.31-.33-1,0-1.31.73-1.35,1.64Zm-.71,13.59.39-2.39H116l.4,2.39h2.26l-2.49-13.07h-2.51l-2.47,13.07Zm-7.18,1.95c1.39,0,1.95-.33,1.95-.93,0-.42-.29-.62-.81-.69v-.17c2.18-.08,2.91-1.43,2.91-3.26V21h-2v2.41c0,.77-.27,1.27-1.06,1.27S106,24.08,106,23.29v-7c0-.79.33-1.35,1.12-1.35s1.06.46,1.06,1.27v1.72h2V16.37c0-1.93-.67-3.28-3.1-3.28s-3.28,1.48-3.28,3.53v6.32c0,1.83.77,3.24,2.64,3.47v.71h.1c.19,0,.31.08.31.21s-.1.29-.71.31ZM98.83,16.93h0l.87,5.24H98Zm-1.54,9.39.39-2.39H100l.4,2.39h2.26l-2.49-13.07H97.67L95.2,26.32Zm-6.23.15c2.33,0,3.1-1.39,3.1-3.26V21h-2v2.41c0,.77-.27,1.27-1.06,1.27S90,24.08,90,23.29v-7c0-.79.33-1.35,1.12-1.35s1.06.46,1.06,1.27v1.72h2V16.37c0-1.93-.67-3.28-3.1-3.28s-3.28,1.48-3.28,3.53v6.32C87.78,25,88.74,26.47,91.05,26.47Zm-6.94-.15h2.2V13.25h-2.2ZM79.48,13.25H76.09V26.32h3.39c2.35,0,3.18-1.5,3.18-3.51V16.76C82.66,14.73,81.83,13.25,79.48,13.25Zm-1.2,11.28V15h.93a1.15,1.15,0,0,1,1.25,1.31V23.2c0,.79-.35,1.33-1.25,1.33Zm-7.14-7.6h0L72,22.17H70.28Zm-1.54,9.39L70,23.93h2.33l.4,2.39H75L72.5,13.25H70L67.52,26.32ZM63.18,15c.75,0,1.08.35,1.08,1.06V18a1,1,0,0,1-1.08,1.08h-.73V15Zm1.33,11.28h2.31l-2.1-5.94c1.25-.29,1.75-1.12,1.75-2.53V16.18c0-1.83-.81-2.93-3-2.93h-3.2V26.32h2.2v-6ZM55.56,15c.75,0,1.08.35,1.08,1.06V18a1,1,0,0,1-1.08,1.08h-.73V15Zm1.33,11.28h2.31l-2.1-5.94c1.25-.29,1.75-1.12,1.75-2.53V16.18c0-1.83-.81-2.93-3-2.93h-3.2V26.32h2.2v-6ZM46,26.32h5.24V24.53h-3v-4h2.18V18.78H48.21V15h3V13.25H46Z" fill="#fff"/><path d="M112.41,36.28h0l.87,5.24h-1.75Zm-1.54,9.39.39-2.39h2.33l.4,2.39h2.26l-2.49-13.07h-2.51l-2.47,13.07Zm-3.09-11.28V32.59h-5.42v1.79h3.1L102,43.87v1.79h5.63V43.87h-3.34ZM95.55,45.67h5.24V43.87h-3v-4h2.18V38.13H97.75V34.39h3V32.59H95.55ZM90.86,34.39c.75,0,1.08.35,1.08,1.06v1.93a1,1,0,0,1-1.08,1.08h-.73V34.39Zm1.33,11.28h2.31l-2.1-5.94c1.25-.29,1.75-1.12,1.75-2.53V35.52c0-1.83-.81-2.93-3-2.93h-3.2V45.67h2.2v-6Zm-9.8-11.28h.75a.92.92,0,0,1,1.06,1.06V37a.93.93,0,0,1-1,1.06h-.77Zm.94,5.4c.77,0,1.1.37,1.1,1.06v2a1,1,0,0,1-1.08,1.06h-1V39.79ZM80.2,45.67h3.41c2.2,0,3-1,3-2.87V41.06A2,2,0,0,0,85,38.88a1.9,1.9,0,0,0,1.31-2.08V35.47c0-1.85-.73-2.87-2.93-2.87H80.2Zm-4.78.15c2.33,0,3.34-1.5,3.34-3.53V36c0-2-1-3.53-3.34-3.53S72.09,33.92,72.09,36v6.32C72.09,44.32,73.1,45.82,75.41,45.82Zm0-1.83c-.77,0-1.12-.56-1.12-1.35v-7c0-.79.35-1.35,1.12-1.35s1.14.56,1.14,1.35v7C76.55,43.43,76.2,44,75.41,44Zm-7.93-9.6c.75,0,1.08.35,1.08,1.06v3a.94.94,0,0,1-1.08,1.08h-.81V34.39Zm-3,11.28h2.2V41.23h1.06c2.22,0,3-1.12,3-3V35.52c0-1.83-.81-2.93-3-2.93H64.48Zm-7.16-9.39h0l.87,5.24H56.45Zm-1.54,9.39.39-2.39h2.33l.4,2.39h2.26L58.67,32.59H56.16L53.69,45.67ZM49.41,32.59H46V45.67h3.39c2.35,0,3.18-1.5,3.18-3.51V36.1C52.59,34.08,51.76,32.59,49.41,32.59Zm-1.2,11.28V34.39h.93a1.15,1.15,0,0,1,1.25,1.31v6.85c0,.79-.35,1.33-1.25,1.33Z" fill="#fff"/></svg>